<svg width="102" height="135" viewBox="0 0 102 135" fill="none" xmlns="http://www.w3.org/2000/svg">
<path fill-rule="evenodd" clip-rule="evenodd" d="M12.75 97.4363L0 90.5681L12.6593 73.3163L0 62.2913L26.707 47.88C27.863 49.1794 29.0303 50.715 30.1297 52.4194L9.82033 63.3769L16.5127 69.21L33.8413 59.7262C34.5157 61.4925 35.0653 63.3319 35.4393 65.2219L16.9603 75.3525L51.0623 92.8406L85 75.375L67.1387 65.5594C67.4843 63.6075 67.9547 61.8075 68.544 60.1144L85.1643 69.1988L92.157 63.0394L72.3237 52.605C73.3607 51.0581 74.5223 49.5675 75.803 48.0881L102 61.8638L89.1877 73.1587L89.25 73.1925L102 90.5231L89.25 97.4081V114.772L51 135L12.75 114.772V97.4363ZM53.8107 96.9075V127.153L83.589 111.409V100.463L63.75 111.178L53.8107 96.9075ZM18.411 100.485V111.409L48.1497 127.136V96.9131L38.25 111.178L18.411 100.485ZM8.36967 88.695L36.4763 103.837L42.704 94.8712L14.467 80.3869L8.36967 88.695ZM59.3017 94.9219L65.5123 103.837L93.6247 88.6612L87.5443 80.3869L59.3017 94.9219ZM52.547 78.525H49.5947C48.824 78.525 48.076 78.2663 47.566 77.8106L43.6447 75.2513H58.497L54.5757 77.8106C54.0713 78.2663 53.3233 78.525 52.547 78.525ZM58.6387 71.9775H43.5937C42.6813 71.9775 41.9447 71.2519 41.9447 70.3462C41.9447 69.4406 42.6813 68.7094 43.5937 68.7094H58.6387C59.551 68.7094 60.2877 69.4406 60.2877 70.3462C60.2877 71.2519 59.551 71.9775 58.6387 71.9775ZM60.265 65.4356H41.8767C41.8767 52.515 31.2687 46.9237 31.2687 35.2463C31.2687 23.0625 41.1627 16.3575 51.0623 16.3575C60.9677 16.3575 70.8787 23.0737 70.8787 35.2463C70.8787 46.9237 60.2707 52.335 60.265 65.4356ZM55.1593 59.8275C56.2247 54.4612 58.6953 50.3269 60.928 46.575C63.3307 42.5588 65.2177 39.3806 65.2177 35.2463C65.2177 26.5275 58.0947 21.9656 51.0623 21.9656C44.0413 21.9656 36.924 26.5275 36.924 35.2463C36.924 39.4031 38.8337 42.6262 41.2477 46.6931C43.469 50.4281 45.9057 54.5456 46.9823 59.8275H55.1593ZM24.803 35.5219H14.7617V29.9137H25.0637C24.8427 31.1456 24.7293 32.4169 24.7293 33.705L24.803 35.5219ZM87.38 35.5219H77.401L77.4803 33.705C77.4803 32.4169 77.367 31.1456 77.1403 29.9137H87.38V35.5219ZM30.8097 18.585C29.5233 19.9744 28.407 21.4987 27.5003 23.1356L19.346 17.3925L22.6213 12.8194L30.8097 18.585ZM71.3773 18.5569L79.5203 12.8194L82.7957 17.3925L74.6923 23.1019C73.78 21.4706 72.6637 19.9463 71.3773 18.5569ZM41.344 11.6944C39.542 12.3413 37.8363 13.1625 36.2497 14.13L31.875 5.27062L36.958 2.80687L41.344 11.6944ZM60.809 11.6719L65.1893 2.80687L70.2667 5.27062L65.909 14.1019C64.3223 13.1344 62.6167 12.3131 60.809 11.6719ZM53.9013 10.1475C52.9833 10.0575 52.0483 10.0125 51.102 10.0125C50.1387 10.0125 49.181 10.0631 48.2403 10.1531V0H53.9013V10.1475Z" fill="#F0F0F0"/>
</svg>
