<svg width="354" height="113" viewBox="0 0 354 113" fill="none" xmlns="http://www.w3.org/2000/svg">
<path d="M37.7194 81C35.9949 80.9993 34.3094 80.4944 32.8757 79.5491C31.442 78.6039 30.3245 77.2606 29.6644 75.6891C29.0043 74.1176 28.8312 72.3884 29.167 70.7199C29.5028 69.0514 30.3324 67.5185 31.5509 66.3149L57.763 40.4541L31.5509 14.5955C29.9563 12.9737 29.0722 10.7983 29.0897 8.539C29.1072 6.27971 30.0248 4.11784 31.6443 2.52024C33.2639 0.922633 35.4555 0.0174857 37.7459 0.000250691C40.0362 -0.0169843 42.2416 0.855074 43.8856 2.42812L71.4483 29.6169C72.8913 31.0399 74.036 32.7294 74.817 34.5889C75.598 36.4483 76 38.4414 76 40.4541C76 42.4669 75.598 44.4599 74.817 46.3194C74.036 48.1788 72.8913 49.8683 71.4483 51.2913L43.8856 78.4801C43.077 79.2804 42.1159 79.9151 41.0577 80.3476C39.9994 80.7801 38.8649 81.0018 37.7194 81Z" fill="url(#paint0_linear)"/>
<path opacity="0.4" d="M38.2021 81C37.0586 81.0019 35.926 80.7808 34.8696 80.3493C33.8131 79.9178 32.8536 79.2845 32.0463 78.4859L4.54236 51.3592C3.10228 49.9395 1.95993 48.2539 1.18054 46.3987C0.401152 44.5434 0 42.555 0 40.5468C0 38.5387 0.401152 36.5502 1.18054 34.695C1.95993 32.8398 3.10228 31.1541 4.54236 29.7344L32.0463 2.6078C32.85 1.79063 33.8105 1.13926 34.8718 0.691603C35.9332 0.243945 37.0742 0.00893398 38.2285 0.000249807C39.3828 -0.00843436 40.5274 0.209382 41.5955 0.641019C42.6637 1.07266 43.6341 1.7095 44.4503 2.51448C45.2666 3.31946 45.9123 4.2765 46.35 5.32992C46.7877 6.38333 47.0085 7.51207 46.9997 8.65045C46.9909 9.78883 46.7526 10.9141 46.2987 11.9608C45.8448 13.0075 45.1843 13.9547 44.3557 14.7474L18.1975 40.5468L44.3557 66.3463C45.5717 67.547 46.3995 69.0762 46.7347 70.7407C47.0699 72.4052 46.8973 74.1303 46.2388 75.6982C45.5803 77.266 44.4655 78.6062 43.0351 79.5494C41.6046 80.4927 39.9228 80.9967 38.2021 80.9979V81Z" fill="url(#paint1_linear)"/>
<path d="M108.422 20.0001C111.877 19.9907 115.257 21.0062 118.135 22.9181C121.013 24.83 123.26 27.5524 124.591 30.7411C125.921 33.9297 126.277 37.4414 125.611 40.832C124.946 44.2225 123.291 47.3397 120.854 49.7892C118.417 52.2388 115.309 53.9107 111.921 54.5936C108.534 55.2764 105.021 54.9396 101.825 53.6255C98.6298 52.3115 95.8957 50.0793 93.9688 47.2113C92.0419 44.3434 91.0087 40.9684 91 37.5132C90.9991 32.884 92.8314 28.4427 96.0962 25.1608C99.3611 21.8789 103.793 20.0234 108.422 20.0001ZM108.422 29.1297C106.772 29.1291 105.159 29.6177 103.788 30.5338C102.416 31.4499 101.346 32.7523 100.715 34.2763C100.083 35.8003 99.9177 37.4773 100.239 39.0953C100.561 40.7133 101.355 42.1995 102.522 43.366C103.688 44.5325 105.175 45.3268 106.793 45.6485C108.411 45.9702 110.088 45.8048 111.612 45.1732C113.135 44.5416 114.438 43.4722 115.354 42.1003C116.27 40.7284 116.759 39.1156 116.758 37.466C116.761 36.3705 116.547 35.2854 116.129 34.2729C115.711 33.2604 115.097 32.3404 114.322 31.5658C113.547 30.7912 112.628 30.1772 111.615 29.7592C110.602 29.3411 109.517 29.1272 108.422 29.1297Z" fill="#343587"/>
<path d="M135 20H149.721C153.128 20.0067 156.393 21.363 158.802 23.7722C161.212 26.1813 162.568 29.4469 162.575 32.8539C162.575 39.89 156.845 45.6637 149.906 45.6637H144.177V54.935H135V20ZM144.177 37.7461H149.843C150.512 37.7629 151.176 37.6457 151.798 37.4016C152.421 37.1575 152.988 36.7914 153.466 36.3248C153.945 35.8582 154.325 35.3005 154.584 34.6847C154.844 34.0689 154.978 33.4073 154.978 32.739C154.978 32.0707 154.844 31.4091 154.584 30.7933C154.325 30.1774 153.945 29.6198 153.466 29.1532C152.988 28.6866 152.421 28.3204 151.798 28.0763C151.176 27.8322 150.512 27.7151 149.843 27.7319H144.177V37.7461Z" fill="#343587"/>
<path d="M172.016 20H193.738V27.5902H181.208V33.2726H192.296V41.0076H181.193V47.4361H193.722V54.935H172L172.016 20Z" fill="#343587"/>
<path d="M228.664 54.9476L212.177 38.4072V54.9445H203V20H206.727L223.265 36.4869V20.0126H232.441V54.9571L228.664 54.9476Z" fill="#343587"/>
<path d="M242 19H255.591C260.452 19 265.115 20.9314 268.553 24.3692C271.991 27.8071 273.922 32.4698 273.922 37.3317C273.922 42.1935 271.991 46.8563 268.553 50.2941C265.115 53.732 260.452 55.6633 255.591 55.6633H242V19ZM251.583 46.0741H255.641C256.794 46.096 257.941 45.8878 259.013 45.4616C260.085 45.0353 261.061 44.3996 261.885 43.5917C262.708 42.7837 263.362 41.8196 263.809 40.7558C264.256 39.692 264.486 38.5499 264.486 37.3962C264.486 36.2425 264.256 35.1003 263.809 34.0366C263.362 32.9728 262.708 32.0087 261.885 31.2007C261.061 30.3928 260.085 29.7571 259.013 29.3308C257.941 28.9046 256.794 28.6964 255.641 28.7183H251.583V46.0741Z" fill="#343587"/>
<path opacity="0.7" d="M153 107H353V112.037H153V107Z" fill="#343587"/>
<path opacity="0.7" d="M265.396 83.4683C265.369 84.3988 264.98 85.282 264.312 85.9304C263.644 86.5789 262.75 86.9416 261.819 86.9416C260.888 86.9416 259.993 86.5789 259.325 85.9304C258.657 85.282 258.268 84.3988 258.241 83.4683V67.0003H251V83.5753C251 84.9946 251.28 86.3999 251.823 87.7112C252.366 89.0224 253.162 90.2138 254.165 91.2174C255.169 92.221 256.36 93.0171 257.672 93.5602C258.983 94.1033 260.388 94.3829 261.808 94.3829C263.227 94.3829 264.632 94.1033 265.943 93.5602C267.255 93.0171 268.446 92.221 269.45 91.2174C270.453 90.2138 271.249 89.0224 271.793 87.7112C272.336 86.3999 272.615 84.9946 272.615 83.5753V67.0003H265.374L265.396 83.4683Z" fill="white"/>
<path opacity="0.7" d="M275.272 94.3827H282.463V83.4681H291.262V77.3701H282.463V72.9155H292.433V67.0001H275.272V94.3827Z" fill="white"/>
<path opacity="0.7" d="M308.769 87.1168C305.044 87.1168 302.343 84.4157 302.343 80.6914C302.343 76.9672 305.044 74.266 308.769 74.266C309.617 74.2438 310.461 74.3904 311.252 74.6974C312.044 75.0044 312.766 75.4656 313.377 76.0542L318.414 70.9794C317.151 69.7117 315.648 68.7073 313.993 68.0242C312.339 67.3412 310.565 66.9931 308.775 67.0001C306.519 66.9971 304.298 67.5514 302.308 68.6136C300.318 69.6757 298.621 71.213 297.369 73.0888C296.116 74.9646 295.346 77.1207 295.127 79.3657C294.908 81.6107 295.247 83.875 296.114 85.9574C296.981 88.0398 298.349 89.8759 300.096 91.3024C301.843 92.729 303.916 93.7018 306.129 94.1346C308.343 94.5674 310.629 94.4466 312.785 93.7831C314.941 93.1195 316.9 91.9337 318.487 90.3311L313.377 85.294C312.774 85.8953 312.053 86.3671 311.261 86.6806C310.468 86.994 309.62 87.1424 308.769 87.1168Z" fill="white"/>
<path opacity="0.7" d="M334.785 79.6682V84.5006H340.08C339.429 85.3992 338.558 86.1158 337.55 86.582C336.543 87.0482 335.433 87.2485 334.327 87.1638C333.22 87.0791 332.153 86.7122 331.229 86.0981C330.304 85.484 329.553 84.6432 329.045 83.656C328.538 82.6687 328.292 81.568 328.332 80.4588C328.371 79.3495 328.694 78.2689 329.269 77.3199C329.845 76.3709 330.654 75.5853 331.62 75.038C332.585 74.4907 333.675 74.2 334.785 74.1936C336.486 74.1862 338.123 74.8411 339.35 76.0195L344.424 70.9825C342.177 68.7554 339.228 67.3757 336.078 67.0781C332.928 66.7806 329.773 67.5836 327.148 69.3505C324.524 71.1174 322.593 73.7391 321.684 76.7695C320.774 79.7998 320.943 83.0516 322.161 85.9715C323.379 88.8914 325.572 91.299 328.365 92.7847C331.158 94.2704 334.38 94.7424 337.482 94.1204C340.584 93.4983 343.375 91.8207 345.379 89.3729C347.384 86.9251 348.478 83.8583 348.476 80.6945V79.6714L334.785 79.6682Z" fill="white"/>
<path d="M353.571 18L336.511 54.7137H332.104L315 18H324.681L334.311 38.8848L343.991 18.0094L353.571 18Z" fill="#343587"/>
<path d="M283 18H305.78V25.968H292.63V31.9494H304.278V40.037H292.63V46.7835H305.78V54.6539H283V18Z" fill="#343587"/>
<defs>
<linearGradient id="paint0_linear" x1="15.3607" y1="62.5095" x2="59.4652" y2="17.7964" gradientUnits="userSpaceOnUse">
<stop stop-color="#21229D"/>
<stop offset="1" stop-color="#4979B7"/>
</linearGradient>
<linearGradient id="paint1_linear" x1="15.8893" y1="62.5518" x2="59.8928" y2="17.9305" gradientUnits="userSpaceOnUse">
<stop stop-color="#222377"/>
<stop offset="1" stop-color="#4979B7"/>
</linearGradient>
</defs>
</svg>

