<svg id="Camada_1" data-name="Camada 1" xmlns="http://www.w3.org/2000/svg" viewBox="0 0 985.39 625.26"><defs><style>.cls-1{fill:#f2ecd9;}.cls-2{fill:#72b4c1;}.cls-3{fill:#303737;}.cls-4{fill:#fff;}.cls-5{fill:#c75c89;}.cls-6{fill:#818282;}.cls-7{fill:#d27b35;}.cls-8{fill:#74193f;}.cls-9{fill:#e7bb89;}.cls-10{fill:#d68fa7;}</style></defs><title>SVG</title><circle class="cls-1" cx="576.02" cy="285.22" r="40.77"/><circle class="cls-2" cx="576.02" cy="285.22" r="23.85"/><circle class="cls-3" cx="576.02" cy="285.22" r="14.62"/><circle class="cls-4" cx="563.71" cy="274.45" r="6.92"/><path class="cls-5" d="M614.77,272.53c-.24.27-.47.55-.69.85a33.22,33.22,0,0,0-1.82,2.93l-4-3.25a2.37,2.37,0,0,0-3.26,0,2.32,2.32,0,0,0,0,3.26l4.21,3.45a3.48,3.48,0,0,1-1.72.46c-3,0-3,4.64,0,4.62s5.34-1.69,7.16-4.06a26.44,26.44,0,0,0,1.53-2.44A41.58,41.58,0,0,0,614.77,272.53Z"/><path class="cls-5" d="M595.29,316.5c-1.07-2.3-2.16-4.39-4.77-5.08-2.88-.76-4.11,3.69-1.23,4.45,1.66.44,2.81,4.7,3.45,6.09l.17.36a40.31,40.31,0,0,0,4.07-2.13C596.42,319,595.86,317.73,595.29,316.5Z"/><path class="cls-5" d="M563,309.86c-1.18.36-2.34.74-3.48,1.15q-1.47-4.25-2.93-8.47c-.92-2.65-5-1.7-4.56.8a11,11,0,0,1-2.62,0,2.32,2.32,0,0,0-2.3,2.31,2.36,2.36,0,0,0,2.3,2.31,13.55,13.55,0,0,0,4.12-.14l1.71,4.93a58.09,58.09,0,0,0-6.08,3.13,41.29,41.29,0,0,0,3.93,3.05,58.76,58.76,0,0,1,11.13-4.6C567,313.46,565.83,309,563,309.86Z"/><path class="cls-5" d="M557,260a27.12,27.12,0,0,0-13.62,7.35,2.1,2.1,0,0,0-.67,1.39c-1.1-.45-2.18-.93-3.26-1.43a39.65,39.65,0,0,0-1.8,4.24c2,.93,4,1.79,6.12,2.55a2.53,2.53,0,0,0,.25,1.29,15.36,15.36,0,0,1,1.43,4.22,2.31,2.31,0,1,0,4.45-1.23,17.61,17.61,0,0,0-.68-2.49c.72.2,1.43.44,2.16.62,2.88.74,4.11-3.71,1.23-4.45-1.93-.49-3.81-1.09-5.67-1.72a22.79,22.79,0,0,1,11.29-5.89C561.11,263.8,559.88,259.35,557,260Z"/><path class="cls-5" d="M596.71,250.09a17.36,17.36,0,0,1-2.44,3.55c-1.62,1.7-5.56.61-7.8.45-3-.21-3,4.41,0,4.61s7.63,1.53,10.13-.58a14.47,14.47,0,0,0,2.55-3.58c.41-.67.83-1.34,1.25-2A41.3,41.3,0,0,0,596.71,250.09Z"/><path class="cls-6" d="M374.94,492a34,34,0,0,1-24.17-10l-108-108a60.91,60.91,0,0,1,0-86.14l108-108a34.19,34.19,0,0,1,48.35,48.35L296.36,330.81,399.12,433.57A34.2,34.2,0,0,1,374.94,492Z"/><path class="cls-1" d="M374.94,492a34.2,34.2,0,0,1-24.17-58.38L453.53,330.81,350.77,228.05a34.19,34.19,0,0,1,48.35-48.35l108.05,108a60.91,60.91,0,0,1,0,86.14l-108,108.05A34.05,34.05,0,0,1,374.94,492ZM458.81,336.1h0Z"/><path class="cls-1" d="M633.83,244.31h33.29a29,29,0,0,1,.42,58.05H654.59v21H633.83Zm20.76,40.14h12.85a11.33,11.33,0,1,0,0-22.65H654.59Z"/><path class="cls-1" d="M712.63,244.31h49.09v17.17H733.38v12.85h25.08v17.49H733.38v14.54h28.34v17H712.63Z"/><path class="cls-1" d="M839.89,323.32l-37.29-37.4v37.4H781.84v-79h8.43l37.4,37.29V244.31h20.75v79Z"/><path class="cls-1" d="M545.75,334.31h30.74a41.46,41.46,0,1,1,0,82.92H545.75Zm21.67,61.25h9.18a19.62,19.62,0,1,0,0-39.24h-9.18Z"/><path class="cls-1" d="M652.13,334.31h51.52v18H673.91v13.48h26.31v18.36H673.91v15.25h29.74v17.8H652.13Z"/><path class="cls-1" d="M817.55,335.51l-38.59,83H769l-38.69-83h21.89L774,382.72l21.89-47.21Z"/><path class="cls-2" d="M775.12,480.52H838V492H775.12Z"/><path class="cls-2" d="M578.13,467.23a8.1,8.1,0,0,1-16.19,0V430H545.59v37.49a24.45,24.45,0,1,0,48.89,0V430H578.13Z"/><polygon class="cls-2" points="600.46 491.92 616.73 491.92 616.73 467.23 636.63 467.23 636.63 453.44 616.73 453.44 616.73 443.36 639.27 443.36 639.27 429.98 600.46 429.98 600.46 491.92"/><path class="cls-2" d="M676.22,475.48a14.53,14.53,0,1,1,0-29.06,14.49,14.49,0,0,1,10.41,4L698,439a30.61,30.61,0,0,0-21.8-9,31,31,0,1,0,22,52.77l-11.56-11.39A14.22,14.22,0,0,1,676.22,475.48Z"/><path class="cls-2" d="M735.05,458.64v10.9h12a14.67,14.67,0,1,1-1.66-19.16L756.85,439A30.94,30.94,0,1,0,766,461v-2.31Z"/><polygon class="cls-5" points="634.11 171.55 625.98 171.55 625.98 165.46 611.76 179.68 617.86 179.68 617.86 216.26 621.92 220.32 625.98 216.26 632.08 210.16 630.05 208.13 625.98 212.19 625.98 179.68 634.11 171.55"/><polygon class="cls-5" points="766.8 165.46 766.8 165.46 766.8 157.33 758.67 165.46 758.67 173.59 752.58 179.68 758.67 179.68 758.67 216.26 762.74 220.32 766.8 216.26 766.8 179.68 774.93 171.55 766.8 171.55 766.8 165.46"/><rect class="cls-5" x="768.59" y="153.02" width="8.62" height="8.62" transform="translate(115.13 592.6) rotate(-45)"/><polygon class="cls-5" points="676.09 177.65 676.09 171.55 676.09 161.39 669.99 155.3 663.89 161.39 667.96 165.46 667.96 212.19 676.09 220.32 682.18 214.22 676.09 208.13 676.09 177.65"/><polygon class="cls-5" points="676.09 177.65 682.18 183.75 682.18 214.22 690.31 206.1 690.31 179.68 682.18 171.55 676.09 177.65"/><polygon class="cls-5" points="514.84 211.78 510.57 207.51 510.57 201.11 510.57 169.08 510.57 160.54 510.57 158.41 504.16 152 497.76 158.41 502.03 162.68 502.03 173.3 491.41 183.92 491.41 169.08 491.41 158.41 485 152 484.98 152.03 484.95 152 472.14 164.81 474.33 167 480.73 160.59 482.87 162.73 482.87 216.05 487.14 220.32 491.41 216.05 491.41 193.12 502.03 182.5 502.03 201.11 502.03 211.78 510.57 220.32 514.84 216.05 516.97 213.92 521.24 209.65 519.11 207.51 514.84 211.78"/><polygon class="cls-5" points="839.91 212.19 839.91 179.68 848.03 171.55 839.91 171.55 839.91 165.46 825.68 179.68 831.78 179.68 831.78 216.26 835.84 220.32 839.91 216.26 846 210.16 843.97 208.13 839.91 212.19"/><polygon class="cls-5" points="645.62 177.65 637.49 185.78 637.49 212.19 645.62 220.32 651.71 214.22 645.62 208.13 645.62 177.65"/><polygon class="cls-5" points="645.62 177.65 651.71 183.75 651.71 214.22 659.84 206.1 659.84 179.68 651.71 171.55 645.62 177.65"/><polygon class="cls-5" points="720.04 179.63 711.96 171.55 705.87 177.65 711.91 183.7 705.87 189.74 705.87 177.65 697.74 185.78 697.74 212.19 705.87 220.32 709.93 216.26 711.96 214.22 718.06 208.13 716.03 206.1 709.93 212.19 705.87 208.13 705.87 193.81 720.04 179.63"/><polygon class="cls-5" points="534.53 177.65 526.4 185.78 526.4 212.19 534.53 220.32 540.63 214.22 534.53 208.13 534.53 177.65"/><polygon class="cls-5" points="548.75 179.68 540.63 171.55 534.53 177.65 540.63 183.75 540.63 214.22 546.72 220.32 552.82 214.22 548.75 210.16 548.75 179.68"/><polygon class="cls-5" points="570.47 212.19 566.41 208.13 566.41 177.65 558.28 185.78 558.28 212.19 566.41 220.32 570.47 216.26 572.5 214.22 578.6 208.13 576.57 206.1 570.47 212.19"/><rect class="cls-5" x="568.19" y="173.28" width="8.62" height="8.62" transform="translate(42.11 456.84) rotate(-45)"/><rect class="cls-5" x="595.27" y="173.34" width="8.62" height="8.62" transform="translate(50 476) rotate(-45)"/><polygon class="cls-5" points="597.55 193.91 597.55 216.26 601.61 220.32 605.67 216.26 605.67 189.84 599.58 183.75 593.48 189.84 597.55 193.91"/><polygon class="cls-5" points="593.48 171.55 593.48 161.39 587.39 155.3 581.29 161.39 585.36 165.46 585.36 216.26 589.42 220.32 593.48 216.26 593.48 189.84 593.48 177.65 593.48 171.55"/><polygon class="cls-5" points="785.74 177.65 791.79 183.7 785.74 189.74 785.74 177.65 777.61 185.78 777.61 212.19 785.74 220.32 789.8 216.26 791.84 214.22 797.93 208.13 795.9 206.1 789.8 212.19 785.74 208.13 785.74 193.81 799.91 179.63 791.84 171.55 785.74 177.65"/><rect class="cls-5" x="738.12" y="173.34" width="8.62" height="8.62" transform="translate(91.84 577.01) rotate(-45)"/><polygon class="cls-5" points="724.14 177.65 728.21 181.71 728.21 187.81 728.21 193.91 728.21 216.26 732.27 220.32 736.34 216.26 736.34 193.91 736.34 187.81 736.34 177.65 730.24 171.55 724.14 177.65"/><rect class="cls-5" x="807.15" y="209.91" width="8.62" height="8.62" transform="translate(86.19 636.53) rotate(-45)"/><rect class="cls-5" x="813.24" y="173.34" width="8.62" height="8.62" transform="translate(113.84 630.13) rotate(-45)"/><polygon class="cls-5" points="805.36 183.75 805.36 191.87 817.55 204.06 817.55 214.22 823.65 208.13 823.65 197.97 822.63 196.95 817.55 191.87 811.46 185.78 811.46 177.65 805.36 183.75"/><path class="cls-5" d="M417.8,135.37l-60.51,37.22-76-66.71-1.73-19.21-76.64-52-62-8-7.81,64.38,20.42,18.1-10.08-22,10.9-37.27L213,125.58l-3.85,50.83S239.64,197.9,253,234.06l-67.19,35s16.28,26,70.64,3.45c0,0,125.9-59.75,145-81.2S417.8,135.37,417.8,135.37Z"/><path class="cls-7" d="M340.67,158.26s-40.62,29.46-98.57,54l11.34,20.1S287.5,229,357.29,172.59Z"/><polygon class="cls-8" points="342.8 184.44 279.97 116.61 268.33 131.28 264.68 87.22 200.42 43.11 141.6 26.76 202.9 34.64 279.54 86.67 281.27 105.88 357.29 172.59 342.8 184.44"/><polygon class="cls-8" points="158.21 54.82 154.35 49.84 143.45 87.11 153.53 109.15 133.1 91.05 140.72 28.33 158.21 54.82"/><path class="cls-8" d="M403.15,144.38l14.65-9s2.77,34.46-16.36,55.9C392.74,201,362,218.68,331,235.05,399.38,188.63,405,157.65,403.15,144.38Z"/><path class="cls-9" d="M326.51,211.58,293,229a11.7,11.7,0,0,1-15.76-5l-11.55-22.21a11.7,11.7,0,0,1,5-15.76l33.51-17.43a11.69,11.69,0,0,1,15.76,5l11.56,22.21A11.7,11.7,0,0,1,326.51,211.58Zm-51.14-16.47a1.52,1.52,0,0,0-.64,2l11.55,22.21a1.51,1.51,0,0,0,2,.63l33.51-17.43a1.52,1.52,0,0,0,.64-2l-11.56-22.21a1.51,1.51,0,0,0-2-.63Z"/><path class="cls-10" d="M161.54,49.3c7.94,7.84,15.59,15.93,23.39,23.88s15,16.45,22.85,24.34l6,5.89,3,2.9c1.05,1,1.93,1.77,3.21,3.16a39,39,0,0,1,9.6,18.87,35.81,35.81,0,0,1,.68,5.49,23.44,23.44,0,0,1,0,2.78l-.06,2.23a78.51,78.51,0,0,0,.66,8.46,24.65,24.65,0,0,1-.21,8.36,20.66,20.66,0,0,1-1.36,4c-.39.65-.22,1.37-1.8,1.88a8.91,8.91,0,0,1-1.48.36c-.61.1-1.12.21-2,.29l-1.21.12-1.61.07c-1.06.05-2.05.11-3.6.11l-1.41-.17c-1.51-.35-2.46-.63-3.48-.92l-1.55-.45L210,160.6a19,19,0,0,1-1.88-.74,9.37,9.37,0,0,1-1.36-.69c-1.42-.86-1.09-1.52-1.32-2.25a20.49,20.49,0,0,1-.4-4.24,24.63,24.63,0,0,1,1.72-8.18,78.83,78.83,0,0,0,2.58-8.08l.68-3.28a23.8,23.8,0,0,0,.4-2.83A21.62,21.62,0,0,0,208,118.57c-.4-.81-1.33-2.18-2-3.31l-2.27-3.52-4.65-7c-6.26-9.24-13.13-18-19.55-27.06s-12.81-18.22-19-27.51Z"/><circle class="cls-10" cx="216.87" cy="171.61" r="4.12"/></svg>