<svg id="Camada_1" data-name="Camada 1" xmlns="http://www.w3.org/2000/svg" viewBox="0 0 1000 1000"><defs><style>.cls-1{fill:#48a1af;}.cls-2{fill:#337180;}.cls-3{fill:#a56344;}.cls-4{fill:#5ac034;}.cls-5{fill:#f8b159;}.cls-6{fill:#f89928;}.cls-7{fill:#a8d0e1;}.cls-8{fill:#92e170;}.cls-9{fill:#963737;}.cls-10{fill:#dcdbde;}.cls-11{fill:#ededee;}.cls-12{fill:#ff4b4b;}.cls-13{fill:#d24a4a;}.cls-14{fill:#625d6b;}</style></defs><title>LaguinhoAPIFull</title><g id="_Grupo_" data-name="&lt;Grupo&gt;"><path id="_Caminho_" data-name="&lt;Caminho&gt;" class="cls-1" d="M762.72,484.76a65.89,65.89,0,0,1-65.87,65.87c-12.24,0-19.43,13.5-12.87,23.84a65.73,65.73,0,0,1,10.18,35.18,65.88,65.88,0,0,1-65.87,65.87H303.15a65.87,65.87,0,0,1,0-131.73c12.24,0,19.43-13.5,12.87-23.84a65.87,65.87,0,0,1,6.17-78.61c6.47-7.38,4.05-18.77-4.59-23.41A65.86,65.86,0,0,1,348.7,294H673.86a65.86,65.86,0,0,1,49.51,109.28c-6.47,7.38-4,18.78,4.6,23.42a65.84,65.84,0,0,1,34.75,58.05Z"/><path id="_Caminho_2" data-name="&lt;Caminho&gt;" class="cls-2" d="M762.72,484.76a65.89,65.89,0,0,1-65.87,65.87c-12.24,0-19.43,13.5-12.87,23.84a65.73,65.73,0,0,1,10.18,35.18,65.88,65.88,0,0,1-65.87,65.87H373.66C651.39,622.32,705,396.82,705.19,301.93A65.89,65.89,0,0,1,723.37,403.3c-6.47,7.37-4,18.77,4.6,23.41a65.84,65.84,0,0,1,34.75,58.05Z"/><g id="_Grupo_2" data-name="&lt;Grupo&gt;"><g id="_Grupo_3" data-name="&lt;Grupo&gt;"><g id="_Grupo_4" data-name="&lt;Grupo&gt;"><path id="_Caminho_3" data-name="&lt;Caminho&gt;" class="cls-3" d="M391.62,602.21a7.93,7.93,0,0,1-7.93-7.93V451.93a7.93,7.93,0,0,1,15.86,0V594.28A7.93,7.93,0,0,1,391.62,602.21Z"/></g><g id="_Grupo_5" data-name="&lt;Grupo&gt;"><path id="_Caminho_4" data-name="&lt;Caminho&gt;" class="cls-4" d="M438.22,484c-11.81,11.8-27.21,17.19-40.86,15.66a6.24,6.24,0,0,1-5.48-5.48c-1.54-13.65,3.85-29.06,15.65-40.87s27.22-17.19,40.87-15.65a6.25,6.25,0,0,1,5.48,5.48C455.41,456.76,450,472.17,438.22,484Z"/></g><path id="_Caminho_5" data-name="&lt;Caminho&gt;" class="cls-5" d="M391.62,475.72h0a23.79,23.79,0,0,1-23.79-23.79V375.59a23.79,23.79,0,0,1,23.79-23.79h0a23.79,23.79,0,0,1,23.79,23.79v76.34A23.79,23.79,0,0,1,391.62,475.72Z"/><path id="_Caminho_6" data-name="&lt;Caminho&gt;" class="cls-6" d="M415.4,375.59v76.34a23.8,23.8,0,0,1-32.76,22,23.77,23.77,0,0,0,14.81-22V375.59a23.84,23.84,0,0,0-14.81-22,23.8,23.8,0,0,1,32.76,22Z"/><g id="_Grupo_6" data-name="&lt;Grupo&gt;"><path id="_Caminho_7" data-name="&lt;Caminho&gt;" class="cls-4" d="M391.62,359.73a7.93,7.93,0,0,1-7.93-7.93V338.85a7.93,7.93,0,0,1,15.86,0V351.8A7.93,7.93,0,0,1,391.62,359.73Z"/></g></g><g id="_Grupo_7" data-name="&lt;Grupo&gt;"><g id="_Grupo_8" data-name="&lt;Grupo&gt;"><path id="_Caminho_8" data-name="&lt;Caminho&gt;" class="cls-7" d="M391.87,603a33.23,33.23,0,0,1-28.57-16.07,17.58,17.58,0,0,0-30.05,0,7.93,7.93,0,1,1-13.54-8.24,33.43,33.43,0,0,1,57.14,0,17.58,17.58,0,0,0,30,0,33.43,33.43,0,0,1,57.14,0,7.93,7.93,0,0,1-13.55,8.24,17.58,17.58,0,0,0-30.05,0A33.21,33.21,0,0,1,391.87,603Z"/></g></g></g><g id="_Grupo_9" data-name="&lt;Grupo&gt;"><path id="_Caminho_9" data-name="&lt;Caminho&gt;" class="cls-2" d="M581.34,643.83c-22.38,0-43.72-4.55-60.1-12.83-19.36-9.78-30-23.81-30-39.5s10.66-29.72,30-39.5c16.38-8.27,37.72-12.83,60.1-12.83,23.66,0,46.65,5.21,63.06,14.29A16.92,16.92,0,0,1,642,584.17l-10.18,3.69,17.45,3.59a16.91,16.91,0,0,1,7.94,29.12C641,635.14,612.66,643.83,581.34,643.83Z"/><path id="_Caminho_10" data-name="&lt;Caminho&gt;" class="cls-8" d="M592.34,593.77l54.12,11.14a3.17,3.17,0,0,1,1.51,5.45c-13.38,12.06-38.82,19.73-66.63,19.73-41.9,0-76.38-17.42-76.38-38.59s34.48-38.59,76.38-38.59c21.58,0,42,4.62,56.41,12.57a3.18,3.18,0,0,1-.46,5.77L591.9,587.68A3.17,3.17,0,0,0,592.34,593.77Z"/></g><path class="cls-7" d="M633,457.73c0,9.41-39.08,17-87.28,17s-87.29-7.63-87.29-17,39.08-17,87.29-17S633,448.32,633,457.73Z"/><path class="cls-9" d="M596,405.83,550.59,308.5v-.22a4.92,4.92,0,1,0-9.83,0V403H486.68a4.91,4.91,0,0,0-4.09,7.64L495.7,430.3a4.91,4.91,0,1,0,8.18-5.45l-8-12h44.89v44.9a4.92,4.92,0,1,0,9.83,0v-44.9h41a4.91,4.91,0,0,0,4.45-7ZM550.59,403V331.75L583.84,403Z"/><path class="cls-10" d="M637.44,282.5V394a5.83,5.83,0,0,1-9.06,4.85L576.2,364a98,98,0,0,1-43.63-81.53h0c0-1.1,0-2.19.11-3.28l-.11-44.9a81.87,81.87,0,0,1,12-42.71V165.39h32.78v26.22a81.81,81.81,0,0,0-12,42.27A52.39,52.39,0,0,1,585,230.06h0A52.44,52.44,0,0,1,637.44,282.5Z"/><path class="cls-11" d="M637.44,282.5v94l-43.76-29.18a98,98,0,0,1-43.63-81.52h0a52.23,52.23,0,0,1,6.37-25.07,12.85,12.85,0,0,1,5.66-5.4A52.23,52.23,0,0,1,585,230.06h0A52.43,52.43,0,0,1,637.44,282.5Zm-45.88-114h0a29.33,29.33,0,0,0-29.33-29.33H548.79a29.33,29.33,0,0,0-29.33,29.33v29.33h42.77A29.33,29.33,0,0,0,591.56,168.5Z"/><path class="cls-12" d="M380.75,181.15l134.66-14.28a15.53,15.53,0,0,1,17.16,15.44v9a6.56,6.56,0,0,1-6.56,6.56H372a3.27,3.27,0,0,1-3.27-3.28h0A13.48,13.48,0,0,1,380.75,181.15Z"/><path class="cls-13" d="M532.34,179.64a15.69,15.69,0,0,1,.23,2.67v9a6.56,6.56,0,0,1-6.56,6.56H372a3.27,3.27,0,0,1-3.27-3.28,13.44,13.44,0,0,1,4.51-10.05H526A6.56,6.56,0,0,0,532.34,179.64Z"/><path class="cls-14" d="M548,155.93a44.13,44.13,0,0,0,3.4-3.5,33.4,33.4,0,0,0,3.15,3.5c3.12,3,4.72,3.38,4.92,4.92.3,2.34-2.9,5.36-4.92,4.92-1.77-.39-2-3.31-3.4-3.28s-1.48,2.87-3.15,3.28c-2,.47-5.21-2.54-4.92-4.92C543.21,159.37,544.67,159,548,155.93Z"/><path class="cls-2" d="M568.62,462.65H522.73c-2.91-1.07-4.91-3-4.91-4.92a4.91,4.91,0,0,1,4.91-4.92h45.89a4.92,4.92,0,0,1,0,9.84Z"/></g><path class="cls-1" d="M142.55,740.88V794.7H174.8a8.39,8.39,0,0,1,8.35,8.35v2.44a8.39,8.39,0,0,1-8.35,8.35H131.18a8.31,8.31,0,0,1-8.35-8.35V740.88a8.32,8.32,0,0,1,8.35-8.36h3A8.32,8.32,0,0,1,142.55,740.88Z"/><path class="cls-1" d="M267.83,801.66a8.46,8.46,0,0,1,.93,3.83,8.32,8.32,0,0,1-8.36,8.35h-3.24a8.13,8.13,0,0,1-7.54-4.87L243,794.58H215.05L208.44,809a8.32,8.32,0,0,1-7.54,4.87h-3.25a8.52,8.52,0,0,1-7.08-3.83,8.22,8.22,0,0,1-.46-8l29.46-64.61a8.42,8.42,0,0,1,7.66-4.88h3.59a8.12,8.12,0,0,1,7.54,4.88ZM234.3,775.44,229,763.84l-5.22,11.6Z"/><path class="cls-1" d="M271.66,777.07V766.51c0-10.55,3.59-19.25,10.9-26,7-6.61,16.13-9.86,27-9.86,10.09,0,18.44,2.2,24.82,6.84s6.73,9.4,5.69,12.53a8.89,8.89,0,0,1-8.59,6.15,15.24,15.24,0,0,1-8.81-3.37c-2.67-2.08-7.19-3.13-13.11-3.13s-10.21,1.63-13.57,4.76-4.64,6.84-4.64,11.94v10.68c0,5.45,1.51,9.39,4.87,12.76s8.12,4.87,14.27,4.87a45.9,45.9,0,0,0,12.76-1.63c1.16-.46,2.2-.81,2.9-1.16V777.65a8.58,8.58,0,0,1,3-6.38l2.9-2.44a8.42,8.42,0,0,1,13.81,6.38V797.6a8.73,8.73,0,0,1-2.09,5.57c-2.67,3-6.85,5.45-13.11,7.65a61.17,61.17,0,0,1-20.18,3c-11.25,0-20.53-3.37-27.73-10.21C275.37,796.79,271.66,787.85,271.66,777.07Z"/><path class="cls-1" d="M353,784.49V740.76a8.32,8.32,0,0,1,8.36-8.35h2.9a8.41,8.41,0,0,1,8.46,8.35v43.73c0,3.48.93,5.8,3.37,7.66,3,2.2,7.07,3.36,12.29,3.36s9.28-1.16,12.3-3.36c2.43-1.86,3.48-4.18,3.48-7.66V740.76a8.31,8.31,0,0,1,8.35-8.35h2.9a8.31,8.31,0,0,1,8.35,8.35v43.73c0,9.74-3.71,17.63-10.79,22.85-6.49,4.87-14.73,7.31-24.59,7.31s-18.09-2.44-24.59-7.31C356.69,802,353,794.12,353,784.49Z"/><path class="cls-1" d="M432.32,805.49V740.88a8.32,8.32,0,0,1,8.35-8.36h2.9a8.42,8.42,0,0,1,8.47,8.36v64.61a8.42,8.42,0,0,1-8.47,8.35h-2.9A8.31,8.31,0,0,1,432.32,805.49Z"/><path class="cls-1" d="M478.48,735.42l36.31,43V740.88a8.32,8.32,0,0,1,8.35-8.36H526a8.32,8.32,0,0,1,8.35,8.36v64.61a8.31,8.31,0,0,1-8.35,8.35h-2.9a8.22,8.22,0,0,1-6.38-3l-36.3-43v37.7a8.32,8.32,0,0,1-8.36,8.35h-3a8.31,8.31,0,0,1-8.35-8.35V740.88a8.32,8.32,0,0,1,8.35-8.36h3A8.47,8.47,0,0,1,478.48,735.42Z"/><path class="cls-1" d="M538.11,805.49V740.88a8.32,8.32,0,0,1,8.35-8.36h2.9a8.42,8.42,0,0,1,8.47,8.36v23h33.75v-23a8.32,8.32,0,0,1,8.35-8.36h2.9a8.33,8.33,0,0,1,8.36,8.36v64.61a8.32,8.32,0,0,1-8.36,8.35h-2.9a8.31,8.31,0,0,1-8.35-8.35V783H557.83v22.51a8.42,8.42,0,0,1-8.47,8.35h-2.9A8.31,8.31,0,0,1,538.11,805.49Z"/><path class="cls-1" d="M656.89,731.6c11.48,0,20.76,3.36,27.6,10,7.08,6.73,10.56,15.78,10.56,26.8V778c0,11-3.48,20.06-10.44,26.79s-16.12,10-27.61,10-20.88-3.37-27.72-10S618.72,789,618.72,778v-9.63c0-11,3.48-20.07,10.44-26.8S645.29,731.6,656.89,731.6Zm18.56,36.65c0-5.68-1.51-10-4.53-13s-7.65-4.64-14-4.64S646,752.13,643,755.26s-4.53,7.31-4.53,13V778c0,5.68,1.51,10,4.53,13.1s7.65,4.53,14,4.53,10.91-1.51,13.92-4.53,4.53-7.31,4.53-13.1Z"/><path class="cls-2" d="M777.29,801.66a8.46,8.46,0,0,1,.93,3.83,8.31,8.31,0,0,1-8.35,8.35h-3.25a8.14,8.14,0,0,1-7.54-4.87l-6.61-14.39h-28L717.9,809a8.31,8.31,0,0,1-7.54,4.87h-3.25A8.49,8.49,0,0,1,700,810a8.22,8.22,0,0,1-.47-8L729,737.4a8.41,8.41,0,0,1,7.65-4.88h3.6a8.13,8.13,0,0,1,7.54,4.88Zm-33.52-26.22-5.34-11.6-5.22,11.6Z"/><path class="cls-2" d="M817.43,732.52c10.09,0,18.09,2.21,24,6.73a24.14,24.14,0,0,1,9.86,20.07,24.46,24.46,0,0,1-9.86,20.07c-5.92,4.4-13.92,6.72-24,6.72H804.09v19.38a8.42,8.42,0,0,1-8.47,8.35h-2.9a8.31,8.31,0,0,1-8.35-8.35V740.88a8.32,8.32,0,0,1,8.35-8.36ZM804.09,767h13.34c5.45,0,9.51-.92,11.71-2.78a6,6,0,0,0,0-9.86c-1.5-1.27-4.75-2.78-11.71-2.78H804.09Z"/><path class="cls-2" d="M857.45,805.49V740.88a8.32,8.32,0,0,1,8.35-8.36h2.9a8.42,8.42,0,0,1,8.47,8.36v64.61a8.42,8.42,0,0,1-8.47,8.35h-2.9A8.31,8.31,0,0,1,857.45,805.49Z"/></svg>