<svg width="128" height="128" viewBox="0 0 128 128" fill="none" xmlns="http://www.w3.org/2000/svg">
<path fill-rule="evenodd" clip-rule="evenodd" d="M10.0587 79.0667L23.5733 101.68L20.0053 102.507C16.432 103.328 13.8613 105.328 12.7733 108.117C11.9147 110.336 12.112 112.784 13.3013 114.512C14.5813 116.389 16.7147 117.461 19.152 117.461C23.4613 117.461 27.6853 114.075 28.9387 109.867C29.4827 108.059 29.728 105.253 27.84 102.181L12.8907 77.3493L10.0587 79.0667ZM19.152 122.795C14.928 122.795 11.1893 120.88 8.90667 117.547C6.736 114.368 6.31467 110.027 7.808 106.192C9.14133 102.763 11.8347 100.059 15.4187 98.4427L2.75733 77.2587L14.6987 70.0107L32.3893 99.408C34.6613 103.088 35.2533 107.36 34.048 111.397C32.576 116.336 27.1787 122.795 19.152 122.795ZM96.128 127.995C97.5947 127.941 98.7467 126.715 98.6987 125.232C98.3947 116.544 100.613 114.891 106.037 114.288C114.048 113.381 115.157 108.507 115.957 104.944C116.816 101.173 117.381 98.672 125.451 98.2453C126.917 98.1707 128.048 96.9227 127.963 95.44C127.899 93.9733 126.667 92.8267 125.168 92.9227C113.995 93.504 111.979 98.3893 110.763 103.765C110.021 107.013 109.691 108.507 105.445 108.981C94.3787 110.224 93.0987 117.621 93.3653 125.419C93.4187 126.859 94.6027 127.995 96.032 127.995H96.128ZM110.341 69.1573L114.667 71.2267L114.037 66.464L117.344 62.9813L112.619 62.1067L110.341 57.8827L108.053 62.1067L103.333 62.9813L106.64 66.464L106.005 71.2267L110.341 69.1573ZM121.253 80.288L110.341 75.072L99.424 80.288L101.019 68.288L92.6773 59.52L104.576 57.3227L110.341 46.6773L116.101 57.3227L127.995 59.52L119.664 68.288L121.253 80.288ZM69.936 5.33333C68.384 5.33333 66.88 5.664 65.4613 6.32C60.0853 8.79467 57.7227 15.1893 60.192 20.5707C62.5867 25.7813 69.1787 28.256 74.4373 25.8453C77.0453 24.64 79.024 22.5013 80.016 19.808C81.0133 17.1147 80.896 14.1973 79.7013 11.5893C77.952 7.792 74.1227 5.33333 69.936 5.33333ZM69.9573 32.1653C63.7013 32.1653 57.9627 28.4907 55.3493 22.8053C51.6533 14.7467 55.184 5.17867 63.232 1.472C65.3547 0.496 67.6107 0 69.936 0C76.1973 0 81.936 3.67467 84.544 9.36C86.336 13.2587 86.5013 17.6267 85.0187 21.6533C83.5307 25.6907 80.5653 28.896 76.6667 30.688C74.544 31.6693 72.288 32.1653 69.9573 32.1653ZM30.576 18.64C35.4347 26.48 49.632 47.2533 49.632 47.2533L45.4453 65.3813C44.1813 70.1067 44.752 73.1307 45.696 76.896L56.768 122.715L58.8267 81.9413L82.048 92.5227C82.048 92.5227 78.8373 108.96 77.76 114.576C77.76 114.576 85.3813 96.5227 87.2107 92.0267C87.9467 90.2027 87.6053 89.1093 85.6053 86.9013C81.8507 82.7253 72.0107 72.4693 72.0107 72.4693L76.2293 54.0747C76.2293 54.0747 98.6133 38.4053 105.397 33.2107C105.739 32.9547 105.733 32.7573 105.68 32.6027L105.2 32.2507C100.464 34.032 92.1707 37.6267 85.84 40.368L79.6267 43.056C77.6747 43.888 75.4933 44.064 73.44 43.536L55.7067 39.0773C53.744 38.5867 51.9093 37.6213 50.3947 36.272L30.576 18.64ZM56.8213 127.931C54.6827 127.92 52.0693 126.608 51.1733 122.933C48.5173 112.085 40.512 78.16 40.512 78.16C39.4613 73.9413 38.7093 69.9467 40.272 64.0907L43.9093 48.3307C41.1307 44.2613 30.352 28.4533 26.1013 21.9947C24.912 20.1813 24.7733 18.0373 25.7333 16.2507C27.3173 13.312 31.6053 12.416 34.112 14.6507L53.936 32.2827C54.8107 33.056 55.872 33.6213 57.0027 33.904L74.7413 38.3627C75.664 38.6027 76.6507 38.5227 77.5307 38.144L83.728 35.472C90.1067 32.7093 98.4747 29.0827 102.784 27.3867C106.069 26.0853 109.669 27.7493 110.736 30.8907C111.541 33.2853 110.72 35.8613 108.635 37.456C102.453 42.1813 85.0613 54.4 80.9707 57.2747L77.856 70.8533C80.288 73.3973 86.5493 79.9733 89.5573 83.3173C91.9307 85.9307 94.0907 89.2533 92.1493 94.048C90.32 98.5547 87.04 106.304 84.5973 112.096L82.6453 116.715C81.1307 120.315 75.9093 121.179 73.5893 118.368C72.5493 117.109 72.1707 115.397 72.5227 113.579C73.3493 109.264 75.1893 99.8293 76.0053 95.6373L63.824 90.0853C63.4667 98.3893 62.6507 117.307 62.3627 122.485C62.1867 125.637 59.856 127.931 56.8213 127.931ZM15.648 31.9947L0 47.6587L15.648 63.3227L31.3013 47.6587L15.648 31.9947ZM15.648 39.5413L23.76 47.6587L15.648 55.776L7.54133 47.6587L15.648 39.5413Z" fill="#F0F0F0"/>
</svg>
