<svg width="216" height="216" viewBox="0 0 216 216" fill="none" xmlns="http://www.w3.org/2000/svg">
<path d="M0 0V216H216.288V0H0ZM130.981 176.31C127.322 177.012 126.168 174.771 126.168 172.854V153.099C126.168 146.376 123.807 142.002 121.212 139.77C137.271 137.988 154.141 131.895 154.141 104.247C154.141 96.381 151.339 89.955 146.715 84.924C147.463 83.106 149.933 75.78 146.004 65.871C146.004 65.871 139.956 63.936 126.195 73.251C120.436 71.631 114.272 70.848 108.144 70.812C102.016 70.839 95.8517 71.631 90.093 73.233C76.3227 63.918 70.2666 65.853 70.2666 65.853C66.3554 75.771 68.8247 83.088 69.5727 84.915C64.9585 89.955 62.1468 96.372 62.1468 104.238C62.1468 131.814 78.9722 137.997 94.9956 139.824C92.9318 141.624 91.0663 144.792 90.4175 149.454C86.299 151.29 75.8721 154.467 69.4375 143.46C69.4375 143.46 65.6254 136.548 58.3798 136.035C58.3798 136.035 51.3504 135.945 57.8841 140.418C57.8841 140.418 62.6154 142.632 65.8958 150.948C65.8958 150.948 70.0684 163.8 90.1201 159.444V172.845C90.1201 174.744 88.9575 176.976 85.3617 176.31C56.7036 166.797 36.048 139.806 36.048 108C36.048 68.229 68.329 36 108.144 36C147.959 36 180.24 68.229 180.24 108C180.24 139.797 159.612 166.779 130.981 176.31V176.31Z" fill="#393A6E"/>
</svg>
