<svg width="720" height="378" viewBox="0 0 720 378" fill="none" xmlns="http://www.w3.org/2000/svg">
<path d="M368.5 229C363.702 228.998 359.013 227.574 355.024 224.908C351.036 222.241 347.927 218.452 346.09 214.02C344.254 209.587 343.772 204.709 344.707 200.003C345.641 195.296 347.949 190.973 351.339 187.578L424.263 114.632L351.339 41.6931C346.902 37.1186 344.443 30.9824 344.492 24.6096C344.54 18.2368 347.093 12.1389 351.599 7.6325C356.105 3.12615 362.202 0.573004 368.574 0.524389C374.946 0.475774 381.081 2.93558 385.655 7.37267L462.337 84.0639C466.351 88.0778 469.536 92.8433 471.709 98.0883C473.882 103.333 475 108.955 475 114.632C475 120.31 473.882 125.931 471.709 131.176C469.536 136.421 466.351 141.187 462.337 145.201L385.655 221.892C383.406 224.15 380.732 225.94 377.787 227.16C374.843 228.38 371.687 229.005 368.5 229Z" fill="url(#paint0_linear_509_359)"/>
<path opacity="0.4" d="M368.5 229C365.312 229.005 362.155 228.38 359.209 227.16C356.264 225.94 353.589 224.15 351.339 221.892L274.663 145.201C270.649 141.187 267.464 136.421 265.291 131.176C263.118 125.931 262 120.31 262 114.632C262 108.955 263.118 103.333 265.291 98.0882C267.464 92.8432 270.649 88.0777 274.663 84.0639L351.339 7.37265C353.579 5.06239 356.257 3.22088 359.216 1.95527C362.175 0.689671 365.356 0.0252578 368.574 0.000706245C371.792 -0.0238453 374.982 0.591955 377.96 1.81226C380.938 3.03257 383.643 4.83303 385.919 7.10884C388.194 9.38465 389.995 12.0904 391.215 15.0685C392.435 18.0467 393.051 21.2378 393.026 24.4562C393.001 27.6746 392.337 30.856 391.072 33.8152C389.806 36.7744 387.965 39.4523 385.655 41.6931L312.731 114.632L385.655 187.572C389.045 190.966 391.353 195.289 392.287 199.995C393.222 204.701 392.74 209.578 390.905 214.011C389.069 218.443 385.961 222.232 381.973 224.899C377.986 227.566 373.297 228.991 368.5 228.994V229Z" fill="url(#paint1_linear_509_359)"/>
<path d="M37.3047 272.283C44.7027 272.263 51.9401 274.438 58.1026 278.533C64.2651 282.627 69.0765 288.457 71.9265 295.286C74.7743 302.115 75.5366 309.636 74.1105 316.897C72.6866 324.158 69.1429 330.834 63.9247 336.079C58.7064 341.326 52.0515 344.906 44.7969 346.369C37.5445 347.831 30.0224 347.11 23.1789 344.295C16.3372 341.481 10.4829 336.701 6.35693 330.559C2.23097 324.417 0.0186295 317.189 7.09595e-07 309.789C-0.00192641 299.875 3.92147 290.364 10.9122 283.335C17.9031 276.307 27.3929 272.333 37.3047 272.283ZM37.3047 291.835C33.7717 291.834 30.3179 292.88 27.3822 294.842C24.4444 296.804 22.1533 299.593 20.8022 302.857C19.4489 306.121 19.095 309.712 19.7829 313.177C20.4724 316.643 22.1726 319.825 24.6714 322.324C27.1681 324.822 30.3521 326.523 33.8166 327.212C37.2812 327.901 40.872 327.547 44.1353 326.194C47.3964 324.841 50.1864 322.551 52.1478 319.613C54.1092 316.675 55.1563 313.221 55.1541 309.688C55.1606 307.342 54.7023 305.018 53.8073 302.85C52.9122 300.682 51.5975 298.711 49.9381 297.052C48.2786 295.393 46.3108 294.079 44.1417 293.183C41.9726 292.288 39.6494 291.83 37.3047 291.835Z" fill="#343587"/>
<path d="M94.2147 272.283H125.736C133.031 272.297 140.022 275.202 145.181 280.362C150.341 285.521 153.244 292.515 153.259 299.811C153.259 314.879 140.99 327.244 126.132 327.244H113.865V347.1H94.2147V272.283ZM113.865 310.288H125.997C127.43 310.324 128.851 310.073 130.183 309.55C131.517 309.028 132.731 308.243 133.755 307.244C134.781 306.245 135.594 305.051 136.149 303.732C136.706 302.413 136.992 300.996 136.992 299.565C136.992 298.134 136.706 296.717 136.149 295.398C135.594 294.079 134.781 292.885 133.755 291.886C132.731 290.886 131.517 290.102 130.183 289.579C128.851 289.057 127.43 288.806 125.997 288.842H113.865V310.288Z" fill="#343587"/>
<path d="M173.475 272.283H219.987V288.538H193.157V300.708H216.899V317.273H193.125V331.04H219.953V347.1H173.441L173.475 272.283Z" fill="#343587"/>
<path d="M294.772 347.127L259.469 311.704V347.12H239.819V272.283H247.8L283.212 307.591V272.31H302.86V347.147L294.772 347.127Z" fill="#343587"/>
<path d="M323.328 270.142H352.429C362.838 270.142 372.823 274.278 380.184 281.64C387.546 289.003 391.68 298.988 391.68 309.401C391.68 319.813 387.546 329.798 380.184 337.161C372.823 344.523 362.838 348.659 352.429 348.659H323.328V270.142ZM343.847 328.123H352.536C355.005 328.17 357.461 327.724 359.757 326.812C362.052 325.899 364.142 324.537 365.906 322.807C367.669 321.077 369.069 319.012 370.026 316.734C370.983 314.455 371.476 312.009 371.476 309.539C371.476 307.068 370.983 304.622 370.026 302.344C369.069 300.066 367.669 298.001 365.906 296.27C364.142 294.54 362.052 293.179 359.757 292.266C357.461 291.353 355.005 290.907 352.536 290.954H343.847V328.123Z" fill="#343587"/>
<path opacity="0.7" d="M594.313 331.658C594.273 333.051 593.697 334.373 592.708 335.344C591.719 336.315 590.395 336.858 589.017 336.858C587.639 336.858 586.314 336.315 585.325 335.344C584.336 334.373 583.76 333.051 583.72 331.658V307H573V331.818C573 333.943 573.415 336.047 574.218 338.01C575.022 339.974 576.201 341.758 577.686 343.26C579.172 344.763 580.935 345.955 582.878 346.768C584.818 347.581 586.899 348 589.001 348C591.102 348 593.182 347.581 595.122 346.768C597.065 345.955 598.828 344.763 600.314 343.26C601.799 341.758 602.978 339.974 603.783 338.01C604.587 336.047 605 333.943 605 331.818V307H594.28L594.313 331.658Z" fill="#7E7FC1"/>
<path opacity="0.7" d="M609 348H619.895V331.658H633.226V322.527H619.895V315.857H635V307H609V348Z" fill="#7E7FC1"/>
<path opacity="0.7" d="M659.48 337.114C653.914 337.114 649.878 333.07 649.878 327.495C649.878 321.92 653.914 317.877 659.48 317.877C660.747 317.844 662.008 318.063 663.19 318.523C664.373 318.982 665.452 319.673 666.365 320.554L673.891 312.957C672.004 311.059 669.758 309.556 667.285 308.533C664.814 307.511 662.163 306.99 659.489 307C656.118 306.996 652.8 307.825 649.826 309.415C646.853 311.005 644.317 313.307 642.447 316.115C640.574 318.923 639.424 322.15 639.097 325.511C638.769 328.871 639.276 332.261 640.571 335.378C641.867 338.496 643.911 341.244 646.521 343.379C649.131 345.515 652.229 346.971 655.535 347.619C658.843 348.267 662.259 348.086 665.48 347.093C668.702 346.1 671.629 344.325 674 341.925L666.365 334.385C665.464 335.285 664.387 335.992 663.203 336.461C662.018 336.93 660.751 337.152 659.48 337.114Z" fill="#7E7FC1"/>
<path opacity="0.7" d="M698.491 325.951V333.19H706.423C705.448 334.536 704.143 335.609 702.633 336.307C701.124 337.006 699.462 337.306 697.805 337.179C696.147 337.052 694.548 336.502 693.164 335.583C691.778 334.663 690.653 333.403 689.892 331.924C689.133 330.445 688.764 328.797 688.824 327.135C688.883 325.473 689.367 323.855 690.228 322.433C691.091 321.011 692.303 319.835 693.75 319.015C695.195 318.195 696.828 317.759 698.491 317.75C701.039 317.739 703.491 318.72 705.329 320.485L712.93 312.94C709.564 309.603 705.147 307.537 700.428 307.091C695.709 306.645 690.983 307.848 687.051 310.495C683.12 313.142 680.227 317.069 678.866 321.608C677.502 326.148 677.756 331.019 679.58 335.393C681.405 339.767 684.69 343.373 688.874 345.599C693.058 347.825 697.884 348.532 702.531 347.6C707.178 346.668 711.359 344.155 714.361 340.488C717.364 336.821 719.003 332.227 719 327.488V325.955L698.491 325.951Z" fill="#7E7FC1"/>
<path d="M562.228 268L525.699 346.626H516.262L479.638 268H500.368L520.988 312.727L541.715 268.02L562.228 268Z" fill="#343587"/>
<path d="M411.119 268H459.896V285.064H431.739V297.874H456.68V315.194H431.739V329.643H459.896V346.498H411.119V268Z" fill="#343587"/>
<path opacity="0.7" d="M291 367H719.249V377.787H291V367Z" fill="#343587"/>
<defs>
<linearGradient id="paint0_linear_509_359" x1="306.296" y1="176.844" x2="430.713" y2="52.4365" gradientUnits="userSpaceOnUse">
<stop stop-color="#343587"/>
<stop offset="1" stop-color="#4979B7"/>
</linearGradient>
<linearGradient id="paint1_linear_509_359" x1="306.296" y1="176.844" x2="430.713" y2="52.4364" gradientUnits="userSpaceOnUse">
<stop stop-color="#343587"/>
<stop offset="1" stop-color="#4979B7"/>
</linearGradient>
</defs>
</svg>
