<svg width="72" height="40" viewBox="0 0 72 40" fill="none" xmlns="http://www.w3.org/2000/svg">
<path fill-rule="evenodd" clip-rule="evenodd" d="M32.9042 30.7828C34.8568 32.7355 38.0226 32.7355 39.9752 30.7828L67.7229 3.03514C68.3087 2.44936 69.2585 2.44936 69.8442 3.03514C70.43 3.62093 70.43 4.57068 69.8442 5.15647L37.4407 37.56C36.8549 38.1458 35.9052 38.1458 35.3194 37.56L34.2886 36.5291C34.2721 36.5127 34.2721 36.486 34.2886 36.4695C34.305 36.453 34.305 36.4263 34.2886 36.4099L2.06068 4.182C1.47489 3.59621 1.47489 2.64646 2.06068 2.06068C2.64646 1.47489 3.59621 1.47489 4.182 2.06068L32.9042 30.7828Z" fill="#343587"/>
<path d="M4.182 2.06068L3.12134 3.12134L4.182 2.06068ZM34.2886 36.4099L35.3492 35.3492L34.2886 36.4099ZM34.2886 36.5291L33.2279 37.5898L34.2886 36.5291ZM37.4407 37.56L38.5014 38.6206L37.4407 37.56ZM35.3194 37.56L34.2588 38.6206L35.3194 37.56ZM69.8442 5.15647L68.7836 4.09581L69.8442 5.15647ZM67.7229 3.03514L68.7836 4.0958L67.7229 3.03514ZM39.9752 30.7828L38.9146 29.7222L39.9752 30.7828ZM41.0359 31.8435L68.7836 4.0958L66.6623 1.97448L38.9146 29.7222L41.0359 31.8435ZM68.7836 4.09581L36.3801 36.4993L38.5014 38.6206L70.9049 6.21713L68.7836 4.09581ZM36.3801 36.4993L35.3492 35.4685L33.2279 37.5898L34.2588 38.6206L36.3801 36.4993ZM35.3492 35.3492L3.12134 3.12134L1.00002 5.24266L33.2279 37.4705L35.3492 35.3492ZM3.12134 3.12134L31.8435 31.8435L33.9648 29.7222L5.24266 1.00002L3.12134 3.12134ZM3.12134 3.12134H3.12134L5.24266 1.00002C4.07108 -0.171555 2.17159 -0.171555 1.00002 1.00002L3.12134 3.12134ZM3.12134 3.12134L3.12134 3.12134L1.00002 1.00002C-0.171557 2.17159 -0.171554 4.07109 1.00002 5.24266L3.12134 3.12134ZM35.3492 37.5302C35.9515 36.9279 35.9515 35.9515 35.3492 35.3492L33.2279 37.4705C32.6586 36.9012 32.6586 35.9782 33.2279 35.4088L35.3492 37.5302ZM35.3492 35.4685C35.9185 36.0378 35.9186 36.9608 35.3492 37.5302L33.2279 35.4088C32.6257 36.0111 32.6257 36.9875 33.2279 37.5898L35.3492 35.4685ZM36.3801 36.4993L34.2588 38.6206C35.4303 39.7922 37.3298 39.7922 38.5014 38.6206L36.3801 36.4993ZM68.7836 4.09581V4.09581L70.9049 6.21713C72.0765 5.04555 72.0765 3.14606 70.9049 1.97448L68.7836 4.09581ZM68.7836 4.0958V4.09581L70.9049 1.97448C69.7333 0.802914 67.8338 0.802909 66.6623 1.97448L68.7836 4.0958ZM38.9146 29.7222C37.5477 31.089 35.3317 31.089 33.9648 29.7222L31.8435 31.8435C34.3819 34.3819 38.4975 34.3819 41.0359 31.8435L38.9146 29.7222Z" fill="#343587"/>
</svg>
