<svg id="Camada_1" data-name="Camada 1" xmlns="http://www.w3.org/2000/svg" viewBox="0 -50 827.48 500.94"><defs><style>.cls-1{fill:#1e1b16;}</style></defs><title>IssueAiSVG</title><path class="cls-1" d="M66.86,220.7,45.37,396.13h-40L26.84,220.7Z"/><path class="cls-1" d="M90.83,392.79q-13.1-5.57-20.76-15.19l20.76-21.5a42.81,42.81,0,0,0,13,10.38,31.16,31.16,0,0,0,14.45,3.95,16.37,16.37,0,0,0,8-1.73,5.4,5.4,0,0,0,3.09-4.94q0-2.72-2.84-4.82a59.33,59.33,0,0,0-8.28-4.82c-3.62-1.81-6.17-3.12-7.66-3.95q-14.82-7.41-22.11-15.81t-7.29-21a37.79,37.79,0,0,1,5.93-21,40,40,0,0,1,16.18-14.2,50.31,50.31,0,0,1,22.61-5.07A61.72,61.72,0,0,1,150,277.9a49.49,49.49,0,0,1,19.4,14.45L146.91,313.6a32.1,32.1,0,0,0-10.25-9.14,25.15,25.15,0,0,0-10.5-3.21,11.55,11.55,0,0,0-6.79,2,6.26,6.26,0,0,0-2.85,5.43c0,1.82,1.36,3.79,4.08,5.93a71.38,71.38,0,0,0,13,7.41q16.31,8.16,24,16.06t7.66,21q0,17.79-13,28.54t-35,10.75A67.05,67.05,0,0,1,90.83,392.79Z"/><path class="cls-1" d="M194.6,392.79q-13.09-5.57-20.75-15.19l20.75-21.5a42.81,42.81,0,0,0,13,10.38A31.17,31.17,0,0,0,222,370.43a16.36,16.36,0,0,0,8-1.73,5.4,5.4,0,0,0,3.09-4.94q0-2.72-2.84-4.82a59.11,59.11,0,0,0-8.27-4.82c-3.63-1.81-6.18-3.12-7.66-3.95q-14.84-7.41-22.12-15.81t-7.29-21a37.79,37.79,0,0,1,5.93-21,40,40,0,0,1,16.19-14.2,50.27,50.27,0,0,1,22.6-5.07,61.68,61.68,0,0,1,24.09,4.82,49.49,49.49,0,0,1,19.4,14.45L250.69,313.6a32.23,32.23,0,0,0-10.26-9.14,25.15,25.15,0,0,0-10.5-3.21,11.55,11.55,0,0,0-6.79,2,6.26,6.26,0,0,0-2.85,5.43c0,1.82,1.36,3.79,4.08,5.93a71.38,71.38,0,0,0,13,7.41q16.31,8.16,24,16.06t7.66,21q0,17.79-13,28.54t-35,10.75A67.05,67.05,0,0,1,194.6,392.79Z"/><path class="cls-1" d="M295,390.32q-8.28-8-8.28-25.82a99.3,99.3,0,0,1,1-14.08l10.38-75.11h36.81l-9.14,64a110.87,110.87,0,0,0-1.24,13.34q0,6.67,2.23,9.64t6.91,3q5.19,0,11.12-4.94a46.61,46.61,0,0,0,10.5-13,43.37,43.37,0,0,0,5.56-16.68l6.67-55.34h37.07L389.79,396.13H353.47L355,378.34h-.49q-14.83,20-35.83,20Q303.32,398.35,295,390.32Z"/><path class="cls-1" d="M504.8,338.19q-20.15,11-51.27,14.2,1.49,7.67,6.43,11.49a17.28,17.28,0,0,0,10.87,3.83q12.84,0,22-12.1l27.67,16.3Q510.6,385.26,498,391.8t-30.15,6.55q-22.73,0-36.57-13.47t-13.83-36.69a86.59,86.59,0,0,1,8.15-37.8,67.23,67.23,0,0,1,23.1-27.18q15-10.12,35-10.13a53.71,53.71,0,0,1,19.64,3.71,37,37,0,0,1,15.56,11.12,27.56,27.56,0,0,1,6.06,18Q524.94,327.2,504.8,338.19ZM487,305.82a10.37,10.37,0,0,0-6.55-1.85q-8.15,0-15.44,7t-10.25,19.15q34.59-3.71,34.59-19A6.39,6.39,0,0,0,487,305.82Z"/><path class="cls-1" d="M638.84,220.7l36.07,175.43h-41l-5.44-32.37H575.84l-12.61,32.37h-41.5L600.79,220.7ZM612.9,268.88h-.5l-24,61.52h34.83Z"/><path class="cls-1" d="M743.35,275.31,728.53,396.13H691.46l14.83-120.82Zm-30-21.62a20.2,20.2,0,0,1-6.3-15.2,20.65,20.65,0,0,1,6.43-15.56q6.42-6.18,16.55-6.18,9.88,0,16.06,5.93a20,20,0,0,1,6.18,15.07,21,21,0,0,1-6.43,15.81q-6.42,6.18-16.55,6.18Q719.63,259.74,713.33,253.69Z"/><path class="cls-1" d="M768.43,392.79q-5.82-6-5.81-15.44,0-9.64,6-15.69t15.94-6.05q9.89,0,15.69,5.93a20.66,20.66,0,0,1,5.81,15.07q0,9.88-6.06,16.06t-16.18,6.17C777.45,398.84,772.29,396.83,768.43,392.79Zm55.22-178.51-21.5,122H775.72l8.64-122Z"/><path class="cls-1" d="M417.61,163.87a7.78,7.78,0,0,0,0,15.56h.65a7.78,7.78,0,1,0,0-15.56Z"/><path class="cls-1" d="M444.65,163.87a7.78,7.78,0,1,0,0,15.56h.65a7.78,7.78,0,0,0,0-15.56Z"/><path class="cls-1" d="M635.83,2.18H516.59c-20.74,0-37.93,16.66-37.93,37.4V92.1H397.14a37.88,37.88,0,0,0-37.8,37.68v87.59c0,20.74,17.06,37.28,37.8,37.28H506.85L541,286a7.84,7.84,0,0,0,5.25,2.12,7.54,7.54,0,0,0,3.08-.62,7.69,7.69,0,0,0,4.59-7.08v-91.6a7.78,7.78,0,1,0-15.56,0v74l-23.27-21.44a7.78,7.78,0,0,0-5.19-2.2H397.14c-12.16,0-22.24-9.56-22.24-21.72V129.78a22.29,22.29,0,0,1,22.24-22.11h81.52v82.49a8,8,0,0,0,13.26,5.75l28.56-26,2-1.86c1.54-1.42,3.13-2.88,3.78-3.31.63-.07,2.23-.06,3.66,0s3,0,4.95,0H635.83a37.41,37.41,0,0,0,37.37-37.57V39.58A37.27,37.27,0,0,0,635.83,2.18Zm21.8,125a21.83,21.83,0,0,1-21.8,22H534.91c-1.84,0-3.35,0-4.63,0-9.31-.19-11.14.86-18.29,7.44-.59.55-1.4,1.16-2.12,1.82l-15.65,14.14V39.58c0-12.16,10.21-21.84,22.37-21.84H635.83a21.68,21.68,0,0,1,21.8,21.84h0Z"/><rect class="cls-1" x="569.72" y="99.03" width="13.06" height="13.06"/><path class="cls-1" d="M576.25,40.27A45.7,45.7,0,1,0,621.94,86,45.7,45.7,0,0,0,576.25,40.27Zm0,78.34A32.64,32.64,0,1,1,608.89,86,32.64,32.64,0,0,1,576.25,118.61Z"/><rect class="cls-1" x="569.72" y="59.86" width="13.06" height="32.64"/></svg>