<svg id="Camada_1" data-name="Camada 1" xmlns="http://www.w3.org/2000/svg" viewBox="0 0 1000 1000"><defs><style>.cls-1{fill:#48a1af;}.cls-2{fill:#337180;}.cls-3{fill:#a56344;}.cls-4{fill:#5ac034;}.cls-5{fill:#f8b159;}.cls-6{fill:#f89928;}.cls-7{fill:#a8d0e1;}.cls-8{fill:#92e170;}.cls-9{fill:#963737;}.cls-10{fill:#dcdbde;}.cls-11{fill:#ededee;}.cls-12{fill:#ff4b4b;}.cls-13{fill:#d24a4a;}.cls-14{fill:#625d6b;}</style></defs><title>LaguinhoAPILogo</title><g id="_Grupo_" data-name="&lt;Grupo&gt;"><path id="_Caminho_" data-name="&lt;Caminho&gt;" class="cls-1" d="M847.89,603.08a87.23,87.23,0,0,1-87.22,87.21c-16.21,0-25.73,17.88-17,31.57a87.23,87.23,0,0,1-73.74,133.81H239.33a87.22,87.22,0,0,1,0-174.43c16.21,0,25.73-17.88,17-31.57a87.23,87.23,0,0,1,8.16-104.09c8.57-9.77,5.37-24.86-6.07-31a87.21,87.21,0,0,1,41.19-164.09H730.22a87.2,87.2,0,0,1,65.56,144.71c-8.56,9.78-5.36,24.87,6.09,31a87.72,87.72,0,0,1,33.28,31.47A86.85,86.85,0,0,1,847.89,603.08Z"/><path id="_Caminho_2" data-name="&lt;Caminho&gt;" class="cls-2" d="M847.89,603.08a87.23,87.23,0,0,1-87.22,87.21c-16.21,0-25.73,17.88-17,31.57a87.23,87.23,0,0,1-73.74,133.81H332.71c367.76-70.45,438.8-369,439-494.7a87.32,87.32,0,0,1,45.71,76.73,86.82,86.82,0,0,1-21.65,57.5c-8.57,9.77-5.36,24.86,6.09,31a87.16,87.16,0,0,1,46,76.87Z"/><g id="_Grupo_2" data-name="&lt;Grupo&gt;"><g id="_Grupo_3" data-name="&lt;Grupo&gt;"><g id="_Grupo_4" data-name="&lt;Grupo&gt;"><path id="_Caminho_3" data-name="&lt;Caminho&gt;" class="cls-3" d="M356.48,758.59A10.5,10.5,0,0,1,346,748.1V559.59a10.5,10.5,0,0,1,21,0V748.1A10.5,10.5,0,0,1,356.48,758.59Z"/></g><g id="_Grupo_5" data-name="&lt;Grupo&gt;"><path id="_Caminho_4" data-name="&lt;Caminho&gt;" class="cls-4" d="M418.19,602c-15.63,15.64-36,22.77-54.11,20.74a8.28,8.28,0,0,1-7.26-7.25c-2-18.08,5.1-38.49,20.73-54.12s36-22.77,54.12-20.73a8.26,8.26,0,0,1,7.25,7.25C441,566,433.82,586.39,418.19,602Z"/></g><path id="_Caminho_5" data-name="&lt;Caminho&gt;" class="cls-5" d="M356.48,591.1h0A31.51,31.51,0,0,1,325,559.6V458.5A31.5,31.5,0,0,1,356.48,427h0A31.49,31.49,0,0,1,388,458.5V559.6A31.5,31.5,0,0,1,356.48,591.1Z"/><path id="_Caminho_6" data-name="&lt;Caminho&gt;" class="cls-6" d="M388,458.5V559.59a31.52,31.52,0,0,1-43.39,29.18,31.49,31.49,0,0,0,19.62-29.18V458.5a31.51,31.51,0,0,0-19.62-29.17A31.51,31.51,0,0,1,388,458.5Z"/><g id="_Grupo_6" data-name="&lt;Grupo&gt;"><path id="_Caminho_7" data-name="&lt;Caminho&gt;" class="cls-4" d="M356.48,437.5A10.5,10.5,0,0,1,346,427V409.85a10.5,10.5,0,0,1,21,0V427A10.5,10.5,0,0,1,356.48,437.5Z"/></g></g><g id="_Grupo_7" data-name="&lt;Grupo&gt;"><g id="_Grupo_8" data-name="&lt;Grupo&gt;"><path id="_Caminho_8" data-name="&lt;Caminho&gt;" class="cls-7" d="M356.82,759.58A44,44,0,0,1,319,738.3a23.27,23.27,0,0,0-39.79,0,10.5,10.5,0,1,1-17.94-10.92,44.27,44.27,0,0,1,75.66,0,23.27,23.27,0,0,0,39.79,0,44.27,44.27,0,0,1,75.67,0,10.5,10.5,0,0,1-17.94,10.92,23.27,23.27,0,0,0-39.79,0A44,44,0,0,1,356.82,759.58Z"/></g></g></g><g id="_Grupo_9" data-name="&lt;Grupo&gt;"><path id="_Caminho_9" data-name="&lt;Caminho&gt;" class="cls-2" d="M607.71,813.71c-29.63,0-57.89-6-79.58-17-25.64-13-39.76-31.53-39.76-52.3s14.12-39.36,39.76-52.31c21.69-11,50-17,79.58-17,31.33,0,61.77,6.9,83.5,18.92A22.4,22.4,0,0,1,688,734.71l-13.49,4.88,23.12,4.76a22.4,22.4,0,0,1,10.51,38.56C686.72,802.2,649.18,813.71,607.71,813.71Z"/><path id="_Caminho_10" data-name="&lt;Caminho&gt;" class="cls-8" d="M622.28,747.42,694,762.18a4.2,4.2,0,0,1,2,7.21c-17.72,16-51.41,26.12-88.23,26.12-55.48,0-101.14-23.06-101.14-51.1s45.66-51.09,101.14-51.09c28.57,0,55.66,6.11,74.69,16.64a4.21,4.21,0,0,1-.61,7.64l-60.1,21.75A4.21,4.21,0,0,0,622.28,747.42Z"/></g><path class="cls-7" d="M676.07,567.28c0,12.46-51.75,22.57-115.59,22.57S444.9,579.74,444.9,567.28s51.75-22.57,115.58-22.57S676.07,554.81,676.07,567.28Z"/><path class="cls-9" d="M627.14,498.56,567,369.67v-.29a6.51,6.51,0,0,0-13,0V494.8h-71.6A6.51,6.51,0,0,0,477,504.92l17.36,26a6.51,6.51,0,1,0,10.83-7.22l-10.61-15.92H554v59.46a6.51,6.51,0,0,0,13,0V507.82h54.25a6.51,6.51,0,0,0,5.9-9.26ZM567,494.8V400.46l44,94.34Z"/><path class="cls-10" d="M682,335.24V482.85a7.72,7.72,0,0,1-12,6.42L600.9,443.2a129.76,129.76,0,0,1-57.78-108h0c0-1.46.06-2.91.15-4.34l-.15-59.47A108.43,108.43,0,0,1,559,214.88V180.16h43.4v34.72a108.51,108.51,0,0,0-15.91,56,69.29,69.29,0,0,1,26-5.06h0A69.44,69.44,0,0,1,682,335.24Z"/><path class="cls-11" d="M682,335.24V459.71l-58-38.63a129.76,129.76,0,0,1-57.78-108h0a69.09,69.09,0,0,1,8.44-33.19,17.08,17.08,0,0,1,7.49-7.15,69.09,69.09,0,0,1,30.36-7h0A69.44,69.44,0,0,1,682,335.24Zm-60.76-151h0a38.84,38.84,0,0,0-38.84-38.84H564.6a38.84,38.84,0,0,0-38.84,38.84v38.84H582.4A38.84,38.84,0,0,0,621.24,184.28Z"/><path class="cls-12" d="M342.09,201l178.31-18.9a20.55,20.55,0,0,1,22.72,20.43v11.88a8.68,8.68,0,0,1-8.68,8.68h-204a4.34,4.34,0,0,1-4.34-4.34h0A17.85,17.85,0,0,1,342.09,201Z"/><path class="cls-13" d="M542.82,199a20.39,20.39,0,0,1,.3,3.52v11.88a8.68,8.68,0,0,1-8.68,8.68h-204a4.34,4.34,0,0,1-4.34-4.34,17.79,17.79,0,0,1,6-13.31H534.44A8.68,8.68,0,0,0,542.82,199Z"/><path class="cls-14" d="M563.49,167.64A57.79,57.79,0,0,0,568,163a43.74,43.74,0,0,0,4.17,4.64c4.14,4,6.25,4.47,6.51,6.51.4,3.1-3.83,7.1-6.51,6.51-2.35-.51-2.7-4.37-4.5-4.33s-2,3.79-4.18,4.33c-2.59.63-6.9-3.35-6.51-6.51C557.22,172.19,559.15,171.64,563.49,167.64Z"/><path class="cls-2" d="M590.86,573.79H530.1c-3.86-1.41-6.51-3.95-6.51-6.51a6.51,6.51,0,0,1,6.51-6.51h60.76a6.51,6.51,0,0,1,0,13Z"/></g></svg>