<svg id="Camada_1" data-name="Camada 1" xmlns="http://www.w3.org/2000/svg" viewBox="0 0 800 800"><defs><style>.cls-1{fill:#002626;}.cls-2{fill:#0e4749;}.cls-3{fill:#95c623;}.cls-4{fill:#efe7da;}.cls-5{fill:#00485c;}.cls-12,.cls-13,.cls-6,.cls-7,.cls-8,.cls-9{fill:none;stroke-width:5px;}.cls-12,.cls-13,.cls-6,.cls-7,.cls-8{stroke:#fff;}.cls-11,.cls-12,.cls-13,.cls-6,.cls-7,.cls-8,.cls-9{stroke-miterlimit:10;}.cls-7{stroke-dasharray:12.39 12.39;}.cls-8,.cls-9{stroke-linecap:round;}.cls-11,.cls-9{stroke:#bc0000;}.cls-9{opacity:0.8;}.cls-10{fill:#fff;}.cls-11{fill:#bc0000;}.cls-12{stroke-dasharray:11.48 11.48;}.cls-13{stroke-dasharray:11.36 11.36;}.cls-14{fill:#490202;}</style></defs><title>RoadMapCCFull</title><rect class="cls-1" x="192.94" y="21.19" width="93.33" height="603.39" rx="46.66" ry="46.66"/><rect class="cls-2" x="299.95" y="21.19" width="93.33" height="603.39" rx="46.66" ry="46.66"/><rect class="cls-3" x="406.97" y="21.19" width="93.33" height="603.39" rx="46.66" ry="46.66"/><rect class="cls-4" x="513.98" y="21.19" width="93.33" height="603.39" rx="46.66" ry="46.66"/><path class="cls-5" d="M177.41,738.2l-10.68-18.31H155.51V738.2H137.39v-69h29.07a25.32,25.32,0,0,1,17.2,44l14.63,25Zm-21.9-34h11.22a9.89,9.89,0,1,0,0-19.78H155.51Z"/><path class="cls-5" d="M222.12,669.2a34.5,34.5,0,1,1-34.41,34.59A34.59,34.59,0,0,1,222.12,669.2Zm0,18a16.47,16.47,0,1,0,16.47,16.47A16.43,16.43,0,0,0,222.12,687.23Z"/><path class="cls-5" d="M248.34,738.2l32.2-69h8.18l32.48,69H303.08l-4.24-9H270.6l-4.14,9Zm29.35-24.29h14.07l-7-15.18Z"/><path class="cls-5" d="M314.12,669.2h25.57a34.5,34.5,0,1,1,0,69H314.12Zm18,51.15h7.64a16.33,16.33,0,1,0,0-32.66h-7.64Z"/><path class="cls-5" d="M406.76,694.77l28.06-25.57H443v69H424.79V702.78l-18,16.46-18.12-16.37V738.2H370.42v-69h8.19Z"/><path class="cls-5" d="M436,738.2l32.2-69h8.18l32.48,69H490.75l-4.23-9H458.28l-4.14,9Zm29.34-24.29h14.08l-7-15.18Z"/><path class="cls-5" d="M501.8,669.2h29.07a25.35,25.35,0,0,1,.37,50.69H519.92V738.2H501.8Zm18.12,35h11.22a9.89,9.89,0,1,0,0-19.78H519.92Z"/><path class="cls-5" d="M607,728.08a34.5,34.5,0,1,1-.18-48.94l-1.29,1.19a32.85,32.85,0,1,0,.18,46.37Z"/><path class="cls-5" d="M662.79,728.08a34.5,34.5,0,1,1-.18-48.94l-1.29,1.19a32.85,32.85,0,1,0,.18,46.37Z"/><line class="cls-6" x1="453.63" y1="225.23" x2="457.34" y2="229.94"/><line class="cls-7" x1="465" y1="239.69" x2="553.1" y2="351.73"/><line class="cls-6" x1="556.93" y1="356.6" x2="560.64" y2="361.32"/><circle class="cls-8" cx="239.61" cy="196.84" r="18.88"/><circle class="cls-8" cx="346.62" cy="426.29" r="18.88"/><circle class="cls-9" cx="560.64" cy="361.32" r="18.88"/><circle class="cls-8" cx="453.63" cy="225.23" r="18.88"/><circle class="cls-10" cx="239.61" cy="196.84" r="9.14"/><circle class="cls-10" cx="346.62" cy="426.29" r="9.14"/><circle class="cls-10" cx="453.63" cy="225.23" r="9.14"/><circle class="cls-11" cx="560.64" cy="361.32" r="9.14"/><line class="cls-6" x1="239.61" y1="196.84" x2="242.14" y2="202.28"/><line class="cls-12" x1="247" y1="212.69" x2="341.66" y2="415.65"/><line class="cls-6" x1="344.08" y1="420.86" x2="346.62" y2="426.29"/><line class="cls-6" x1="346.62" y1="426.29" x2="349.44" y2="421"/><line class="cls-13" x1="354.77" y1="410.97" x2="448.14" y2="235.54"/><line class="cls-6" x1="450.81" y1="230.52" x2="453.63" y2="225.23"/><path class="cls-14" d="M560.64,309.38c-9.2,0-17.53,7.46-17.53,16.66s7.6,20.19,17.53,35.95c9.94-15.76,17.54-26.75,17.54-35.95S569.85,309.38,560.64,309.38Zm0,24.11a6.58,6.58,0,1,1,6.58-6.58A6.57,6.57,0,0,1,560.64,333.49Z"/></svg>