<svg id="Camada_1" data-name="Camada 1" xmlns="http://www.w3.org/2000/svg" viewBox="0 0 1000 1000"><defs><style>.cls-1{fill:#f89f4f;}.cls-2{fill:#f3872f;}.cls-3{fill:#a55b23;}</style></defs><title>TambureteiLogoFull</title><g id="_Grupo_" data-name="&lt;Grupo&gt;"><rect class="cls-1" x="307.35" y="191.08" width="385.3" height="59.49"/><rect class="cls-2" x="307.35" y="191.08" width="88.44" height="59.49"/><rect class="cls-3" x="396.14" y="446.99" width="207.71" height="25.03"/><rect class="cls-3" x="396.14" y="268.45" width="207.71" height="35.88"/><path d="M710.53,182.14v77.37a8.94,8.94,0,0,1-8.94,8.94H681.76v354a8.94,8.94,0,0,1-8.94,8.94h-60a8.93,8.93,0,0,1-8.93-8.94V489.9H396.14V622.45a8.93,8.93,0,0,1-8.93,8.94h-60a8.94,8.94,0,0,1-8.94-8.94v-354H298.41a9,9,0,0,1-8.94-8.94V182.14a9,9,0,0,1,8.94-8.94H701.59A8.94,8.94,0,0,1,710.53,182.14Zm-17.88,68.43V191.08H307.35v59.49ZM663.88,613.51V268.45H621.73V613.51ZM603.86,472V447H396.14v25Zm0-42.91V322.2H396.14V429.11Zm0-124.79V268.45H396.14v35.87ZM378.27,613.51V268.45H336.12V613.51Z"/></g><rect class="cls-1" x="642.81" y="268.45" width="21.07" height="345.06"/><rect class="cls-1" x="357.19" y="268.45" width="21.07" height="345.06"/><rect class="cls-2" x="336.12" y="268.45" width="21.07" height="345.06"/><rect class="cls-2" x="621.73" y="268.45" width="21.07" height="345.06"/><path d="M111.73,696.79v-9c0-4.26,4.6-7.87,9.84-7.87H177.5c5.25,0,9.84,3.61,9.84,7.87v9h-28.7v114.8h-8.53c-5.25,0-9.67-4.26-9.67-9.18V696.79Z"/><path d="M190.78,729.76c0-4.76,5.41-9.19,9.84-9.19,10,0,16.07,0,18.53.17,7.55.16,12,1.64,17.72,5.57,6.72,4.43,11.64,12.8,11.64,19.85l.33,55.43c0,5.08-3.77,9.84-8.69,9.84h-9.84v-1.8a61.71,61.71,0,0,1-18.37,3c-23.62,0-36.25-12.47-36.25-35.75,0-21.49,13.62-33.62,36.25-33.62h12.63a44.58,44.58,0,0,0,5.24-.17c-2.13-4.43-9.18-5.41-15.25-5.41H190.78Zm39.69,29.52c-2.95.16-6.72.33-11,.33h-.33l-3.77-.17c-16.23,0-21.65,3.94-21.65,17.71,0,13,4.92,18.37,16.73,18.37,12.14,0,20-4.26,20-7.21Z"/><path d="M315.09,758c0-13.78-8.2-22-22-22-7.88,0-16.24,3.94-16.24,6.89v68.55H267.7a9.33,9.33,0,0,1-9.52-9v-59.7c0-6.23,3.94-12,7.55-14.76,10.17-7.38,21.48-8.36,27.39-8.36,12,0,22.3,3.77,29.35,10.66l2,2a22.52,22.52,0,0,0,1.8-2c7.06-6.89,17.39-10.66,29.36-10.66,16.56,0,34.93,9.68,34.93,22.8v60a9.32,9.32,0,0,1-9.51,9h-9.18V743.21c0-1.64-3.94-6.56-16.73-6.56-13.94,0-21.49,7.54-21.49,21.32l-.16,53.46H322.8l-2-.66a9.41,9.41,0,0,1-5.74-8.36Z"/><path d="M417.75,719.59a24,24,0,0,0,5.25.33h11.48c10.17,0,20,5.25,27.55,14.43l.17.33c5.08,8.53,7.87,19.68,7.87,30.83v2.13c0,9.35-2.3,17.55-7.38,26.57l-.49,1c-7.05,10.17-17.39,16.4-27.72,16.4H409.39c-5.58,0-9.68-3.93-9.68-9v-114c0-4.92,4.1-8.69,9.68-8.69h8.36Zm3.78,18.53a31,31,0,0,1-3.78-.33v55.6H435.3c4.59,0,8.2-2.79,11-8.36l.49-.66c3-5.25,4.27-9.18,4.27-17.88v-1c0-7.87-1.32-14.6-3.78-18.86L447,746c-5.09-6.56-8-7.87-12.47-7.87Z"/><path d="M511.23,812.58c-8.2-1.48-15.09-4.43-19.35-8.53A39,39,0,0,1,478.6,774.2l.49-55.1h8.85a9.22,9.22,0,0,1,9.52,9L497,774.2c0,6.89,1.64,12.3,5.25,15.91s9.19,5.58,16.07,5.58c7.22,0,13.45-2,17.06-5.25,3.61-3.77,5.41-8.86,5.41-16.24l-.49-46.08a9.21,9.21,0,0,1,9.51-9h8.86l.49,55.1a42.83,42.83,0,0,1-2.62,14.93c-3.45,9.18-11.48,20.5-30.51,23.45a45.09,45.09,0,0,1-7.21.49A52.7,52.7,0,0,1,511.23,812.58Z"/><path d="M567.15,748.62c0-20.17,16.08-29.36,32-29.36,10.83,0,21.16,3.94,27.23,10.33,2.13,2.14.82,4.6,0,6.24l-.33.65c-1.48,3.28-3.44,7.22-7,7.22a4,4,0,0,1-2.62-1c-5.42-4.26-11.65-6.56-17.23-6.56-9,0-14.1,5.74-14.1,16.08v59.36h-8.36a9.32,9.32,0,0,1-9.52-9Z"/><path d="M630.13,774V757a37.62,37.62,0,0,1,5.41-19.51c7.05-11.48,20.67-19,34.77-19h1.31c22.47,1.64,36.74,16.73,36.74,38.54v18c-.66,3.12-3.44,3.12-5.74,3.12h-54c1.64,5.74,6.56,18,21.65,18,13.61,0,16.57-2.95,19.19-5.41.82-.82,1.64-1.48,2.62-2.3a8.13,8.13,0,0,1,4.27-1.31c3.77,0,6.56,3,8.2,4.59l2.29,2.3-1.8,2.13A55.72,55.72,0,0,1,695.4,805c-4.75,3.78-14.1,7.55-23.94,7.55h-1.15a40.83,40.83,0,0,1-19.84-5.25C638.33,800.44,630.13,787.49,630.13,774Zm60.68-13.12V757c.16-6.07-1.64-20-19.68-22.14h-.82A18.32,18.32,0,0,0,659.65,738a21.07,21.07,0,0,0-11.15,19v3.94Z"/><path d="M776.75,798.31c0,5.9,0,14.76-8.53,14.76H761c-14.1,0-31.16-6.56-31.16-38.21V736.48H716.39v-7.71c0-4.75,4.43-8.52,9.84-8.52h3.61V704.17c0-4.92,4.43-9,9.68-9h8.69v25.1h15.58c5.41,0,9.84,3.77,9.84,8.52v7.71H748.21v38.38c0,15.58,1.8,20.66,12.14,20.66h16.4Z"/><path d="M784.78,774V757a37.62,37.62,0,0,1,5.41-19.51c7.06-11.48,20.67-19,34.77-19h1.31C848.74,720.08,863,735.17,863,757v18c-.66,3.12-3.44,3.12-5.74,3.12h-54c1.64,5.74,6.56,18,21.65,18,13.61,0,16.57-2.95,19.19-5.41.82-.82,1.64-1.48,2.62-2.3a8.13,8.13,0,0,1,4.27-1.31c3.77,0,6.56,3,8.2,4.59l2.29,2.3-1.8,2.13a55.72,55.72,0,0,1-9.68,8.85c-4.75,3.78-14.1,7.55-23.94,7.55H825a40.83,40.83,0,0,1-19.84-5.25C793,800.44,784.78,787.49,784.78,774Zm60.68-13.12V757c.17-6.07-1.64-20-19.68-22.14H825A18.32,18.32,0,0,0,814.3,738a21.07,21.07,0,0,0-11.15,19v3.94Z"/><path d="M880.23,711.39c-5.25,0-10.17-3.94-10.17-8v-9.67c0-4.27,4.59-9.35,10.17-9.35h1c2.13,0,4.92,1,6.23,2.79l.66,1,.49,2.63v20.66Zm.49,100c-5.58,0-10.17-4.26-10.17-9.51V733c0-4.1,4.92-8,10.17-8h8.2v86.43Z"/></svg>