<svg width="39" height="44" viewBox="0 0 39 44" fill="none" xmlns="http://www.w3.org/2000/svg">
<path fill-rule="evenodd" clip-rule="evenodd" d="M33.8056 0.5C36.221 0.5 38.1875 2.4665 38.1875 4.90325V43.25L33.5919 39.1888L31.0055 36.7948L28.2695 34.2511L29.4024 38.2055H5.16313C2.74775 38.2055 0.78125 36.239 0.78125 33.8023V4.90325C0.78125 2.4665 2.74775 0.5 5.16313 0.5H33.8056V0.5ZM25.5549 28.4158C30.2788 28.2661 32.0956 25.1668 32.0956 25.1668C32.0956 18.284 29.0176 12.7051 29.0176 12.7051C25.9396 10.3966 23.0113 10.4608 23.0113 10.4608L22.712 10.8028C26.3458 11.9143 28.0344 13.5174 28.0344 13.5174C25.8114 12.299 23.6311 11.7005 21.6005 11.4654C20.0615 11.2944 18.5866 11.3371 17.2828 11.5081L16.9194 11.5509C16.1713 11.615 14.3544 11.8929 12.0673 12.8975C11.2764 13.2609 10.8061 13.5174 10.8061 13.5174C10.8061 13.5174 12.5803 11.8288 16.4278 10.7173L16.214 10.4608C16.214 10.4608 13.2856 10.3966 10.2076 12.7051C10.2076 12.7051 7.12963 18.284 7.12963 25.1668C7.12963 25.1668 8.92513 28.2661 13.649 28.4158C13.649 28.4158 14.4399 27.4539 15.0811 26.6416C12.3665 25.8294 11.3405 24.1194 11.3405 24.1194L11.939 24.4828L12.0245 24.5469L12.1082 24.595L12.1332 24.6057L12.2169 24.6538C12.7513 24.953 13.2856 25.1881 13.7773 25.3805C14.6536 25.7225 15.701 26.0645 16.9194 26.2996C18.5225 26.5989 20.4035 26.7058 22.4555 26.321C23.4601 26.15 24.4861 25.8508 25.5549 25.4019C26.303 25.124 27.1366 24.7179 28.013 24.1408C28.013 24.1408 26.9443 25.8935 24.1441 26.6844C24.7854 27.4966 25.5549 28.4158 25.5549 28.4158ZM15.6155 18.4336C14.3971 18.4336 13.4353 19.5024 13.4353 20.8063C13.4353 22.1101 14.4185 23.1789 15.6155 23.1789C16.8339 23.1789 17.7958 22.1101 17.7958 20.8063C17.8171 19.5024 16.8339 18.4336 15.6155 18.4336ZM23.4174 18.4336C22.199 18.4336 21.2371 19.5024 21.2371 20.8063C21.2371 22.1101 22.2204 23.1789 23.4174 23.1789C24.6358 23.1789 25.5976 22.1101 25.5976 20.8063C25.5976 19.5024 24.6358 18.4336 23.4174 18.4336Z" fill="#9fef00"/>
</svg>
