<svg width="43" height="42" viewBox="0 0 43 42" fill="none" xmlns="http://www.w3.org/2000/svg">
<path d="M21.375 0C9.57244 0 0 9.57066 0 21.375C0 30.8192 6.12394 38.8313 14.6187 41.6581C15.6857 41.8558 16.0313 41.1932 16.0313 40.6303V36.651C10.0854 37.9442 8.84747 34.1288 8.84747 34.1288C7.87491 31.6582 6.47306 31.0009 6.47306 31.0009C4.53328 29.6739 6.62091 29.7024 6.62091 29.7024C8.76732 29.852 9.89663 31.9058 9.89663 31.9058C11.8026 35.1726 14.8966 34.2285 16.1168 33.6817C16.3074 32.3012 16.8613 31.3571 17.4741 30.8245C12.727 30.2813 7.73597 28.4484 7.73597 20.2599C7.73597 17.9247 8.57138 16.0188 9.9376 14.5225C9.71672 13.9828 8.98463 11.8079 10.146 8.86528C10.146 8.86528 11.9415 8.29172 16.0259 11.0562C17.7306 10.5824 19.5581 10.3455 21.375 10.3366C23.1919 10.3455 25.0212 10.5824 26.7294 11.0562C30.8103 8.29172 32.6022 8.86528 32.6022 8.86528C33.7654 11.8097 33.0333 13.9846 32.8124 14.5225C34.184 16.0188 35.0123 17.9265 35.0123 20.2599C35.0123 28.4697 30.0123 30.2777 25.2528 30.8067C26.0187 31.4694 26.7188 32.7697 26.7188 34.7647V40.6303C26.7188 41.1985 27.0608 41.8665 28.1455 41.6563C36.6332 38.8259 42.75 30.8156 42.75 21.375C42.75 9.57066 33.1794 0 21.375 0Z" fill="#9CA8F0"/>
</svg>
