<svg width="40" height="40" viewBox="0 0 40 40" fill="none" xmlns="http://www.w3.org/2000/svg">
<path d="M19.875 3.58247C25.1816 3.58247 25.811 3.60235 27.9078 3.69841C33.294 3.94353 35.8098 6.49913 36.0549 11.8455C36.151 13.9407 36.1692 14.57 36.1692 19.8767C36.1692 25.1849 36.1493 25.8127 36.0549 27.9078C35.8081 33.2492 33.2989 35.8098 27.9078 36.0549C25.811 36.151 25.1849 36.1709 19.875 36.1709C14.5684 36.1709 13.939 36.151 11.8439 36.0549C6.44447 35.8081 3.94188 33.241 3.69675 27.9062C3.60069 25.811 3.58081 25.1833 3.58081 19.875C3.58081 14.5684 3.60235 13.9407 3.69675 11.8439C3.94353 6.49913 6.45275 3.94188 11.8439 3.69675C13.9407 3.60235 14.5684 3.58247 19.875 3.58247ZM19.875 0C14.4773 0 13.8015 0.0231875 11.6815 0.11925C4.4636 0.4505 0.452156 4.45531 0.120906 11.6799C0.0231875 13.8015 0 14.4773 0 19.875C0 25.2727 0.0231875 25.9501 0.11925 28.0701C0.4505 35.2881 4.45531 39.2995 11.6799 39.6308C13.8015 39.7268 14.4773 39.75 19.875 39.75C25.2727 39.75 25.9501 39.7268 28.0701 39.6308C35.2815 39.2995 39.3028 35.2947 39.6291 28.0701C39.7268 25.9501 39.75 25.2727 39.75 19.875C39.75 14.4773 39.7268 13.8015 39.6308 11.6815C39.3061 4.47022 35.2964 0.452156 28.0718 0.120906C25.9501 0.0231875 25.2727 0 19.875 0V0ZM19.875 9.66919C14.2388 9.66919 9.66919 14.2388 9.66919 19.875C9.66919 25.5112 14.2388 30.0825 19.875 30.0825C25.5112 30.0825 30.0808 25.5129 30.0808 19.875C30.0808 14.2388 25.5112 9.66919 19.875 9.66919ZM19.875 26.5C16.2164 26.5 13.25 23.5353 13.25 19.875C13.25 16.2164 16.2164 13.25 19.875 13.25C23.5337 13.25 26.5 16.2164 26.5 19.875C26.5 23.5353 23.5337 26.5 19.875 26.5ZM30.485 6.88172C29.1666 6.88172 28.0983 7.95 28.0983 9.26672C28.0983 10.5834 29.1666 11.6517 30.485 11.6517C31.8017 11.6517 32.8683 10.5834 32.8683 9.26672C32.8683 7.95 31.8017 6.88172 30.485 6.88172Z" fill="#9fef00"/>
</svg>
