<svg width="43" height="36" viewBox="0 0 43 36" fill="none" xmlns="http://www.w3.org/2000/svg">
<path d="M42.75 4.61718C41.1772 5.31543 39.4868 5.78568 37.7126 5.99765C39.5242 4.91287 40.9153 3.19396 41.569 1.14552C39.8751 2.15015 37.9976 2.88046 35.9991 3.27412C34.4013 1.56946 32.1195 0.504272 29.5973 0.504272C23.9347 0.504272 19.7737 5.78746 21.0526 11.2719C13.7655 10.9068 7.30313 7.41553 2.97647 2.10918C0.678657 6.05109 1.78481 11.2078 5.68931 13.8191C4.25363 13.7728 2.89988 13.3792 1.71891 12.7219C1.62272 16.7849 4.53506 20.5861 8.75307 21.4322C7.51866 21.7671 6.16669 21.8454 4.79156 21.5818C5.90663 25.0659 9.14494 27.6007 12.9853 27.6719C9.29813 30.5629 4.65263 31.8543 0 31.3057C3.88134 33.7941 8.493 35.2458 13.4449 35.2458C29.7291 35.2458 38.9292 21.4928 38.3735 9.15759C40.087 7.91962 41.5744 6.37528 42.75 4.61718Z" fill="#9fef00"/>
</svg>
