<svg width="778" height="121" viewBox="0 0 778 121" fill="none" xmlns="http://www.w3.org/2000/svg">
<path d="M4.12305 47.3608V0.663574H24.2151V28.6836H34.2655V0.663574H54.3576V47.3608H34.2655V38.0181H24.2151V47.3608H4.12305Z" fill="#4B5CBF"/>
<path d="M94.5414 28.6836V10.0063H84.4999V28.6836H94.5414ZM64.3989 47.3608V0.663574H114.625V47.3526H94.5326V38.0181H84.491V47.3526H64.3989V47.3608Z" fill="#4B5CBF"/>
<path d="M124.675 47.3608V0.663574H174.91V10.0063H144.767V38.0181H174.91V47.3608H124.675Z" fill="#4B5CBF"/>
<path d="M184.951 47.3608V0.663574H205.043V19.3408H215.094V0.663574H235.177V19.3408H225.135V28.6836H235.177V47.3608H215.094V38.0181H205.043V47.3608H184.951Z" fill="#4B5CBF"/>
<path d="M255.269 47.3608V10.0063H245.228V0.663574H295.453V10.0063H285.412V47.3608H255.269Z" fill="#4B5CBF"/>
<path d="M335.637 38.0181V10.0063H325.595V38.0181H335.637ZM305.503 47.3608V0.663574H355.729V47.3526H305.503V47.3608Z" fill="#4B5CBF"/>
<path d="M395.913 38.0181V28.6836H385.872V38.0181H395.913ZM395.913 19.3408V10.0063H385.872V19.3408H395.913ZM365.78 47.3608V0.663574H405.964V9.99807H416.005V38.0098H405.964V47.3443H365.78V47.3608Z" fill="#4B5CBF"/>
<path d="M426.056 47.3608V0.663574H476.281V10.0063H446.148V19.3408H466.24V28.6836H446.148V38.0181H476.281V47.3608H426.056Z" fill="#4B5CBF"/>
<path d="M516.466 28.6836V10.0063H506.424V28.6836H516.466ZM486.332 47.3608V0.663574H536.558V28.6753H526.516V38.0098H536.558V47.3443H516.466V38.0098H506.424V47.3443H486.332V47.3608Z" fill="#4B5CBF"/>
<path d="M546.608 47.3608V0.663574H596.834V10.0063H566.691V19.3408H586.783V28.6836H566.691V47.3608H546.608Z" fill="#4B5CBF"/>
<path d="M606.875 47.3608V0.663574H657.11V10.0063H626.967V19.3408H647.059V28.6836H626.967V38.0181H657.11V47.3608H606.875Z" fill="#4B5CBF"/>
<path d="M667.151 47.3608V38.0181H697.294V28.6836H667.151V0.663574H717.386V10.0063H687.243V19.3408H717.386V47.3608H667.151Z" fill="#4B5CBF"/>
<path d="M737.478 47.3608V10.0063H727.427V0.663574H777.662V10.0063H767.612V47.3608H737.478Z" fill="#4B5CBF"/>
<path d="M153.511 120.707H150.188V117.617V114.528V111.447V108.357V105.276H146.873H143.55H140.226H136.912H133.588V108.357V111.447V114.528V117.617V120.707H130.274H126.95V117.617V114.528V111.447V108.357V105.276V102.187V99.0971V96.0159V92.9265V89.8453V86.7558V83.6663H130.274H133.588V86.7558V89.8453V92.9265V96.0159V99.0971H136.912H140.226H143.55H146.873H150.188V96.0159V92.9265V89.8453V86.7558V83.6663H153.511H156.826V86.7558V89.8453V92.9265V96.0159V99.0971V102.187V105.276V108.357V111.447V114.528V117.617V120.707H153.511Z" fill="#4B5CBF"/>
<path d="M199.987 120.707H196.663H193.34H190.016H186.693H183.369V117.617H180.046V114.528V111.438V108.349V105.26V102.17V99.0806V95.9911V92.9016V89.8122V86.7227H183.369V83.6332H186.693H190.016H193.34H196.663H199.987H203.31V86.7227H206.634V89.8122V92.9016V95.9911V99.0806V102.17V105.26V108.349V111.438V114.528V117.617H203.31V120.707H199.987ZM196.672 114.528H199.996V111.438V108.349V105.26V102.17V99.0806V95.9911V92.9016V89.8122H196.672H193.349H190.025H186.702V92.9016V95.9911V99.0806V102.17V105.26V108.349V111.438V114.528H190.025H193.349H196.672Z" fill="#4B5CBF"/>
<path d="M263.071 120.707H259.748V117.617V114.528V111.447V108.357V105.276V102.187V99.0971V96.0159H256.433V99.0971H253.11V102.187H249.786H246.472H243.148V99.0971H239.834V96.0159H236.51V99.0971V102.187V105.276V108.357V111.447V114.528V117.617V120.707H233.187H229.872V117.617V114.528V111.447V108.357V105.276V102.187V99.0971V96.0159V92.9265V89.8453V86.7558V83.6663H233.187H236.51V86.7558H239.834V89.8453H243.148V92.9265H246.472V96.0159H249.786V92.9265H253.11V89.8453H256.433V86.7558H259.748V83.6663H263.071H266.386V86.7558V89.8453V92.9265V96.0159V99.0971V102.187V105.276V108.357V111.447V114.528V117.617V120.707H263.071Z" fill="#4B5CBF"/>
<path d="M312.871 120.707H309.547H306.233H302.909H299.586H296.271H292.947H289.633V117.617V114.528V111.447V108.357V105.276V102.187V99.0971V96.0159V92.9265V89.8453V86.7558V83.6663H292.947H296.271H299.586H302.909H306.233H309.547H312.871H316.185V86.7558V89.8453H312.871H309.547H306.233H302.909H299.586H296.271V92.9265V96.0159V99.0971H299.586H302.909H306.233H309.547H312.871V102.187V105.276H309.547H306.233H302.909H299.586H296.271V108.357V111.447V114.528H299.586H302.909H306.233H309.547H312.871H316.185V117.617V120.707H312.871Z" fill="#4B5CBF"/>
<path d="M379.269 120.707H375.946H372.631H369.307H365.993H362.669H359.346H356.031V117.617V114.528V111.447V108.357V105.276V102.187V99.0971V96.0159V92.9265V89.8453V86.7558V83.6663H359.346H362.669H365.993H369.307H372.631H375.946H379.269H382.593V86.7558V89.8453H379.269H375.946H372.631H369.307H365.993H362.669V92.9265V96.0159V99.0971H365.993H369.307H372.631H375.946H379.269V102.187V105.276H375.946H372.631H369.307H365.993H362.669V108.357V111.447V114.528H365.993H369.307H372.631H375.946H379.269H382.593V117.617V120.707H379.269Z" fill="#4B5CBF"/>
<path d="M429.068 120.707H425.745H422.421H419.098H415.774H412.451H409.127H405.804V117.617V114.528V111.438V108.349V105.26V102.17V99.0806V95.9911V92.9016V89.8122V86.7227V83.6332H409.127H412.451H415.774H419.098H422.421H425.745H429.068H432.392V86.7227H435.715V89.8122V92.9016V95.9911V99.0806V102.17V105.26V108.349V111.438V114.528V117.617H432.392V120.707H429.068ZM425.745 114.528H429.068V111.438V108.349V105.26V102.17V99.0806V95.9911V92.9016V89.8122H425.745H422.421H419.098H415.774H412.451V92.9016V95.9911V99.0806V102.17V105.26V108.349V111.438V114.528H415.774H419.098H422.421H425.745Z" fill="#4B5CBF"/>
<path d="M462.268 120.707H458.944V117.617V114.528V111.447V108.357V105.276V102.187V99.0971V96.0159V92.9265V89.8453V86.7558V83.6663H462.268H465.591V86.7558V89.8453V92.9265V96.0159V99.0971V102.187V105.276V108.357V111.447V114.528V117.617V120.707H462.268Z" fill="#4B5CBF"/>
<path d="M505.429 120.707H502.105V117.617V114.528V111.447V108.357V105.276V102.187V99.0971V96.0159V92.9265V89.8453H498.791H495.467H492.153H488.829V86.7558V83.6663H492.153H495.467H498.791H502.105H505.429H508.752H512.067H515.39H518.705H522.029V86.7558V89.8453H518.705H515.39H512.067H508.752V92.9265V96.0159V99.0971V102.187V105.276V108.357V111.447V114.528V117.617V120.707H505.429Z" fill="#4B5CBF"/>
<path d="M548.59 120.707H545.266V117.617V114.528V111.447V108.357V105.276V102.187V99.0971V96.0159V92.9265V89.8453V86.7558V83.6663H548.59H551.904V86.7558V89.8453V92.9265V96.0159V99.0971V102.187V105.276V108.357V111.447V114.528V117.617V120.707H548.59Z" fill="#4B5CBF"/>
<path d="M595.065 120.707H591.742H588.418H585.095H581.771H578.448V117.617H575.125V114.528V111.438V108.349V105.26V102.17V99.0806V95.9911V92.9016V89.8122V86.7227H578.448V83.6332H581.771H585.095H588.418H591.742H595.065H598.389V86.7227H601.712V89.8122V92.9016V95.9911V99.0806V102.17V105.26V108.349V111.438V114.528V117.617H598.389V120.707H595.065ZM591.751 114.528H595.074V111.438V108.349V105.26V102.17V99.0806V95.9911V92.9016V89.8122H591.751H588.427H585.104H581.78V92.9016V95.9911V99.0806V102.17V105.26V108.349V111.438V114.528H585.104H588.427H591.751Z" fill="#4B5CBF"/>
<path d="M651.512 120.707H648.188V117.617V114.528V111.447V108.357H644.864V105.276H641.55V102.187H638.226V99.0971H634.912V96.0159H631.588V99.0971V102.187V105.276V108.357V111.447V114.528V117.617V120.707H628.265H624.95V117.617V114.528V111.447V108.357V105.276V102.187V99.0971V96.0159V92.9265V89.8453V86.7558V83.6663H628.265H631.588V86.7558H634.912V89.8453H638.226V92.9265H641.55V96.0159H644.864V99.0971H648.188V96.0159V92.9265V89.8453V86.7558V83.6663H651.512H654.826V86.7558V89.8453V92.9265V96.0159V99.0971V102.187V105.276V108.357V111.447V114.528V117.617V120.707H651.512Z" fill="#4B5CBF"/>
<path d="M305.726 47.3608V0.663574H355.951V47.3608H305.726Z" fill="#4B5CBF"/>
<path fill-rule="evenodd" clip-rule="evenodd" d="M319.384 35.7878H327.017V28.6754H334.669V35.7878H342.293V26.2303H344.906V23.9173H342.293V21.5713H339.778V19.2583H337.201V16.9371H334.642V14.6241H332.127V12.2368H329.559V14.6241H327.044V16.9371H324.476V19.2583H321.899V21.5713H319.384V23.9173H316.771V26.2303H319.384V35.7878Z" fill="#4B5CBF"/>
<path d="M0 47.3608V0.663574H20.092V28.6836H30.1425V0.663574H50.2345V47.3608H30.1425V38.0181H20.092V47.3608H0Z" fill="#B6B9F2"/>
<path d="M90.4184 28.6836V10.0063H80.3768V28.6836H90.4184ZM60.2759 47.3608V0.663574H110.502V47.3526H90.4095V38.0181H80.3679V47.3526H60.2759V47.3608Z" fill="#B6B9F2"/>
<path d="M120.552 47.3608V0.663574H170.787V10.0063H140.644V38.0181H170.787V47.3608H120.552Z" fill="#B6B9F2"/>
<path d="M180.828 47.3608V0.663574H200.92V19.3408H210.971V0.663574H231.054V19.3408H221.012V28.6836H231.054V47.3608H210.971V38.0181H200.92V47.3608H180.828Z" fill="#B6B9F2"/>
<path d="M251.146 47.3608V10.0063H241.104V0.663574H291.33V10.0063H281.289V47.3608H251.146Z" fill="#B6B9F2"/>
<path d="M331.514 38.0181V10.0063H321.472V38.0181H331.514ZM301.38 47.3608V0.663574H351.606V47.3526H301.38V47.3608Z" fill="#B6B9F2"/>
<path d="M391.79 38.0181V28.6836H381.749V38.0181H391.79ZM391.79 19.3408V10.0063H381.749V19.3408H391.79ZM361.657 47.3608V0.663574H401.841V9.99807H411.882V38.0098H401.841V47.3443H361.657V47.3608Z" fill="#B6B9F2"/>
<path d="M421.933 47.3608V0.663574H472.158V10.0063H442.025V19.3408H462.117V28.6836H442.025V38.0181H472.158V47.3608H421.933Z" fill="#B6B9F2"/>
<path d="M512.343 28.6836V10.0063H502.301V28.6836H512.343ZM482.209 47.3608V0.663574H532.435V28.6753H522.393V38.0098H532.435V47.3443H512.343V38.0098H502.301V47.3443H482.209V47.3608Z" fill="#B6B9F2"/>
<path d="M542.485 47.3608V0.663574H592.711V10.0063H562.568V19.3408H582.66V28.6836H562.568V47.3608H542.485Z" fill="#B6B9F2"/>
<path d="M602.752 47.3608V0.663574H652.987V10.0063H622.844V19.3408H642.936V28.6836H622.844V38.0181H652.987V47.3608H602.752Z" fill="#B6B9F2"/>
<path d="M663.028 47.3608V38.0181H693.171V28.6836H663.028V0.663574H713.263V10.0063H683.12V19.3408H713.263V47.3608H663.028Z" fill="#B6B9F2"/>
<path d="M733.355 47.3608V10.0063H723.304V0.663574H773.539V10.0063H763.489V47.3608H733.355Z" fill="#B6B9F2"/>
<path d="M149.388 120.707H146.065V117.617V114.528V111.447V108.357V105.276H142.75H139.427H136.103H132.789H129.465V108.357V111.447V114.528V117.617V120.707H126.151H122.827V117.617V114.528V111.447V108.357V105.276V102.187V99.0971V96.0159V92.9265V89.8453V86.7558V83.6663H126.151H129.465V86.7558V89.8453V92.9265V96.0159V99.0971H132.789H136.103H139.427H142.75H146.065V96.0159V92.9265V89.8453V86.7558V83.6663H149.388H152.703V86.7558V89.8453V92.9265V96.0159V99.0971V102.187V105.276V108.357V111.447V114.528V117.617V120.707H149.388Z" fill="#B6B9F2"/>
<path d="M195.864 120.707H192.54H189.217H185.893H182.57H179.246V117.617H175.923V114.528V111.438V108.349V105.26V102.17V99.0806V95.9911V92.9016V89.8122V86.7227H179.246V83.6332H182.57H185.893H189.217H192.54H195.864H199.187V86.7227H202.511V89.8122V92.9016V95.9911V99.0806V102.17V105.26V108.349V111.438V114.528V117.617H199.187V120.707H195.864ZM192.549 114.528H195.873V111.438V108.349V105.26V102.17V99.0806V95.9911V92.9016V89.8122H192.549H189.226H185.902H182.579V92.9016V95.9911V99.0806V102.17V105.26V108.349V111.438V114.528H185.902H189.226H192.549Z" fill="#B6B9F2"/>
<path d="M258.948 120.707H255.625V117.617V114.528V111.447V108.357V105.276V102.187V99.0971V96.0159H252.31V99.0971H248.987V102.187H245.663H242.349H239.025V99.0971H235.711V96.0159H232.387V99.0971V102.187V105.276V108.357V111.447V114.528V117.617V120.707H229.064H225.749V117.617V114.528V111.447V108.357V105.276V102.187V99.0971V96.0159V92.9265V89.8453V86.7558V83.6663H229.064H232.387V86.7558H235.711V89.8453H239.025V92.9265H242.349V96.0159H245.663V92.9265H248.987V89.8453H252.31V86.7558H255.625V83.6663H258.948H262.263V86.7558V89.8453V92.9265V96.0159V99.0971V102.187V105.276V108.357V111.447V114.528V117.617V120.707H258.948Z" fill="#B6B9F2"/>
<path d="M308.748 120.707H305.424H302.109H298.786H295.462H292.148H288.824H285.51V117.617V114.528V111.447V108.357V105.276V102.187V99.0971V96.0159V92.9265V89.8453V86.7558V83.6663H288.824H292.148H295.462H298.786H302.109H305.424H308.748H312.062V86.7558V89.8453H308.748H305.424H302.109H298.786H295.462H292.148V92.9265V96.0159V99.0971H295.462H298.786H302.109H305.424H308.748V102.187V105.276H305.424H302.109H298.786H295.462H292.148V108.357V111.447V114.528H295.462H298.786H302.109H305.424H308.748H312.062V117.617V120.707H308.748Z" fill="#B6B9F2"/>
<path d="M375.146 120.707H371.823H368.508H365.184H361.87H358.546H355.223H351.908V117.617V114.528V111.447V108.357V105.276V102.187V99.0971V96.0159V92.9265V89.8453V86.7558V83.6663H355.223H358.546H361.87H365.184H368.508H371.823H375.146H378.47V86.7558V89.8453H375.146H371.823H368.508H365.184H361.87H358.546V92.9265V96.0159V99.0971H361.87H365.184H368.508H371.823H375.146V102.187V105.276H371.823H368.508H365.184H361.87H358.546V108.357V111.447V114.528H361.87H365.184H368.508H371.823H375.146H378.47V117.617V120.707H375.146Z" fill="#B6B9F2"/>
<path d="M424.945 120.707H421.622H418.298H414.975H411.651H408.328H405.004H401.681V117.617V114.528V111.438V108.349V105.26V102.17V99.0806V95.9911V92.9016V89.8122V86.7227V83.6332H405.004H408.328H411.651H414.975H418.298H421.622H424.945H428.269V86.7227H431.592V89.8122V92.9016V95.9911V99.0806V102.17V105.26V108.349V111.438V114.528V117.617H428.269V120.707H424.945ZM421.622 114.528H424.945V111.438V108.349V105.26V102.17V99.0806V95.9911V92.9016V89.8122H421.622H418.298H414.975H411.651H408.328V92.9016V95.9911V99.0806V102.17V105.26V108.349V111.438V114.528H411.651H414.975H418.298H421.622Z" fill="#B6B9F2"/>
<path d="M458.145 120.707H454.821V117.617V114.528V111.447V108.357V105.276V102.187V99.0971V96.0159V92.9265V89.8453V86.7558V83.6663H458.145H461.468V86.7558V89.8453V92.9265V96.0159V99.0971V102.187V105.276V108.357V111.447V114.528V117.617V120.707H458.145Z" fill="#B6B9F2"/>
<path d="M501.306 120.707H497.982V117.617V114.528V111.447V108.357V105.276V102.187V99.0971V96.0159V92.9265V89.8453H494.668H491.344H488.03H484.706V86.7558V83.6663H488.03H491.344H494.668H497.982H501.306H504.629H507.944H511.267H514.582H517.905V86.7558V89.8453H514.582H511.267H507.944H504.629V92.9265V96.0159V99.0971V102.187V105.276V108.357V111.447V114.528V117.617V120.707H501.306Z" fill="#B6B9F2"/>
<path d="M544.467 120.707H541.143V117.617V114.528V111.447V108.357V105.276V102.187V99.0971V96.0159V92.9265V89.8453V86.7558V83.6663H544.467H547.781V86.7558V89.8453V92.9265V96.0159V99.0971V102.187V105.276V108.357V111.447V114.528V117.617V120.707H544.467Z" fill="#B6B9F2"/>
<path d="M590.942 120.707H587.619H584.295H580.972H577.648H574.325V117.617H571.001V114.528V111.438V108.349V105.26V102.17V99.0806V95.9911V92.9016V89.8122V86.7227H574.325V83.6332H577.648H580.972H584.295H587.619H590.942H594.266V86.7227H597.589V89.8122V92.9016V95.9911V99.0806V102.17V105.26V108.349V111.438V114.528V117.617H594.266V120.707H590.942ZM587.628 114.528H590.951V111.438V108.349V105.26V102.17V99.0806V95.9911V92.9016V89.8122H587.628H584.304H580.981H577.657V92.9016V95.9911V99.0806V102.17V105.26V108.349V111.438V114.528H580.981H584.304H587.628Z" fill="#B6B9F2"/>
<path d="M647.388 120.707H644.065V117.617V114.528V111.447V108.357H640.741V105.276H637.427V102.187H634.103V99.0971H630.789V96.0159H627.465V99.0971V102.187V105.276V108.357V111.447V114.528V117.617V120.707H624.142H620.827V117.617V114.528V111.447V108.357V105.276V102.187V99.0971V96.0159V92.9265V89.8453V86.7558V83.6663H624.142H627.465V86.7558H630.789V89.8453H634.103V92.9265H637.427V96.0159H640.741V99.0971H644.065V96.0159V92.9265V89.8453V86.7558V83.6663H647.388H650.703V86.7558V89.8453V92.9265V96.0159V99.0971V102.187V105.276V108.357V111.447V114.528V117.617V120.707H647.388Z" fill="#B6B9F2"/>
<path d="M301.603 47.3608V0.663574H351.828V47.3608H301.603Z" fill="#B6B9F2"/>
<path fill-rule="evenodd" clip-rule="evenodd" d="M315.261 35.7878H322.894V28.6754H330.546V35.7878H338.17V26.2303H340.783V23.9173H338.17V21.5713H335.655V19.2583H333.078V16.9371H330.519V14.6241H328.004V12.2368H325.436V14.6241H322.921V16.9371H320.353V19.2583H317.776V21.5713H315.261V23.9173H312.648V26.2303H315.261V35.7878Z" fill="#182466"/>
</svg>
