<svg id="Camada_1" data-name="Camada 1" xmlns="http://www.w3.org/2000/svg" viewBox="0 0 500 500"><defs><style>.cls-1,.cls-2{fill:none;stroke:#29677c;stroke-miterlimit:10;}.cls-1{stroke-width:12px;}.cls-2{stroke-width:11px;}</style></defs><title>GitHub Blue</title><path class="cls-1" d="M369.81,52.39H150.19L40.38,242.59l109.81,190.2H369.81l109.81-190.2Z"/><g id="Layer_1"><path class="cls-2" d="M216.62,426.66c0-5.31-.11-14.76-.18-26.48-55.72,10.11-68.73-29-69.26-30.7-8.87-22.41-21.06-28.12-21.09-28.14l-.46-.26c-28.08-19.19,3.28-18.79,3.37-18.79h.21c22,1.55,33.66,21.8,34.3,22.93h0c6.68,11.44,14.89,17.08,23.06,19.41,11.84,3.38,23.78,0,30.83-3a57.18,57.18,0,0,1,4.6-15,42.53,42.53,0,0,1,4.55-7.56c-21.28-3-42.6-9.18-59.26-23.21-18.48-15.55-31-40.55-31-81.19h0a86.06,86.06,0,0,1,5.56-31.07A83.2,83.2,0,0,1,157,178.69a67.46,67.46,0,0,1-3.47-17.62,85.83,85.83,0,0,1,6.24-37.44l.14-.27A11.07,11.07,0,0,1,166,121a43.51,43.51,0,0,1,10.73,1c9.35,1.9,23.69,7.09,43.48,20.3a191,191,0,0,1,24.08-4.8,209.25,209.25,0,0,1,26.88-1.84h0a209.07,209.07,0,0,1,26.86,1.84,192.06,192.06,0,0,1,24.1,4.8c39.78-26.57,58.12-20.71,58.17-20.69l1.6.47.62,1.56a85.51,85.51,0,0,1,6.28,37.42,67.31,67.31,0,0,1-3.45,17.63,82.67,82.67,0,0,1,15.1,24.9,86.32,86.32,0,0,1,5.56,31.12c0,40.76-12.54,65.74-31.06,81.24-16.67,14-38,20-59.34,23A45.62,45.62,0,0,1,322.13,351,68.11,68.11,0,0,1,326,374.52c0,16.53-.13,33.72-.21,45.1,0,4.18-.05,7.3-.05,11.42"/></g></svg>