<?xml version="1.0" encoding="UTF-8" standalone="no"?>
<!-- Created with Inkscape (http://www.inkscape.org/) -->

<svg
   xmlns:dc="http://purl.org/dc/elements/1.1/"
   xmlns:cc="http://creativecommons.org/ns#"
   xmlns:rdf="http://www.w3.org/1999/02/22-rdf-syntax-ns#"
   xmlns:svg="http://www.w3.org/2000/svg"
   xmlns="http://www.w3.org/2000/svg"
   xmlns:sodipodi="http://sodipodi.sourceforge.net/DTD/sodipodi-0.dtd"
   xmlns:inkscape="http://www.inkscape.org/namespaces/inkscape"
   version="1.1"
   id="svg4122"
   width="1333.3333"
   height="1333.3333"
   viewBox="0 0 1333.3333 1333.3333"
   sodipodi:docname="hexagon.svg"
   inkscape:version="0.92.3 (2405546, 2018-03-11)">
  <metadata
     id="metadata4128">
    <rdf:RDF>
      <cc:Work
         rdf:about="">
        <dc:format>image/svg+xml</dc:format>
        <dc:type
           rdf:resource="http://purl.org/dc/dcmitype/StillImage" />
        <dc:title></dc:title>
      </cc:Work>
    </rdf:RDF>
  </metadata>
  <defs
     id="defs4126" />
  <sodipodi:namedview
     pagecolor="#ffffff"
     bordercolor="#666666"
     borderopacity="1"
     objecttolerance="10"
     gridtolerance="10"
     guidetolerance="10"
     inkscape:pageopacity="0"
     inkscape:pageshadow="2"
     inkscape:window-width="1920"
     inkscape:window-height="990"
     id="namedview4124"
     showgrid="false"
     inkscape:zoom="0.29962502"
     inkscape:cx="-65.609778"
     inkscape:cy="518.76085"
     inkscape:window-x="0"
     inkscape:window-y="0"
     inkscape:window-maximized="1"
     inkscape:current-layer="svg4122" />
  <path
     style="fill:#f0f0f0;stroke-width:1.33333325;fill-opacity:1"
     d="m 677.36666,1283.2287 c -10.6903,-1.9102 -22.5926,-5.2279 -30.4076,-8.4758 -8.3578,-3.4735 -431.22513,-246.8671 -446.72176,-257.1237 -22.60829,-14.9635 -41.30124,-42.13019 -48.54601,-70.55239 l -2.99125,-11.7352 V 673.34166 411.34167 l 3.04299,-12 c 6.13878,-24.20822 21.92579,-49.2012 40.63247,-64.32677 9.87264,-7.98267 440.53096,-257.243723 454.43716,-263.024053 16.6254,-6.91058 25.6005,-8.56107 46.554,-8.56107 20.9536,0 29.9287,1.65049 46.5541,8.56107 13.9062,5.78033 444.56454,255.041383 454.43714,263.024053 18.7067,15.12557 34.4937,40.11855 40.6325,64.32677 l 3.043,12 v 261.99999 261.99995 l -2.9913,11.7352 c -7.2447,28.4222 -25.9377,55.58889 -48.546,70.55239 -14.3505,9.4981 -438.04474,253.5348 -445.79604,256.7669 -14.864,6.1978 -25.7677,8.4503 -43.3334,8.9521 -9.1666,0.2619 -18.1666,0.2081 -20,-0.1195 z"
     id="path4132"
     inkscape:connector-curvature="0"
     sodipodi:nodetypes="scsccccsscsccscccccccs" />
</svg>
