<svg xmlns="http://www.w3.org/2000/svg" viewBox="0 0 1000 1000"><defs><style>.cls-1,.cls-2,.cls-4{fill:none;stroke-miterlimit:10;}.cls-1,.cls-2{stroke:#29677c;}.cls-1{stroke-width:30px;}.cls-2{stroke-width:25px;}.cls-3{fill:#41c2ef;}.cls-4{stroke:#fff;stroke-width:10px;}.cls-5{fill:#94b4c7;}.cls-6{fill:#6a97b0;}.cls-7{fill:#316e92;}.cls-8{fill:#07a0b8;}.cls-9{fill:#7ca3ba;}.cls-10{fill:#6190ac;}.cls-11{fill:#4b81a0;}.cls-12{fill:#3d8499;}.cls-13{fill:#5d8da9;}.cls-14{fill:#3e7899;}.cls-15{fill:#427b9b;}.cls-16{fill:#357194;}.cls-17{fill:#80a6bc;}.cls-18{fill:#6f9ab3;}.cls-19{fill:#4d82a1;}.cls-20{fill:#7aa2b9;}.cls-21{fill:#21638a;}</style></defs><title>OpenDevUFCG</title><g id="Camada_3" data-name="Camada 3"><path class="cls-1" d="M507.76,548V419.14a10,10,0,0,0-5-8.66L391.19,346.06a10,10,0,0,0-10,0L269.61,410.48a10,10,0,0,0-5,8.66V548a10,10,0,0,0,5,8.66l111.58,64.42a10,10,0,0,0,10,0l111.57-64.42A10,10,0,0,0,507.76,548Z"/><path class="cls-2" d="M735.39,367.31V287.25a5,5,0,0,0-2.5-4.33l-69.34-40a5,5,0,0,0-5,0l-69.33,40a5,5,0,0,0-2.5,4.33v80.06a5,5,0,0,0,2.5,4.33l69.33,40a5,5,0,0,0,5,0l69.34-40A5,5,0,0,0,735.39,367.31Z"/><line class="cls-2" x1="505.6" y1="417.03" x2="596.42" y2="364.59"/><path class="cls-2" d="M480.83,225.22V145.16a5,5,0,0,0-2.5-4.33L409,100.8a5,5,0,0,0-5,0l-69.34,40a5,5,0,0,0-2.5,4.33v80.06a5,5,0,0,0,2.5,4.33l69.34,40a5,5,0,0,0,5,0l69.33-40A5,5,0,0,0,480.83,225.22Z"/><line class="cls-2" x1="587.71" y1="289.81" x2="473.6" y2="223.93"/><path class="cls-3" d="M474.69,531.3V440.65a10,10,0,0,0-5-8.66l-78.5-45.33a10,10,0,0,0-10,0L302.68,432a10,10,0,0,0-5,8.66V531.3a10,10,0,0,0,5,8.66l78.51,45.32a10,10,0,0,0,10,0L469.69,540A10,10,0,0,0,474.69,531.3Z"/><path class="cls-3" d="M543.85,343.62V310.93a3,3,0,0,0-1.5-2.6L514,292a3,3,0,0,0-3,0l-28.31,16.34a3,3,0,0,0-1.5,2.6v32.69a3,3,0,0,0,1.5,2.6L511,362.57a3,3,0,0,0,3,0l28.32-16.35A3,3,0,0,0,543.85,343.62Z"/><polygon class="cls-3" points="710.98 355.88 710.98 298.68 661.05 270.08 611.12 298.68 611.12 355.88 661.05 384.48 710.98 355.88"/><path class="cls-4" d="M390.28,567l64-37a8.18,8.18,0,0,0,4.09-7.09V449a8.18,8.18,0,0,0-4.09-7.08l-64-37"/><path class="cls-5" d="M299,738.52a17.27,17.27,0,0,0-.8-5.22,17.57,17.57,0,0,0-2.26-4.6,18.33,18.33,0,0,0-8-6.46,18.71,18.71,0,0,0-17.42,1.65,18,18,0,0,0-6.58,7.8,17.23,17.23,0,0,0-1.4,6.83H246.25a33.07,33.07,0,0,1,1.56-10.13,33.81,33.81,0,0,1,4.37-8.9,34.45,34.45,0,0,1,15.17-12.23,34.84,34.84,0,0,1,13.36-2.65h0a34.73,34.73,0,0,1,19.2,5.75,34.12,34.12,0,0,1,12.52,14.9,33.22,33.22,0,0,1,2.74,13.26Z"/><path class="cls-6" d="M315.18,738.52a8.11,8.11,0,1,1-16.22,0h0c0,9.83-8.23,17.68-18.25,17.68s-18.24-7.94-18.24-17.68h0a8.11,8.11,0,1,1-16.22,0c0,18.67,15.39,33.9,34.46,33.9h0c19,0,34.47-15.18,34.47-33.9"/><path class="cls-7" d="M254.36,730.41a8.11,8.11,0,0,0-8.11,8.11h0a8.11,8.11,0,1,0,16.22,0h0a8.12,8.12,0,0,0-8.11-8.11"/><path class="cls-8" d="M307.07,730.41a8.11,8.11,0,0,0-8.11,8.11h0a8.11,8.11,0,1,0,16.22,0h0a8.11,8.11,0,0,0-8.11-8.11"/><polyline class="cls-9" points="325.52 715.48 325.52 789.03 341.75 789.03 341.75 715.48"/><path class="cls-10" d="M358.42,706.92a32.69,32.69,0,0,0-17.48,5,8,8,0,0,1,.81,3.52V768a32.79,32.79,0,1,0,16.67-61m0,49.47a16.68,16.68,0,1,1,16.68-16.68,16.67,16.67,0,0,1-16.68,16.68"/><path class="cls-11" d="M340.94,712a32.8,32.8,0,0,0,.81,56V715.48a8,8,0,0,0-.81-3.52"/><path class="cls-5" d="M325.53,789a8.11,8.11,0,1,1,8.11,8.11A8.11,8.11,0,0,1,325.53,789Z"/><path class="cls-7" d="M325.53,715.43a8.11,8.11,0,1,1,8.11,8.11A8.11,8.11,0,0,1,325.53,715.43Z"/><path class="cls-5" d="M417.74,738.06h0a20.62,20.62,0,0,0,1.53,8,14.83,14.83,0,0,0,8.31,8.21,21.46,21.46,0,0,0,8.11,1.43h0a18.22,18.22,0,0,0,6.45-1.28,19.17,19.17,0,0,0,5.78-3.5L458.77,763a35.12,35.12,0,0,1-10.72,6.54,34.13,34.13,0,0,1-12.36,2.38h0a38.68,38.68,0,0,1-12.13-1.86,32,32,0,0,1-10-5.43,30.49,30.49,0,0,1-5.14-5.27,32.49,32.49,0,0,1-4.64-8.49,37.34,37.34,0,0,1-2.21-12.83Z"/><path class="cls-10" d="M434.1,704.18h0c-17.77,0-32.54,15.21-32.54,33.88h16.22c0-9.81,7.59-17.66,16.33-17.66,7.18,0,12.51,3.69,15.09,9.55L467,738.06c0-18.9-13.67-33.88-32.92-33.88"/><path class="cls-12" d="M409.63,730a8.11,8.11,0,0,0-8.1,8.11h0a8.11,8.11,0,1,0,8.11-8.11"/><path class="cls-13" d="M449.16,730H430.85a8.11,8.11,0,0,0,0,16.22h28.06Z"/><path class="cls-14" d="M458.91,730h-9.75l.06.14a20.16,20.16,0,0,1,1.58,8,8.11,8.11,0,0,0,8.11,8.11h0a8.12,8.12,0,0,0,8.11-8.11h0a8.12,8.12,0,0,0-8.11-8.11"/><circle class="cls-9" cx="453.36" cy="756.98" r="8.11"/><path class="cls-5" d="M485.48,770.29a8.11,8.11,0,0,1-8.11-8.11v-50a8.11,8.11,0,1,1,16.22,0v50a8.12,8.12,0,0,1-8.11,8.11Z"/><path class="cls-13" d="M536.6,733.22c0-22.34-24.58-36.09-44.17-25.25a8.12,8.12,0,0,1,1.16,4.18v21.07c0-14.46,21.73-17.84,26.21-3.76a12.91,12.91,0,0,1,.58,3.76Z"/><path class="cls-15" d="M492.43,708a29.66,29.66,0,0,0-9.93,8.93,28.61,28.61,0,0,0-3.78,7.63,28.21,28.21,0,0,0-1.35,8.69,8.11,8.11,0,1,0,16.22,0V712.15a8.12,8.12,0,0,0-1.16-4.18"/><rect class="cls-10" x="520.38" y="733.22" width="16.19" height="29.67"/><path class="cls-14" d="M528.49,725.11a8.11,8.11,0,0,0-8.11,8.11h0a8.11,8.11,0,0,0,16.22,0h0a8.12,8.12,0,0,0-8.11-8.11"/><circle class="cls-9" cx="528.49" cy="762.23" r="8.11"/><path class="cls-7" d="M477.37,762.23a8.11,8.11,0,1,1,8.11,8.11A8.11,8.11,0,0,1,477.37,762.23Z"/><rect class="cls-10" x="597.2" y="689" width="16.22" height="73.55"/><path class="cls-13" d="M597.2,709.69a32.27,32.27,0,0,0-17.45-5.1,32.67,32.67,0,0,0-27.27,14.82c-14.53,22,.87,52.09,27.29,52.09a32.31,32.31,0,0,0,18.17-5.58Zm-17.44,45.59h0c-9.16,0-16.62-7.68-16.62-17.24,0-17,21.2-23.61,30.37-9.7,7.53,11.43-.43,26.94-13.75,26.94"/><path class="cls-16" d="M597.2,709.69c0,57.61-.28,54,.74,56.23,19.9-13.48,19.42-43.35-.74-56.23"/><circle class="cls-8" cx="605.31" cy="689" r="8.11"/><circle class="cls-5" cx="605.31" cy="762.6" r="8.11"/><path class="cls-5" d="M640,738.06h0a20.62,20.62,0,0,0,1.53,8,14.83,14.83,0,0,0,8.31,8.21,21.46,21.46,0,0,0,8.11,1.43h0a18.22,18.22,0,0,0,6.45-1.28,19.17,19.17,0,0,0,5.78-3.5L681,763a35.12,35.12,0,0,1-10.72,6.54,34.21,34.21,0,0,1-12.36,2.38h0a38.68,38.68,0,0,1-12.13-1.86,31.91,31.91,0,0,1-10-5.43,30.49,30.49,0,0,1-5.14-5.27,32.49,32.49,0,0,1-4.64-8.49,37.34,37.34,0,0,1-2.21-12.83Z"/><path class="cls-10" d="M656.34,704.18h0c-17.77,0-32.54,15.21-32.54,33.88H640c0-9.81,7.58-17.66,16.33-17.66,7.18,0,12.51,3.69,15.09,9.55l17.85,8.11c0-18.9-13.66-33.88-32.91-33.88"/><path class="cls-12" d="M631.87,730a8.12,8.12,0,0,0-8.11,8.11h0a8.11,8.11,0,1,0,8.11-8.11"/><path class="cls-13" d="M671.4,730H653.09a8.11,8.11,0,0,0,0,16.22h28Z"/><path class="cls-14" d="M681.14,730H671.4l.06.14a20.16,20.16,0,0,1,1.57,8,8.12,8.12,0,0,0,8.11,8.11h0a8.11,8.11,0,0,0,8.11-8.11h0a8.11,8.11,0,0,0-8.11-8.11"/><circle class="cls-9" cx="675.6" cy="756.98" r="8.11"/><polygon class="cls-8" points="733.59 765.69 756.99 717.06 742.38 710.03 726.26 743.51 733.59 765.69"/><polygon class="cls-17" points="726.26 743.51 710.14 710.03 695.53 717.06 718.93 765.67 726.26 743.51"/><path class="cls-18" d="M726.26,743.51l7.31,15.18c3.7,7.68-5.57,15.13-12.32,9.9a8.12,8.12,0,0,1-2.3-9.9l7.31-15.18"/><path class="cls-8" d="M694.73,713.55a8.11,8.11,0,1,1,8.11,8.11A8.11,8.11,0,0,1,694.73,713.55Z"/><path class="cls-10" d="M718.15,762.21a8.11,8.11,0,1,1,8.11,8.11A8.11,8.11,0,0,1,718.15,762.21Z"/><circle class="cls-7" cx="749.69" cy="713.55" r="8.11" transform="translate(-15.21 1410.76) rotate(-85.93)"/><path class="cls-10" d="M331.73,823.69a10.75,10.75,0,0,1,10.75,10.75v66.28a10.75,10.75,0,1,1-21.49,0V834.44A10.74,10.74,0,0,1,331.73,823.69Z"/><path class="cls-5" d="M264,872.8c0,29.61,32.56,47.83,58.52,33.46a10.74,10.74,0,0,1-1.53-5.54V872.8c0,19.16-28.8,23.64-34.73,5a16.23,16.23,0,0,1-.77-5Z"/><path class="cls-12" d="M322.52,906.26a39.1,39.1,0,0,0,13.15-11.83,37.75,37.75,0,0,0,6.81-21.63,10.75,10.75,0,0,0-21.49,0v27.92a10.74,10.74,0,0,0,1.53,5.54"/><rect class="cls-7" x="264.04" y="833.49" width="21.45" height="39.31"/><path class="cls-14" d="M274.75,883.55a10.74,10.74,0,0,0,10.74-10.75h0a10.75,10.75,0,0,0-21.49,0h0a10.75,10.75,0,0,0,10.75,10.75"/><circle class="cls-10" cx="274.75" cy="834.37" r="10.75"/><circle class="cls-8" cx="331.73" cy="834.37" r="10.75"/><path class="cls-10" d="M441.54,812c-5.72-.77-9.84-.06-11.93,1.66-2.31,1.91-2.07,7.5-2.07,7.5v78.47H406.05v-78.1c0-3.15-.21-14.79,8.58-23.28,7-6.74,17-9.28,29.79-7.55L441.54,812"/><path class="cls-13" d="M442.39,827.16H427.54v21.49h14.85a10.75,10.75,0,0,0,0-21.49m-36.34,0h-6.54a10.75,10.75,0,1,0,0,21.49h6.54V827.16"/><polyline class="cls-16" points="427.54 827.16 406.05 827.16 406.05 848.65 427.54 848.65 427.54 827.16"/><circle class="cls-5" cx="416.79" cy="899.66" r="10.75" transform="translate(-312.56 227.98) rotate(-22.5)"/><circle class="cls-8" cx="442.39" cy="837.91" r="10.75" transform="translate(-286.98 233.08) rotate(-22.5)"/><circle class="cls-19" cx="442.98" cy="801.38" r="10.75"/><path class="cls-16" d="M566,849.5c-15.52-14-41.22-3.48-41.23,17.22H503.24c0-39.41,47.86-59.47,77.09-33.2Z"/><path class="cls-10" d="M565.63,884.24a24.49,24.49,0,0,1-7.44,4.43,25.57,25.57,0,0,1-18.58-.26,24.45,24.45,0,0,1-10.78-8.63,23,23,0,0,1-3-6.12,22.65,22.65,0,0,1-1.08-6.94H503.24a44.09,44.09,0,0,0,3.66,17.64,45.37,45.37,0,0,0,16.72,19.8,46.21,46.21,0,0,0,12,5.62,46.7,46.7,0,0,0,13.59,2h0a47,47,0,0,0,16.55-3,46.19,46.19,0,0,0,13.92-8.3Z"/><path class="cls-20" d="M514,856a10.74,10.74,0,0,0-10.74,10.74h0a10.75,10.75,0,1,0,21.49,0h0A10.74,10.74,0,0,0,514,856"/><circle class="cls-9" cx="572.67" cy="892.34" r="10.75"/><circle class="cls-10" cx="573.15" cy="841.51" r="10.75"/><path class="cls-9" d="M696.79,903.36h0a8.06,8.06,0,0,1-.1,1c-1.06,7.46-5.77,13.93-14,15.94l5.11,20.88c15.5-3.79,25.67-15.3,29.3-29.62,1.55-6.17,1.15-5.37,1.15-43.09V837.33h-21.5Z"/><path class="cls-10" d="M644.12,912.72c6.38,0,6.16,4.15,17.09,7,7.56,2,16.26,1.89,21.52.6l5,20.9c-14.36,3.47-35.91,1.46-50.1-9.16Z"/><path class="cls-11" d="M685.29,920a10.79,10.79,0,0,0-2.56.31h0a10.75,10.75,0,0,0,2.55,21.19,11.27,11.27,0,0,0,2.49-.29l.07,0A10.75,10.75,0,0,0,685.29,920"/><path class="cls-7" d="M675,826.47c-31.34,0-52,29.86-39.71,56.17,10.49,22.44,39.49,30.58,61.46,18.73V867.86c-.72,9.56-10.06,17.44-21.75,17.44h0c-7.76,0-14.52-3.49-18.37-8.65-11.69-15.64,7.77-34.51,27.2-27.09,6.91,2.64,12.37,8.54,12.92,15.84V837.33h0a10.78,10.78,0,0,1,1.13-4.81,45.72,45.72,0,0,0-22.88-6m43.25,38.27v3.78c0-.63,0-1.26,0-1.89s0-1.26,0-1.89"/><path class="cls-21" d="M697.92,832.52a10.78,10.78,0,0,0-1.13,4.81h0V865.4c0,.41.05.82.05,1.23s0,.83-.05,1.23v33.51a42.37,42.37,0,0,0,13.85-11.86,38.85,38.85,0,0,0,5.64-10.63,37.69,37.69,0,0,0,2-10.36v-3.78a37.72,37.72,0,0,0-3.53-14.11,39.6,39.6,0,0,0-6.67-10,42.59,42.59,0,0,0-10.17-8.16"/><path class="cls-10" d="M696.79,837.33a10.75,10.75,0,1,1,10.75,10.74,10.75,10.75,0,0,1-10.75-10.74Z"/><path class="cls-8" d="M633.37,923.47a10.75,10.75,0,1,1,10.74,10.74A10.74,10.74,0,0,1,633.37,923.47Z"/><polygon class="cls-3" points="456.43 213.79 456.43 156.59 406.5 127.99 356.57 156.59 356.57 213.79 406.5 242.39 456.43 213.79"/></g></svg>