<svg id="Camada_1" data-name="Camada 1" xmlns="http://www.w3.org/2000/svg" viewBox="0 0 827.48 402.94"><defs><style>.cls-1{font-size:247.08px;font-family:AvertaDemoPE-ExtraboldItalic, Averta Demo PE;font-weight:700;font-style:italic;}.cls-1,.cls-4{fill:#1e1b16;}.cls-2{letter-spacing:0em;}.cls-3{letter-spacing:0em;}</style></defs><title>IssueAiSVG</title><text class="cls-1" transform="translate(-5.28 396.13)">Is<tspan class="cls-2" x="179.87" y="0">s</tspan><tspan x="282.65" y="0">u</tspan><tspan class="cls-3" x="415.82" y="0">e</tspan><tspan x="532.69" y="0">Ai!</tspan></text><path class="cls-4" d="M417.61,163.87a7.78,7.78,0,0,0,0,15.56h.65a7.78,7.78,0,1,0,0-15.56Z"/><path class="cls-4" d="M444.65,163.87a7.78,7.78,0,1,0,0,15.56h.65a7.78,7.78,0,0,0,0-15.56Z"/><path class="cls-4" d="M635.83,2.18H516.59c-20.74,0-37.93,16.66-37.93,37.4V92.1H397.14a37.88,37.88,0,0,0-37.8,37.68v87.59c0,20.74,17.06,37.28,37.8,37.28H506.85L541,286a7.84,7.84,0,0,0,5.25,2.12,7.54,7.54,0,0,0,3.08-.62,7.69,7.69,0,0,0,4.59-7.08v-91.6a7.78,7.78,0,1,0-15.56,0v74l-23.27-21.44a7.78,7.78,0,0,0-5.19-2.2H397.14c-12.16,0-22.24-9.56-22.24-21.72V129.78a22.29,22.29,0,0,1,22.24-22.11h81.52v82.49a8,8,0,0,0,13.26,5.75l28.56-26,2-1.86c1.54-1.42,3.13-2.88,3.78-3.31.63-.07,2.23-.06,3.66,0s3,0,4.95,0H635.83a37.41,37.41,0,0,0,37.37-37.57V39.58A37.27,37.27,0,0,0,635.83,2.18Zm21.8,125a21.83,21.83,0,0,1-21.8,22H534.91c-1.84,0-3.35,0-4.63,0-9.31-.19-11.14.86-18.29,7.44-.59.55-1.4,1.16-2.12,1.82l-15.65,14.14V39.58c0-12.16,10.21-21.84,22.37-21.84H635.83a21.68,21.68,0,0,1,21.8,21.84h0Z"/><rect class="cls-4" x="569.72" y="99.03" width="13.06" height="13.06"/><path class="cls-4" d="M576.25,40.27A45.7,45.7,0,1,0,621.94,86,45.7,45.7,0,0,0,576.25,40.27Zm0,78.34A32.64,32.64,0,1,1,608.89,86,32.64,32.64,0,0,1,576.25,118.61Z"/><rect class="cls-4" x="569.72" y="59.86" width="13.06" height="32.64"/></svg>