<svg xmlns="http://www.w3.org/2000/svg" viewBox="0 0 1000 1000"><defs><style>.cls-1{fill:#94b4c7;}.cls-2{fill:#6a97b0;}.cls-3{fill:#316e92;}.cls-4{fill:#07a0b8;}.cls-5{fill:#7ca3ba;}.cls-6{fill:#6190ac;}.cls-7{fill:#4b81a0;}.cls-8{fill:#3d8499;}.cls-9{fill:#5d8da9;}.cls-10{fill:#3e7899;}.cls-11{fill:#427b9b;}.cls-12{fill:#357194;}.cls-13{fill:#80a6bc;}.cls-14{fill:#6f9ab3;}.cls-15{fill:#4d82a1;}.cls-16{fill:#7aa2b9;}.cls-17{fill:#21638a;}</style></defs><title>OpenDevUFCGTypo</title><g id="Camada_5" data-name="Camada 5"><path class="cls-1" d="M166.39,379.53a28.19,28.19,0,0,0-5-16.12,30,30,0,0,0-13.18-10.61,31,31,0,0,0-20.76-1,30.3,30.3,0,0,0-7.86,3.7,29.42,29.42,0,0,0-10.81,12.82,28,28,0,0,0-2.31,11.2H79.78a54.79,54.79,0,0,1,9.76-31.26,56.54,56.54,0,0,1,24.92-20.09,57.17,57.17,0,0,1,22-4.34h0A57.09,57.09,0,0,1,168,333.28a56.09,56.09,0,0,1,20.57,24.47,54.93,54.93,0,0,1,4.5,21.78Z"/><path class="cls-2" d="M193,379.53a13.33,13.33,0,1,1-26.65,0h0c0,16.17-13.53,29.05-30,29.05-16.62,0-30-13-30-29.05h0a13.33,13.33,0,1,1-26.65,0c0,30.68,25.29,55.7,56.62,55.7h0c31.25,0,56.63-24.93,56.63-55.7"/><path class="cls-3" d="M93.11,366.21a13.33,13.33,0,0,0-13.33,13.32h0a13.33,13.33,0,1,0,26.65,0h0a13.33,13.33,0,0,0-13.32-13.32"/><path class="cls-4" d="M179.71,366.21a13.32,13.32,0,0,0-13.32,13.32h0a13.33,13.33,0,1,0,26.65,0h0a13.33,13.33,0,0,0-13.33-13.32"/><polyline class="cls-5" points="210.03 341.69 210.03 462.52 236.68 462.52 236.68 341.69"/><path class="cls-6" d="M264.08,327.63a53.64,53.64,0,0,0-28.72,8.28,13.19,13.19,0,0,1,1.32,5.78V427.9a53.88,53.88,0,1,0,27.4-100.27m0,81.27a27.4,27.4,0,1,1,27.4-27.4,27.4,27.4,0,0,1-27.4,27.4"/><path class="cls-7" d="M235.36,335.91a53.9,53.9,0,0,0,1.32,92V341.69a13.19,13.19,0,0,0-1.32-5.78"/><path class="cls-1" d="M210,462.52a13.33,13.33,0,1,1,13.33,13.32A13.33,13.33,0,0,1,210,462.52Z"/><path class="cls-3" d="M210,341.61a13.33,13.33,0,1,1,13.33,13.32A13.33,13.33,0,0,1,210,341.61Z"/><path class="cls-1" d="M361.54,378.79h0A33.87,33.87,0,0,0,364,392a24.4,24.4,0,0,0,13.66,13.49A35.39,35.39,0,0,0,391,407.8h.05a29.86,29.86,0,0,0,10.6-2.1,31.48,31.48,0,0,0,9.49-5.75L429,419.79a58.14,58.14,0,0,1-17.62,10.75A56.29,56.29,0,0,1,391,434.45h0a63.16,63.16,0,0,1-19.94-3.07,52.2,52.2,0,0,1-16.49-8.91,50.44,50.44,0,0,1-8.44-8.66,52.91,52.91,0,0,1-7.62-13.95,61.1,61.1,0,0,1-3.63-21.07Z"/><path class="cls-6" d="M388.41,323.12h-.07c-29.19,0-53.45,25-53.45,55.67h26.65c0-16.12,12.46-29,26.82-29,11.81,0,20.55,6.07,24.8,15.69l29.33,13.33c0-31.06-22.45-55.67-54.08-55.67"/><path class="cls-8" d="M348.22,365.46a13.33,13.33,0,0,0-13.33,13.33h0a13.33,13.33,0,1,0,13.33-13.33"/><path class="cls-9" d="M413.16,365.46H383.07a13.33,13.33,0,0,0,0,26.65h46.09Z"/><path class="cls-10" d="M429.16,365.46h-16a2.29,2.29,0,0,0,.1.23,33.15,33.15,0,0,1,2.58,13.1,13.33,13.33,0,0,0,13.32,13.32h0a13.33,13.33,0,0,0,13.33-13.32h0a13.33,13.33,0,0,0-13.33-13.33"/><circle class="cls-5" cx="420.05" cy="409.87" r="13.32"/><path class="cls-1" d="M472.82,431.73a13.32,13.32,0,0,1-13.33-13.32V336.22a13.33,13.33,0,1,1,26.65,0v82.19a13.32,13.32,0,0,1-13.32,13.32Z"/><path class="cls-9" d="M556.8,370.84c0-36.72-40.38-59.31-72.56-41.49a13.27,13.27,0,0,1,1.9,6.87v34.62c0-23.76,35.71-29.31,43.06-6.18a20.19,20.19,0,0,1,.95,6.18Z"/><path class="cls-11" d="M484.24,329.35A48.53,48.53,0,0,0,467.94,344a46.74,46.74,0,0,0-8.45,26.82,13.33,13.33,0,0,0,26.65,0V336.22a13.27,13.27,0,0,0-1.9-6.87"/><rect class="cls-6" x="530.15" y="370.84" width="26.6" height="48.74"/><path class="cls-10" d="M543.48,357.51a13.33,13.33,0,0,0-13.33,13.33h0a13.33,13.33,0,0,0,26.65,0h0a13.32,13.32,0,0,0-13.32-13.33"/><circle class="cls-5" cx="543.48" cy="418.49" r="13.32"/><path class="cls-3" d="M459.49,418.49a13.33,13.33,0,1,1,13.33,13.32A13.32,13.32,0,0,1,459.49,418.49Z"/><rect class="cls-6" x="656.37" y="298.19" width="26.65" height="120.83"/><path class="cls-9" d="M656.37,332.17a53,53,0,0,0-28.66-8.38,53.67,53.67,0,0,0-44.8,24.35c-23.88,36.21,1.43,85.59,44.82,85.59a53.09,53.09,0,0,0,29.85-9.17Zm-28.64,74.91h0c-15.05,0-27.31-12.63-27.32-28.32,0-27.88,34.83-38.8,49.89-15.95,12.38,18.78-.7,44.27-22.57,44.27"/><path class="cls-12" d="M656.37,332.17c0,94.65-.46,88.75,1.21,92.39,32.71-22.15,31.91-71.23-1.21-92.39"/><circle class="cls-4" cx="669.7" cy="298.19" r="13.32"/><circle class="cls-1" cx="669.7" cy="419.1" r="13.32"/><path class="cls-1" d="M726.66,378.79h0a33.87,33.87,0,0,0,2.5,13.17,24.4,24.4,0,0,0,13.66,13.49,35.39,35.39,0,0,0,13.32,2.35h.05a29.86,29.86,0,0,0,10.6-2.1,31.48,31.48,0,0,0,9.49-5.75l17.79,19.84a58.14,58.14,0,0,1-17.62,10.75,56.29,56.29,0,0,1-20.31,3.91h0a63.21,63.21,0,0,1-19.94-3.07,52.2,52.2,0,0,1-16.49-8.91,50.44,50.44,0,0,1-8.44-8.66,52.91,52.91,0,0,1-7.62-13.95A61.1,61.1,0,0,1,700,378.79Z"/><path class="cls-6" d="M753.53,323.12h-.07c-29.19,0-53.45,25-53.45,55.67h26.65c0-16.12,12.46-29,26.82-29,11.81,0,20.56,6.07,24.8,15.69l29.33,13.33c0-31.06-22.45-55.67-54.08-55.67"/><path class="cls-8" d="M713.34,365.46A13.33,13.33,0,0,0,700,378.79h0a13.33,13.33,0,1,0,13.33-13.33"/><path class="cls-9" d="M778.28,365.46H748.19a13.33,13.33,0,0,0,0,26.65h46.1Z"/><path class="cls-10" d="M794.29,365.46h-16a2.29,2.29,0,0,0,.1.23,33.15,33.15,0,0,1,2.58,13.1,13.33,13.33,0,0,0,13.33,13.32h0a13.33,13.33,0,0,0,13.32-13.32h0a13.33,13.33,0,0,0-13.32-13.33"/><circle class="cls-5" cx="785.18" cy="409.87" r="13.32"/><polygon class="cls-4" points="880.44 424.18 918.9 344.29 894.89 332.73 868.41 387.74 880.44 424.18"/><polygon class="cls-13" points="868.41 387.74 841.93 332.73 817.92 344.29 856.36 424.14 868.41 387.74"/><path class="cls-14" d="M868.41,387.74l12,24.94c6.08,12.62-9.15,24.85-20.23,16.26a13.33,13.33,0,0,1-3.78-16.26l12-24.94"/><path class="cls-4" d="M816.6,338.51a13.33,13.33,0,1,1,13.32,13.32A13.32,13.32,0,0,1,816.6,338.51Z"/><path class="cls-6" d="M855.08,418.46a13.33,13.33,0,1,1,13.33,13.32A13.33,13.33,0,0,1,855.08,418.46Z"/><circle class="cls-3" cx="906.89" cy="338.51" r="13.32" transform="translate(504.95 1219.13) rotate(-85.93)"/><path class="cls-6" d="M238.06,519.47a17.66,17.66,0,0,1,17.66,17.65V646a17.66,17.66,0,1,1-35.31,0V537.12A17.65,17.65,0,0,1,238.06,519.47Z"/><path class="cls-1" d="M126.78,600.16c0,48.64,53.5,78.57,96.15,55a17.59,17.59,0,0,1-2.52-9.1V600.16c0,31.47-47.32,38.83-57.06,8.18a26.83,26.83,0,0,1-1.26-8.18Z"/><path class="cls-8" d="M222.93,655.12a64.18,64.18,0,0,0,21.6-19.44,62,62,0,0,0,11.19-35.53,17.66,17.66,0,0,0-35.31,0V646a17.59,17.59,0,0,0,2.52,9.1"/><rect class="cls-3" x="126.85" y="535.57" width="35.24" height="64.59"/><path class="cls-10" d="M144.44,617.81a17.66,17.66,0,0,0,17.65-17.66h0a17.66,17.66,0,0,0-35.31,0h0a17.66,17.66,0,0,0,17.66,17.65"/><circle class="cls-6" cx="144.44" cy="537.01" r="17.65"/><circle class="cls-4" cx="238.06" cy="537.01" r="17.65"/><path class="cls-6" d="M418.47,500.31c-9.39-1.27-16.18-.09-19.6,2.73-3.79,3.13-3.41,12.31-3.41,12.31V644.28H360.15V516c0-5.18-.34-24.31,14.11-38.24,11.46-11.07,27.92-15.25,48.94-12.41l-4.73,35"/><path class="cls-9" d="M419.86,525.17h-24.4v35.31h24.4a17.66,17.66,0,0,0,0-35.31m-59.71,0H349.41a17.66,17.66,0,1,0,0,35.31h10.74V525.17"/><polyline class="cls-12" points="395.46 525.17 360.15 525.17 360.15 560.48 395.46 560.48 395.46 525.17"/><circle class="cls-1" cx="377.81" cy="644.28" r="17.65" transform="translate(-217.8 193.62) rotate(-22.5)"/><circle class="cls-4" cx="419.86" cy="542.82" r="17.65" transform="translate(-175.77 201.99) rotate(-22.5)"/><circle class="cls-15" cx="420.83" cy="482.82" r="17.65"/><path class="cls-12" d="M622.89,561.87c-25.51-22.93-67.73-5.72-67.75,28.3H519.83c0-64.75,78.64-97.72,126.66-54.55Z"/><path class="cls-6" d="M622.34,619a40.49,40.49,0,0,1-12.22,7.28,42,42,0,0,1-30.54-.44,40.15,40.15,0,0,1-17.7-14.17,38,38,0,0,1-5-10.06,37.14,37.14,0,0,1-1.77-11.39H519.83a72.65,72.65,0,0,0,6,29,74.59,74.59,0,0,0,27.47,32.52,76.09,76.09,0,0,0,19.75,9.24,77.08,77.08,0,0,0,22.33,3.29h0a76.85,76.85,0,0,0,27.2-4.94,75.87,75.87,0,0,0,22.86-13.63Z"/><path class="cls-16" d="M537.49,572.52a17.66,17.66,0,0,0-17.66,17.65h0a17.66,17.66,0,0,0,35.31,0h0a17.65,17.65,0,0,0-17.65-17.65"/><circle class="cls-5" cx="633.9" cy="632.25" r="17.65"/><circle class="cls-6" cx="634.69" cy="548.75" r="17.65"/><path class="cls-5" d="M837.83,650.36h0a15.83,15.83,0,0,1-.17,1.68c-1.74,12.26-9.48,22.9-22.93,26.2l8.38,34.3c25.48-6.22,42.19-25.14,48.14-48.65,2.56-10.14,1.89-8.84,1.89-70.8V541.87H837.83Z"/><path class="cls-6" d="M751.29,665.74c10.49,0,10.12,6.82,28.08,11.51,12.43,3.26,26.71,3.11,35.36,1L823,712.57c-23.58,5.71-59,2.41-82.3-15.05Z"/><path class="cls-7" d="M818.93,677.73a17.93,17.93,0,0,0-4.2.51h0a17.66,17.66,0,0,0,4.18,34.81,17.43,17.43,0,0,0,4.09-.48l.11,0a17.66,17.66,0,0,0-4.18-34.81"/><path class="cls-3" d="M802.1,524c-51.5,0-85.52,49.05-65.26,92.28,17.25,36.87,64.89,50.24,101,30.78V592c-1.18,15.7-16.54,28.66-35.73,28.66h0c-12.76,0-23.87-5.75-30.2-14.23-19.2-25.69,12.78-56.69,44.7-44.5,11.34,4.33,20.32,14,21.23,26V541.87h0a17.6,17.6,0,0,1,1.86-7.89,75.08,75.08,0,0,0-37.59-10m71,62.88v6.2c.05-1,.07-2.06.07-3.09s0-2.08-.07-3.11"/><path class="cls-17" d="M839.69,534a17.6,17.6,0,0,0-1.86,7.89h0V588c0,.67.07,1.35.07,2s0,1.35-.07,2v55.05a69.49,69.49,0,0,0,22.74-19.48,64.09,64.09,0,0,0,9.28-17.47,62,62,0,0,0,3.29-17v-6.2a61.82,61.82,0,0,0-5.79-23.18,65.64,65.64,0,0,0-11-16.36A70,70,0,0,0,839.69,534"/><path class="cls-6" d="M837.83,541.87a17.66,17.66,0,1,1,17.65,17.66,17.65,17.65,0,0,1-17.65-17.66Z"/><path class="cls-4" d="M733.62,683.39a17.66,17.66,0,1,1,17.66,17.66A17.66,17.66,0,0,1,733.62,683.39Z"/></g></svg>