<svg id="Camada_1" data-name="Camada 1" xmlns="http://www.w3.org/2000/svg" xmlns:xlink="http://www.w3.org/1999/xlink" viewBox="0 0 1005.83 1080"><defs><style>.cls-1,.cls-2{fill:url(#Gradiente_sem_nome_52);}.cls-2{opacity:0.4;}</style><linearGradient id="Gradiente_sem_nome_52" x1="209.18" y1="833.73" x2="796.65" y2="246.27" gradientUnits="userSpaceOnUse"><stop offset="0" stop-color="#343587"/><stop offset="1" stop-color="#4979b7"/></linearGradient></defs><title>opd</title><path class="cls-1" d="M502.92,1080a114.59,114.59,0,0,1-81-195.62L766.26,540,421.89,195.62A114.59,114.59,0,0,1,584,33.56l362.1,362.11a204.12,204.12,0,0,1,0,288.66L584,1046.44A114.27,114.27,0,0,1,502.92,1080ZM784,557.73h0Z"/><path class="cls-2" d="M502.92,1080a114.24,114.24,0,0,1-81-33.56L59.78,684.33a204.12,204.12,0,0,1,0-288.66L421.89,33.56A114.59,114.59,0,0,1,584,195.62L239.57,540,584,884.38a114.59,114.59,0,0,1-81,195.62Z"/></svg>