<svg width="166" height="111" viewBox="0 0 166 111" fill="none" xmlns="http://www.w3.org/2000/svg">
<path fill-rule="evenodd" clip-rule="evenodd" d="M83.0346 6.92358C78.2828 6.92358 74.4233 10.79 74.4233 15.5417C74.4233 20.2935 78.2828 24.153 83.0346 24.153C87.7863 24.153 91.6458 20.2935 91.6458 15.5417C91.6458 10.79 87.7863 6.92358 83.0346 6.92358ZM83.0346 31.0766C74.4717 31.0766 67.5067 24.1046 67.5067 15.5417C67.5067 6.972 74.4717 0 83.0346 0C91.5905 0 98.5625 6.972 98.5625 15.5417C98.5625 24.1046 91.5905 31.0766 83.0346 31.0766ZM129.653 6.92358C124.908 6.92358 121.042 10.79 121.042 15.5417C121.042 20.2935 124.908 24.153 129.653 24.153C134.405 24.153 138.264 20.2935 138.264 15.5417C138.264 10.79 134.405 6.92358 129.653 6.92358ZM129.653 31.0766C121.09 31.0766 114.125 24.1046 114.125 15.5417C114.125 6.972 121.09 0 129.653 0C138.223 0 145.181 6.972 145.181 15.5417C145.181 24.1046 138.223 31.0766 129.653 31.0766ZM36.3471 6.92358C31.5953 6.92358 27.7358 10.79 27.7358 15.5417C27.7358 20.2935 31.5953 24.153 36.3471 24.153C41.0988 24.153 44.9583 20.2935 44.9583 15.5417C44.9583 10.79 41.0988 6.92358 36.3471 6.92358ZM36.3471 31.0766C27.7843 31.0766 20.8192 24.1046 20.8192 15.5417C20.8192 6.972 27.7843 0 36.3471 0C44.9099 0 51.875 6.972 51.875 15.5417C51.875 24.1046 44.9099 31.0766 36.3471 31.0766ZM130.863 73.6902C134.605 73.6902 137.635 76.4776 137.904 80.1572C138.126 83.1867 139.91 102.706 139.91 102.706C140.069 104.518 142.85 104.442 142.926 102.719L145.105 54.7454C145.25 51.3632 149.739 50.1666 151.503 53.1062L159.09 65.57L151.779 42.5444C151.516 41.6937 150.52 41.085 149.414 41.085H16.5931C15.4795 41.085 14.4835 41.6937 14.2207 42.5444L6.889 66.0611L14.4973 53.1062C16.3095 50.132 20.7569 51.4047 20.9022 54.7454L23.074 102.719C23.1639 104.407 25.9237 104.428 26.0966 102.706C26.0966 102.706 27.8742 83.1867 28.1024 80.1503C28.3722 76.4776 31.3947 73.6902 35.1367 73.6902C38.3529 73.6902 41.8458 76.1179 42.1432 80.1572C42.3715 83.1867 44.1491 102.706 44.1491 102.706C44.3358 104.532 47.1717 104.559 47.1717 102.712C47.7388 90.1795 50.0559 50.0628 50.0559 50.0628C50.1666 48.2576 51.6537 46.8327 53.4658 46.812C60.4309 46.7359 57.7611 46.7359 64.6985 46.812C66.5107 46.8327 67.9977 48.2576 68.1015 50.0628C68.1015 50.0628 70.052 90.2002 70.9927 102.719C71.1448 104.739 73.9461 104.559 74.0083 102.712C74.0083 102.712 75.7928 83.1867 76.0211 80.1503C76.3116 76.1179 79.8114 73.6902 83.0208 73.6902C86.2716 73.6902 89.7783 76.1179 90.0619 80.1711C90.2902 83.2905 92.0747 102.706 92.0747 102.706C92.3029 104.469 94.9866 104.525 95.0903 102.712C95.6575 90.1795 97.9746 50.0628 97.9746 50.0628C98.0783 48.2576 99.5793 46.8327 101.391 46.812C108.287 46.7359 105.645 46.7359 112.527 46.812C114.339 46.8327 115.84 48.2576 115.944 50.0628C115.944 50.0628 118.261 90.1795 118.828 102.719C118.925 104.386 121.692 104.324 121.844 102.719C121.844 102.719 123.628 83.2905 123.857 80.1503C124.14 76.1179 127.64 73.6902 130.863 73.6902ZM141.418 110.667C136.991 110.667 133.374 107.492 133.021 103.3C133.021 103.3 131.23 83.7262 131.002 80.6622C130.524 83.83 128.733 103.3 128.733 103.3C128.394 107.492 124.784 110.667 120.35 110.667C115.82 110.667 112.126 107.312 111.925 103.038C111.448 92.6764 109.781 63.4604 109.221 53.701H104.698C104.137 63.4604 102.47 92.6764 101.993 103.031C101.793 107.312 98.0991 110.667 93.5756 110.667C89.142 110.667 85.5315 107.492 85.1857 103.287C85.1857 103.287 83.3942 83.83 83.1591 80.6622C82.6887 83.7262 80.8973 103.3 80.8973 103.3C80.5515 107.492 76.941 110.667 72.5074 110.667C67.9839 110.667 64.2835 107.312 64.0829 103.038C63.6057 92.6764 61.9457 63.4673 61.3854 53.701H56.7789C56.2187 63.4673 54.5517 92.6764 54.0814 103.031C53.8808 107.312 50.1804 110.667 45.6638 110.667C41.2372 110.667 37.6197 107.492 37.2601 103.3C37.2601 103.3 35.4756 83.7262 35.2473 80.6622C34.7701 83.7262 32.9856 103.3 32.9856 103.3C32.6259 107.492 29.0154 110.667 24.5888 110.667C20.0653 110.667 16.3648 107.312 16.1642 103.038L14.5042 66.3931L12.8166 69.1667C11.1981 71.8572 7.56683 73.1022 4.50275 72.0232C1.81217 71.0826 0 68.6064 0 65.8605L0.283583 64.0068L7.62217 40.4832C8.798 36.7067 12.4085 34.1614 16.5931 34.1614H149.414C153.529 34.1614 157.223 36.7552 158.392 40.4832L165.716 63.993L166 65.8605C166 68.6133 164.181 71.0826 161.49 72.0232C158.62 73.0538 154.809 71.8642 153.183 69.1597L151.489 66.3862L149.829 103.031C149.642 107.312 145.949 110.667 141.418 110.667Z" fill="#F0F0F0"/>
</svg>
