<svg width="216" height="216" viewBox="0 0 216 216" fill="none" xmlns="http://www.w3.org/2000/svg">
<path fill-rule="evenodd" clip-rule="evenodd" d="M216.288 216H0V0H216.288V216ZM141.597 172.008L137.776 158.688L147.004 167.256L155.727 175.32L171.228 189V59.832C171.228 51.624 164.595 45 156.448 45H59.8397C51.6929 45 45.06 51.624 45.06 59.832V157.176C45.06 165.384 51.6929 172.008 59.8397 172.008H141.597ZM128.619 139.032C144.553 138.528 150.681 128.088 150.681 128.088C150.681 104.904 140.299 86.112 140.299 86.112C129.917 78.336 120.04 78.552 120.04 78.552L119.031 79.704C131.287 83.448 136.983 88.848 136.983 88.848C129.485 84.744 122.131 82.728 115.282 81.936C110.091 81.36 105.116 81.504 100.718 82.08L99.4926 82.224C96.9692 82.44 90.841 83.376 83.1268 86.76L78.8731 88.848C78.8731 88.848 84.8571 83.16 97.8344 79.416L97.1134 78.552C97.1134 78.552 87.2362 78.336 76.8544 86.112C76.8544 86.112 66.4726 104.904 66.4726 128.088C66.4726 128.088 72.5286 138.528 88.4619 139.032L93.2923 133.056C84.1361 130.32 80.6755 124.56 80.6755 124.56L82.6942 125.784L82.9826 126L83.271 126.162L83.3521 126.198L83.6314 126.36C85.4338 127.368 87.2362 128.16 88.8944 128.808C91.8504 129.96 95.3831 131.112 99.4926 131.904C104.9 132.912 111.244 133.272 118.165 131.976C121.554 131.4 125.015 130.392 128.619 128.88C131.143 127.944 133.954 126.576 136.91 124.632C136.91 124.632 133.306 130.536 123.861 133.2L128.619 139.032ZM95.0947 105.408C90.9852 105.408 87.7409 109.008 87.7409 113.4C87.7409 117.792 91.0573 121.392 95.0947 121.392C99.2042 121.392 102.449 117.792 102.449 113.4C102.521 109.008 99.2042 105.408 95.0947 105.408ZM121.41 105.408C117.3 105.408 114.056 109.008 114.056 113.4C114.056 117.792 117.372 121.392 121.41 121.392C125.519 121.392 128.764 117.792 128.764 113.4C128.764 109.008 125.519 105.408 121.41 105.408Z" fill="#393A6E"/>
</svg>
