<svg id="Camada_1" data-name="Camada 1" xmlns="http://www.w3.org/2000/svg" xmlns:xlink="http://www.w3.org/1999/xlink" viewBox="0 0 1001 1003"><defs><style>.cls-1{fill:none;}.cls-2{clip-path:url(#clip-path);}.cls-3{fill:#2c3232;}.cls-4,.cls-5,.cls-8{fill:#666565;}.cls-4{opacity:0.1;}.cls-5{opacity:0.15;}.cls-6{fill:#262c2c;}.cls-7{fill:#f2ecd9;}.cls-9{fill:#818282;}.cls-10{fill:#e1daca;}.cls-11{fill:#303737;}.cls-12{fill:#d0c9b6;}.cls-13{fill:#fff;}.cls-14{fill:#72b4c1;}.cls-15{fill:#c75c89;}.cls-16{fill:#d27b35;}.cls-17{fill:#74193f;}.cls-18{fill:#e7bb89;}.cls-19{fill:#d68fa7;}</style><clipPath id="clip-path"><rect class="cls-1" width="1001" height="1003"/></clipPath></defs><title>SVG</title><g class="cls-2"><rect class="cls-3" width="1001" height="1003"/><path class="cls-4" d="M948.46,460.1c0,88.63,45.1,280.29-1.62,348.59C869,922.51,664.7,888,515.12,888c-144,0-303.09,11.12-381.89-95.65C81.1,721.73,81.77,554.21,81.77,460.1c0-143.68,88.78-250.13,198.8-327.73C351.5,82.33,421.3,32.19,515.12,32.19c133.59,0,365.23,19.93,444.72,113.78C1022.76,220.25,948.46,355.69,948.46,460.1Z"/><path class="cls-5" d="M920.86,476.26c0,85.21,39.95,269.49-1.44,335.15-69,109.44-249.87,76.27-382.35,76.27-127.56,0-268.43,10.7-338.22-92-46.17-67.92-45.57-229-45.57-319.46,0-138.16,78.62-240.5,176.06-315.11C392.16,113,454,64.83,537.07,64.83c118.31,0,323.46,19.16,393.87,109.39C986.66,245.64,920.86,375.86,920.86,476.26Z"/><path class="cls-6" d="M428,357.85c-4.49,8.51-8.91,17.06-13.5,25.5-2.45,4.49-6.46,6.66-11.31,5.82-6.75-1.17-13.88-1.84-20-4.7-10.42-4.88-12.77-17.42-5.67-26.66A48.43,48.43,0,0,1,387.75,348c5.15-3.65,9.24-2.35,11.93,3.58,1.86,4.11,2.86,8.66,4.24,13l-1.39,1-13.14-12.21c-2.06,2.6-4,4.75-5.58,7.11-2.85,4.18-2.13,7.95,1.66,11.11a49.64,49.64,0,0,0,4.41,3.39c13.34,8.77,15.08,7.46,23.45-6.2,6-9.84,4.27-17.42.09-27-4.75-10.88-7.54-22.72-10.73-34.28-5-18-10.71-22.56-28.22-18.17a78.26,78.26,0,0,0-26,11.71c-23.17,16.49-129.33,79.07-143.7,104.09-1,1.81-1.83,3.77-2.73,5.67-2.41,5.12-.92,9,4.18,10.37,7.85,2.13,104-36.38,112.06-35.67,12.38,1.1,22.08,6.16,29.7,16.38,5.35,7.19,11.84,13.47,17,20.81,4.12,5.9,7.94,12.42,10.15,19.28,3.41,10.55.24,20.24-7.81,27.54-9.66,8.76-19.62,17.16-29.67,25.43-10.22,8.4-14.88,7.24-22.21-4.1-8.15-12.62-11.17-26.56-11.21-41.51,0-6.95,2.69-11.22,9.34-12.75,5.16-1.19,10.23-2.84,15.43-3.79,1.52-.28,4.39.67,4.84,1.83,3.15,8,6.48,16,8.46,24.37,1.78,7.48-.69,10.37-8.38,11.68,6.85-9.5,3.17-17.54-2.37-25-1.74-2.33-5.33-5.41-7.27-4.9-4.43,1.17-10.13,2.56-10.79,8.8-1.24,11.61.49,22.79,6.15,33.09,2,3.7,5.1,4.64,8.87,3.35,17.76-6.06,30.84-17.6,38.5-35.51,2.54-5.93,2.45-11.75-1.4-16.81-15.92-21-25.78-33.68-53.12-37-8.29-1-96.06,40.74-121,32-3.3-1.16-5.66.17-7.52,3.47Q161.37,472.21,138.6,512a13.92,13.92,0,0,0-1.07,2.28c-8.65,25-17.87,49.83-25.58,75.15-2.24,7.37-1.22,16.37.21,24.26a96.41,96.41,0,0,1,.9,27c-1.08,11.22.12,22.67-.14,34-.23,10.05-1.35,20.08-1.65,30.13-.45,15.16-1.91,30.47-.49,45.47,3.54,37.47,8.39,74.8,13,112.16a9.36,9.36,0,0,0,4.63,6.13c7.14,3.4,12,8.35,14,16.43,2.11,8.39,4.88,16.59,7.12,24.94,1.2,4.5,3.79,7.13,8.17,7.1,7.52-.06,15.07-.14,22.53-.93,14.42-1.54,27.63,1.4,39.16,10.66,7.88,6.32,16,12.56,22.93,19.87,12.8,13.4,11.09,32-3.43,44.3-.11-.64-.39-1.22-.25-1.67,7.61-26-9.88-51-36.26-51.45-3.34-.06-7.38.38-9.9,2.3-4.28,3.26-8.13,2.38-12.56,1.39-5.15-1.16-10.45-2.53-15.65-2.37-11.47.34-21.06-4-29.93-10.88-5.89-4.52-11.67-9.2-17.81-14.06q-15.83,14.34-31.65,28.72a6.64,6.64,0,0,0-2.16,3c-3.43,15.14-7.57,30.2-9.57,45.55-.66,5.08,3.68,11.36,6.8,16.38C85,1016,91,1023.53,96.5,1031.44a43,43,0,0,1,4,7.81c4.3,10.28,2.6,15.4-6.89,20.91-2.41,1.4-5,2.5-7.71,3.84-.07-1.06-.25-1.54-.1-1.8,9.06-15,9-22.18-2.75-35a197.46,197.46,0,0,0-25.31-22.72C45.34,995,41.33,982.92,47,968c2.84-7.47,6.16-14.78,8.45-22.42,2.23-7.47,1.87-15-3.53-22.57-4,4.39-7.27,8.94-11.42,12.44a52.78,52.78,0,0,1-14.19,9c-6.41,2.53-13.4,3.48-20.1,5.26-11.61,3.08-20.35,9.95-26.59,20.75A128,128,0,0,1-34,989.87c-8.64,10-19.35,11.75-31.11,6.21-3.15-1.48-6.23-3.13-9.31-4.76-8.11-4.28-11-3.63-16.65,3.85-.62.82-1.23,1.66-1.84,2.48l-1.57-.82c2.84-6.11,4.94-12.83,8.86-18.07,1.78-2.38,7.53-3.21,10.83-2.27,3.79,1.08,7.27,4.49,10.13,7.62,7.57,8.29,14.77,9.1,23.38,1.67A46.13,46.13,0,0,0-25.79,959c2.43-13.08,9.84-20.3,21.22-24.5a95.22,95.22,0,0,0,11.19-5.07c2.89-1.52,6.28-2.88,8.2-5.36A293.29,293.29,0,0,0,34,897.19c4-6.55.5-11.62-7-10.23-14.6,2.71-29.27,5.55-43.47,9.89C-28.73,900.59-37.44,909.46-42,922.3a136.3,136.3,0,0,1-7.51,16.62c-2.79,5.36-7.14,7.56-13.27,6.5-14.28-2.48-28.43-4.74-40.76-13.89-3.45-2.55-8.9-3-13.42-3a127.35,127.35,0,0,0-22.45,2.27,12,12,0,0,0-7.29,5.53c-2.36,4.34-3.76,9.34-5,14.22-1.57,6.2,0,11.55,4.74,16.06,6.43,6.17,6.89,20.95.85,27.52-1.39,1.52-3.78,2.34-5.85,2.85-7.11,1.75-14.3,3.11-21.41,4.84-9.57,2.34-18.1-.65-26.57-4.12l.15-1.93c2.49,0,5.14-.57,7.44.11,6.68,2,12.85.89,19-2.08,5.71-2.77,11.7-5,17.15-8.21,4.73-2.8,4.3-5.49-.58-8-1.09-.56-2.25-1-3.38-1.48-10.87-4.84-11.27-5.83-10.3-18,.55-7,.58-14,.63-20.93,0-5.66,2.45-9.41,7.15-12.28a58.2,58.2,0,0,1,35.69-8.66c9.54.75,19.32,3.33,28.55,1.93,11.43-1.73,19,1.78,25.37,11,3.21,4.62,7.14,3.46,8.84-1.26,3.62-10,8.31-20.17,9.23-30.59,1.77-20,15.07-27.9,29.68-35,2.87-1.38,7.22-.4,10.61.55,7.85,2.19,15.45,5.39,23.31,7.52,15.18,4.13,23.43.39,28-15.16C50.73,806.47,54.17,758,30.35,710.86a32.5,32.5,0,0,1-3.09-19.64A162.21,162.21,0,0,0,29,669.79c0-10.61,1.81-20.71,6.7-30,5.54-10.51,7.07-22,8.32-33.55,3.84-35.58-1.77-70-11.77-103.86A38.37,38.37,0,0,0,20.1,483.94C8.32,473.55,1.92,459.78,3.67,443.65c1.4-12.9-2-21.46-13.49-27.17-13-6.47-23.3-16.83-32.88-28-8.81-10.25-17.87-20.27-27-30.22-8.38-9.13-18.78-11.53-29.63-6.44-15.74,7.38-31.1,15.66-46.32,24.16-2.38,1.33-4.21,5.76-4.42,8.89-.85,12.87-1,25.78-1.35,38.68-.25,9.64,3.84,13.42,13.15,12.68q22.17-1.77,44.36-3.25c8.18-.56,10.45-3.08,9.71-11.63-.35-4-1-8-1.67-11.93-1.61-8.9-10.85-16.81-19.49-15.66-3,.4-6.48,3.37-8.06,6.18-2.21,3.93-.48,7.76,4.07,9.63-6.48,3.2-18-4.79-17-11.84a8.6,8.6,0,0,1,3.84-5.27A43.78,43.78,0,0,1-95.62,386a8.2,8.2,0,0,1,5.38,2.5c11,14.14,19,30.15,11.08,48.93-3.56,8.43-5.38,9.29-13.78,6.71-11.57-3.54-23-1.38-34.29,1.89-4.31,1.25-8.5,3-12.85,4-9.49,2.33-16.73-1.79-19.2-11.66a105.43,105.43,0,0,1-2.86-20.66c-.48-11,.15-22-.34-33-.37-8.41,2.88-14.57,9.47-18.54,10.19-6.14,20.73-11.66,31.15-17.4,2.82-1.54,5.72-2.9,9.52-4.81-2.5-1.94-4.21-3.3-6-4.61-18-13.49-35.53-27.72-54.12-40.27-21.4-14.44-32.89-34.45-36.16-60.24a39.68,39.68,0,0,0-1.43-5.39v-25.4c4.86-19.61,9.95-39.17,14.52-58.86,5.6-24.16,19.19-43.16,35.38-60.51,10.17-10.89,16.86-12.69,29.94-5.57C-118,89.82-106.67,98.25-95,106c8.22,5.43,11.61,12.54,9.31,23.08-2.27,10.35-5.13,20.07-12.84,27.42-6.35,6.06-13.65,8.47-21.89,4.37-8.86-4.42-15.15-11.74-21-20.24l9.19-7.56c-.21,9.9,5.13,14.46,11.82,17.78,5.69,2.82,11.58,4.7,17.18-.19,4.56-4,5.37-11,2.18-18.81a51.08,51.08,0,0,0-19.21-23.28c-14.18-9.6-33.14-12.77-47,7.91-21.88,32.69-34.36,68.34-33.86,108.6.21,16.39,5,30.5,15.08,43.12,17.6,22.1,38.12,39.9,64.59,49.32,11,3.9,21.86,8.27,33.1,11.06,15.14,3.75,29.09,9.39,40.55,20.67.18.18.73,0,1.87-.13-.24-4.35-.41-8.71-.73-13.06-1.46-20.26-3.29-40.49-4.23-60.76a38,38,0,0,1,3.26-17.7c5.44-11.24,14.84-19,25.39-24.85C-20,231.49-15,231.53-14,233c6.58,9.48,13,19.21,18.24,29.54,2.41,4.75-.94,7.22-6.16,7.93-5,.69-9.91,2.83-14.77,4.57-1.67.6-3.11,1.93-4.65,2.93l-1.07-1.44c2.56-2.87,4.85-6.08,7.72-8.55,7.59-6.49,8.05-8.11,3.25-16.95a52.63,52.63,0,0,0-3.63-5.87c-4.32-5.93-6.45-6.51-12-2.05a121.94,121.94,0,0,0-12,11.64c-4.63,4.87-5.72,10.75-4.92,17.54,1.27,10.69,1.55,21.5,2.81,32.19,1.5,12.76,2.39,25.8,5.68,38.1,7.26,27.16,26,44.94,48.84,58.11,10.44,6,20.28.37,22.31-11.86a140.15,140.15,0,0,0,1.47-20.2q.81-42.51,1.29-85c.09-7.18.33-14.43-.39-21.55-2.33-23.22,1.93-44.64,17.72-61.73,13-14,16.44-30,13.91-48.36-1-7.53-1.68-15.23-3.79-22.45-1.39-4.78-4.15-10.06-7.85-13C42.3,104.09,24.27,97.11,4.7,94.65c-6.94-.87-13.15,1.5-17.21,7.49-9.5,14-18.89,28.07-27.71,42.52a18.55,18.55,0,0,0-2.15,12.6c2,8.1,5.36,15.87,8.55,23.6,1.78,4.32,5.43,5.88,10,5.56,12.66-.86,17.47-9.4,12.17-21.34-.76-1.72.24-4.29.43-6.47,2.06.82,5.36,1.1,6,2.56a77.38,77.38,0,0,1,4.11,15c1.18,6.45-1.57,10.9-7.36,13.64-4.81,2.28-9.46,4.93-14.1,7.56-8,4.51-12.34,4.2-16.81-4.07-5.53-10.23-9.84-21.21-14.12-32.11-2.69-6.85-.58-12.93,4-18.7C-43.53,135-37.65,127.32-33,119A130.44,130.44,0,0,1-2.93,82.6c7.14-6.06,11.51-5.54,19.24-.25A154.92,154.92,0,0,0,37.53,94.48c9.25,4.37,18.86,7.88,28.31,11.78,7.25,3,11,8.58,12.55,16.57,2.8,14.07,6.33,28,9.6,42a47.26,47.26,0,0,0,1.66,4.8C91.5,168.11,93,167.27,94,166c8.11-9.45,16.3-18.84,24.15-28.51,14.17-17.45,15.38-47.88,2.91-66.88-4.55-6.94-13.24-10.51-20.27-8.32C95,64.14,93.86,68.2,97.18,73.48c3.62,5.77,6.64-.14,10.44-.2.34,2,1.63,4.56.87,5.91a31.29,31.29,0,0,1-7.72,9.58c-.84.64-5.4-2.46-7-4.78a63.81,63.81,0,0,1-7.13-14c-.74-2,0-5.19,1.13-7.2,2.62-4.68,5.88-9,8.88-13.42h4.89c7.6,3,15.08,6.29,22.82,8.75,6.34,2,9.75,6.07,10.22,12.61.75,10.32.82,20.7,1.73,31,.36,4.08,2.21,8,3.38,12,2.7-2.92,6-5.44,8-8.83,5.06-8.93,9.46-18.25,14.19-27.37,2.73-5.28,6.46-7.43,12.59-5.77a38.79,38.79,0,0,0,13.89.81c24.5-2.49,104-64.49,127.85-71.46C321.1-.28,445.34,57.57,449.66,59.87a346.2,346.2,0,0,1,35.9,22.59c3.18,2.22,5.79,6.87,6.6,10.86,1.42,6.94,1.46,14.23,1.63,21.38.12,5-2.39,8.73-6.87,11-7.46,3.88-15,7.68-22.14,12.12a34.2,34.2,0,0,0-9.91,9.07c-4.08,5.83-3.1,12.45,1.25,15.19,6.79,4.26,17.14,3,19.49-3.3,1.24-3.33-.7-7.94-1.17-11.76,8.49.84,9.81,2.32,9.43,11.79-.1,2.54-.11,5.09-.45,7.6-.85,6.4-3.66,9-9.9,8.43A67.32,67.32,0,0,1,459.2,172c-12.5-4.09-17.08-14-11.26-26.17,2.67-5.61,7.51-10.3,12-14.7,2.72-2.65,6.64-4,10.1-5.82,6.27-3.28,12.68-6.36,12.59-15.31-.09-9.43-6.07-13.43-13.44-16.71-10.28-4.58-20.39-9.59-30.45-14.68-6.69-3.39-131.11-62.16-138.39-60.89-17,3-88.94,66.61-106.12,68.33-13.6,1.35-23.48,6.16-29.35,19.66-7.87,18.12-20,33.17-33,47.67C120.52,166,110,179.51,99.69,193.14c-3.8,5-6.39,11.26-8.68,17.28-3.59,9.43-6.21,19.24-9.68,28.71-6.86,18.72-6.87,38.11-5.37,57.58.55,7.25,3.66,8.87,10,6.1,14.6-6.43,29.14-13,43.69-19.59,12.29-5.56,20.12-14.6,23.64-28.58,5.89-23.39,10.75-46.91,12.84-71,.67-7.82,93.55-37.85,100.78-39.71,15.8-4.06,31.56-8.26,47.35-12.3a42.9,42.9,0,0,1,7.26-.91c5.38-.43,9.6,1.49,12,6.78,6.13,13.58,12.48,27.06,18.26,40.81,2.85,6.78,2.56,14.42-2.31,19.82a213.22,213.22,0,0,1-23.15,21.52c-4.51,3.72-10.07,2.17-15.34-3.15-3.51-3.55-7.65-7.15-4.1-14.14,2,1.95,3.34,4,5.21,4.89,3.74,1.73,8,4.4,11.64,3.83,10.95-1.72,20.29-18.35,16.55-29.23S332,160.25,327.28,149.7c-3.27-7.35-8.47-10-16.08-7.76a277.35,277.35,0,0,0-30.53,10.92c-10.17,4.37-105,38.24-106.23,49.85-1.33,13-3.34,26-4.26,39.08-1.65,23.49-11.91,41.2-31,53.85-10.29,6.82-20.34,14.09-30.1,21.69-10.33,8-10.56,14.53-1.74,24.07,8.09,8.75,7.81,13-1.88,19.38-3.19,2.1-4.16,4.31-4.11,8.14.17,12.48.14,25-.29,37.44-.67,19.37-1.14,38.45,11.78,54.81,3.59,4.55,5.34,10.65,7.74,15.63,8.38-7.15,15.88-14.75,24.47-20.61a77.89,77.89,0,0,0,27.46-32.46c5.76-12.56,10.82-25.52,15.52-38.56,6.34-17.61,5.35-35.79,2-53.86a16,16,0,0,0-4.62-8.53c-7.2-6.41-22.12-5.16-28.73,1.88-8.18,8.71-8.33,18.22-.93,28.31,4.35,5.92,8.15,12.27,12.2,18.43l-1.29,1.35c-4-1.88-8-3.67-12-5.64-8.78-4.37-13.7-11.69-12.81-21.78.83-9.4,2.81-18.71,4.67-28,1-4.82,4.31-6.54,9.15-6.33,10.7.45,21.41.42,32.12.62a34.35,34.35,0,0,1,5.46.42c9.5,1.72,12.64,6,11.39,15.77-1.54,12.16-3.34,24.29-4.94,36.44-1.41,10.7-2.71,21.43-4.05,32.15L197.9,398c1.21-1.95,2.15-4.16,3.67-5.81,19.77-21.63,128.18-83.61,144.33-108.48,5.18-8,12-10.6,21.14-7.74A116.35,116.35,0,0,0,388,280.07c10.73,1.26,16.95,6.67,20.5,17.6,5.77,17.78,12.94,35.07,19.53,52.56Z"/><path class="cls-7" d="M74.67,478c-1.59,5.54-4.92,6.92-8.94,5-3.73-1.75-5.13-5.06-2.38-9.29Z"/><path class="cls-7" d="M80.12,477.25c1.2,0,1.8-1.41,2.94-1s2.06,3.2,1.3,4.32c-.6.87-1.18,1.42-1.63,1.5-1.63.29-5.55,1.31-6.53-3.78C76,477.21,78.34,477.23,80.12,477.25Z"/><path class="cls-3" d="M151.47,739.57h-.39q-14.22,0-28.41.49h-.13q-28.38,1-56.67,3.9l-.12,0a678.31,678.31,0,0,0-105,19l-.09,0-1.4.39q-7.19,2-14.32,4.11a1.9,1.9,0,0,0-1.06,2.23A1.51,1.51,0,0,0-54.28,771q7.2-2.17,14.41-4.13A635.14,635.14,0,0,1,24.4,753.11h0q21.11-3.42,42.33-5.6l.12,0q27-2.78,54.17-3.74h.11q15.09-.54,30.2-.55,4.45,0,8.89,0h0q9.75.11,19.48.42h.22a783.73,783.73,0,0,1,98.61,9.43h0l4.76.79.15,0q23.35,4,46.46,9.63h0l.87.22.72.18c16.54,4.15,32.95,9,49.14,14.82h0q8.64,3.12,17.19,6.6l2.68,1.12.06,0q5.61,2.37,11.17,4.91l.09,0h0l.13.07,1.59.73,0,0,.52.24,3,1.45.06,0,1.72.83a1.19,1.19,0,0,0,1.16-.18,1.91,1.91,0,0,0,.69-1.09,2.18,2.18,0,0,0-.15-1.4,1.73,1.73,0,0,0-.9-.83l-1.74-.84,0,0-.21-.11-.92-.44-.43-.2-.06,0-1.81-.85-.16-.08-1.59-.74-.06,0-.07,0-.1-.05Q407,785.39,401.44,783l-.12-.06-3.55-1.47-.11,0q-8.07-3.29-16.23-6.22l-1.14-.41-.07,0c-15.52-5.52-31.25-10.18-47.09-14.17l-.1,0-1.35-.33-.9-.23-.1,0c-15.42-3.8-30.95-7-46.54-9.64l-.07,0a786.46,786.46,0,0,0-103.6-10.31h-.31q-10.82-.36-21.63-.45h-.1c-2.31,0-4.63,0-6.94,0Z"/><path class="cls-3" d="M20.81,707,27,795.76q1.68,23.9,3.35,47.79a2.09,2.09,0,0,0,.45,1.27,1.37,1.37,0,0,0,1.06.54,1.69,1.69,0,0,0,1.5-1.81l-6-85.24q-1.8-25.68-3.59-51.34a2.12,2.12,0,0,0-.45-1.28,1.39,1.39,0,0,0-1.06-.54,1.69,1.69,0,0,0-1.5,1.82Z"/><path class="cls-3" d="M81.71,695.71q1.86,44.79,3.71,89.56L89,870.73q.38,9,.75,18a1.53,1.53,0,1,0,3,0l-3.45-83.2q-1.84-44.56-3.7-89.12-.42-10.37-.85-20.73a1.53,1.53,0,1,0-3,0Z"/><path class="cls-3" d="M218.63,696.14q-2.52,44.46-5.06,88.93l-5,88.58q-.69,12-1.37,24.05a1.69,1.69,0,0,0,1.5,1.82c.86,0,1.45-.83,1.51-1.82q2.31-40.77,4.64-81.53,2.55-44.71,5.09-89.43l1.74-30.6a1.68,1.68,0,0,0-1.5-1.82c-.86,0-1.45.82-1.51,1.82Z"/><path class="cls-3" d="M290.34,688.2a2.14,2.14,0,0,0-.45,1.29q-.52,7.37-1.06,14.72c-.06.89-.13,1.78-.19,2.67a.13.13,0,0,1,0,.06q-2.47,34.51-5,69-3.29,45.56-6.56,91.09-1.47,20.19-2.91,40.39a1.69,1.69,0,0,0,1.5,1.82,1.37,1.37,0,0,0,1.06-.53,2.12,2.12,0,0,0,.45-1.29q3.06-43.2,6.21-86.39,3.27-45.22,6.53-90.45.92-12.9,1.85-25.8.56-7.66,1.1-15.31a1.68,1.68,0,0,0-1.5-1.82,1.36,1.36,0,0,0-1.06.53Z"/><path class="cls-3" d="M358.9,723.1a2.24,2.24,0,0,0-.44,1.28q-4.27,42.92-8.56,85.83-3.24,32.56-6.49,65.13a1.91,1.91,0,0,0,.44,1.29,1.39,1.39,0,0,0,1.07.53,1.37,1.37,0,0,0,1.06-.53,2.2,2.2,0,0,0,.44-1.29q4-40.11,8-80.22l7.05-70.74a1.9,1.9,0,0,0-.44-1.28,1.37,1.37,0,0,0-1.06-.53,1.39,1.39,0,0,0-1.07.53Z"/><path class="cls-3" d="M81.47,667.83l13.35,28.76L71.1,698.33q5.19-15.26,10.37-30.5Z"/><path class="cls-3" d="M20.8,680.06q6.66,14.38,13.34,28.76l-23.71,1.74q5.18-15.25,10.37-30.5Z"/><path class="cls-3" d="M222.62,668.27l10.23,30.57L209.14,697q6.75-14.34,13.48-28.68Z"/><path class="cls-3" d="M294.29,664q4.6,15.52,9.2,31l-23.63-3,14.43-28Z"/><path class="cls-3" d="M362.94,696.25q4.6,15.53,9.2,31l-23.62-3,14.42-28Z"/><path class="cls-3" d="M168.24,798.25h-.12q-39.83,0-79.6,3.31a762,762,0,0,0-81.6,11.16q-10.73,2.09-21.4,4.58a1.89,1.89,0,0,0-1,2.23,1.82,1.82,0,0,0,.69,1.09,1.41,1.41,0,0,0,1.16.18c13.92-3.26,27.92-6,42-8.26h0c46.35-7.5,93.18-10.65,139.93-10.67q24.45,0,48.91,1.23h.07a841.54,841.54,0,0,1,90.57,9.36h0q10.32,1.68,20.61,3.67c16,3.11,31.85,6.82,47.57,11.41a317.89,317.89,0,0,1,45.71,16.82l.09,0,.31.14a1.22,1.22,0,0,0,1.16-.19,1.89,1.89,0,0,0,.69-1.08,2.17,2.17,0,0,0-.15-1.4,1.67,1.67,0,0,0-.89-.83l-.17-.09A322.56,322.56,0,0,0,376.73,824c-15.58-4.57-31.33-8.23-47.15-11.32h0l-1-.19-.12,0a799.94,799.94,0,0,0-110.6-13h-.08q-24.76-1.26-49.55-1.26Z"/><path class="cls-3" d="M117.51,785a45,45,0,0,1,12,1.65A38.92,38.92,0,0,1,144,794.25a45.68,45.68,0,0,1,11.79,15.83A54.46,54.46,0,0,1,167,804.44a34.88,34.88,0,0,1,11.58-2.14c.59,0,1.17,0,1.77.05a21.26,21.26,0,0,1,12.24,4.73,28.57,28.57,0,0,1,8,11.59,39.65,39.65,0,0,1,17.76-12.43,51.6,51.6,0,0,1,12.88-2.91c1.78-.17,3.54-.26,5.22-.26a55.72,55.72,0,0,1,8,.59,46.09,46.09,0,0,1,24,10.64A40,40,0,0,1,277,825a41.78,41.78,0,0,1,4.64,14,56.57,56.57,0,0,1,.61,10.2,44.73,44.73,0,0,1-1.07,8.6l.36,0a9.1,9.1,0,0,1,4.28,1.06,11.21,11.21,0,0,1,2.72,2.11,29.77,29.77,0,0,1,2.25-8.61,18,18,0,0,1,7.16-8.37,16,16,0,0,1,8.1-2.15,22.56,22.56,0,0,1,11.85,3.72A31,31,0,0,1,329.32,859a35.76,35.76,0,0,1,2.76,9.84,46.56,46.56,0,0,1,.35,5.15,49.5,49.5,0,0,1,15.21-11.23,48.45,48.45,0,0,1,11.82-3.93,46.08,46.08,0,0,1,9.15-.94c1.05,0,2.1,0,3.15.12a35.23,35.23,0,0,1,21.65,9.07,35.59,35.59,0,0,1,7.71,10.5,46.14,46.14,0,0,1,4.07,14.33,62.15,62.15,0,0,1,.28,13.65,46.55,46.55,0,0,1-2.8,11.28,34.41,34.41,0,0,1,6.51-2.24,30.48,30.48,0,0,1,7.11-.89,23.92,23.92,0,0,1,6.66.93,17,17,0,0,1,5.67,3.05,18.46,18.46,0,0,1,4.6,6,26.18,26.18,0,0,1,1.44,3.86,18.21,18.21,0,0,1,.71,3.87,21.08,21.08,0,0,1-.74,7.84c-1.25,4.38-3.85,8.47-8,12.51A59.53,59.53,0,0,1,415,960.59a107.91,107.91,0,0,1-14.87,7.2A141.72,141.72,0,0,1,380.27,974c-11.95,2.89-25,4.62-41,5.47-7.52.41-14.92.51-20.52.55l-5.34,0c-6.16,0-11.25-.09-16-.3-26.18-1.09-53.92-5.61-89.94-14.65-6.92-1.74-13.81-3.23-20.46-4.43l-.25-.05a324.56,324.56,0,0,0-45.21-4.51c-3.76-.12-7.52-.17-11.27-.17-10.78,0-22,.46-34.35,1.4-7.17.55-14.67,1.28-23,2.23-5.42.63-10.84,1.35-16.25,2.08l-6.52.86c-6.24.83-14.48,1.86-22.77,2.41-2.88.2-5.76.29-8.64.39l-1.58,0-.89,0c-1.95.06-3.9.13-5.85.13-.87,0-1.75,0-2.62,0a31.81,31.81,0,0,1-11.25-2.26,22.2,22.2,0,0,1-4.93-3,29.24,29.24,0,0,1-4.57-4.45,19.48,19.48,0,0,1-4-8.55,18.4,18.4,0,0,1-.28-4.43,20.8,20.8,0,0,1,.89-4.92,28.12,28.12,0,0,1,4.16-8.15,39.3,39.3,0,0,1,7-7.4,46.15,46.15,0,0,1,8.29-5.54A31.08,31.08,0,0,1,9,914.31a41.24,41.24,0,0,1-1.72-7.08,44.33,44.33,0,0,1-.39-9.85,47.48,47.48,0,0,1,5-18.09,43.06,43.06,0,0,1,10.77-13.65,32.76,32.76,0,0,1,6.78-4.34,26.1,26.1,0,0,1,7.3-2.25,20.87,20.87,0,0,1,3.26-.26,22.28,22.28,0,0,1,6.82,1.09A27.21,27.21,0,0,1,55.56,865a15.72,15.72,0,0,1,.61-3.42,16.31,16.31,0,0,1,3.42-6.3,11.78,11.78,0,0,1,5.28-3.46,7.83,7.83,0,0,1,1.71-.33,31.67,31.67,0,0,1-1.46-5.71,40.87,40.87,0,0,1-.22-10.83,56.84,56.84,0,0,1,6.47-20.22,65.94,65.94,0,0,1,11.81-16.07,45.31,45.31,0,0,1,14.33-9.42,52,52,0,0,1,15.67-4c1.44-.14,2.89-.22,4.33-.22Z"/><path class="cls-8" d="M129.52,786.57A38.94,38.94,0,0,1,144,794.19a45.91,45.91,0,0,1,11.81,15.86A50.25,50.25,0,0,1,167,804.39a34.68,34.68,0,0,1,11.6-2.15c.59,0,1.17,0,1.77,0A21.22,21.22,0,0,1,192.62,807a28.41,28.41,0,0,1,8,11.62c4.22-5.49,10.19-9.67,17.7-12.46a50.86,50.86,0,0,1,12.91-2.92,50.13,50.13,0,0,1,5.22-.25,56,56,0,0,1,8,.58c9.48,1.42,17.57,5,24,10.65A39.63,39.63,0,0,1,277.07,825a42,42,0,0,1,4.66,14,56.87,56.87,0,0,1,.6,10.21,42.75,42.75,0,0,1-1.09,8.63l.32-.14h0a9.07,9.07,0,0,1,4.3,1.07,11,11,0,0,1,2.75,2.1,26.54,26.54,0,0,1,2.17-8.58,18,18,0,0,1,7.17-8.39,16,16,0,0,1,8.12-2.16A22.5,22.5,0,0,1,318,845.44,30.94,30.94,0,0,1,329.35,859a35.64,35.64,0,0,1,2.77,9.87,46.1,46.1,0,0,1,.35,5.15,47.63,47.63,0,0,1,15.14-11.28,48.48,48.48,0,0,1,11.84-3.94,46.83,46.83,0,0,1,9.15-.94q1.57,0,3.15.12a34.32,34.32,0,0,1,29.4,19.61,46.52,46.52,0,0,1,4.09,14.36,62.82,62.82,0,0,1,.27,13.66,45.81,45.81,0,0,1-2.82,11.29,26.9,26.9,0,0,1,6.48-2.33,30.35,30.35,0,0,1,7.11-.89,23.27,23.27,0,0,1,6.69,1,16.3,16.3,0,0,1,5.65,3,18,18,0,0,1,4.63,6.06,26.57,26.57,0,0,1,1.43,3.8,19.72,19.72,0,0,1,.74,4,21,21,0,0,1-.76,7.87c-1.24,4.37-3.84,8.46-8,12.53A60.05,60.05,0,0,1,415,960.66a106.74,106.74,0,0,1-14.86,7.19l-1.14.45.17-.38a25.32,25.32,0,0,0,1.16-3,24.09,24.09,0,0,0,.72-2.93,22.07,22.07,0,0,0,.19-6.59,26.2,26.2,0,0,0-.75-3.77c-.25-.81-.49-1.63-.8-2.39a15.39,15.39,0,0,0-2.9-4.77,12.56,12.56,0,0,0-1.7-1.57,11.1,11.1,0,0,0-1.53-.95,12,12,0,0,0-4.37-1.3,14.66,14.66,0,0,0-2.48-.06c-.71.06-1.41.13-2.11.26a21.38,21.38,0,0,0-4.85,1.44,30.11,30.11,0,0,0-4.24,2.22,31.08,31.08,0,0,0-5.86,4.74,74.31,74.31,0,0,0,.92-12.4,58,58,0,0,0-1.4-12.22,48.35,48.35,0,0,0-2.12-6.83c-.42-1-.85-2.06-1.35-3.06s-1-1.92-1.53-2.87a39.26,39.26,0,0,0-3.75-5.35,42.24,42.24,0,0,0-4.07-4.26,43.06,43.06,0,0,0-10.52-7,48.8,48.8,0,0,0-6.45-2.5,56,56,0,0,0-6.39-1.55,53,53,0,0,0-7.4-.88,50.88,50.88,0,0,0-8.28.17c-1.42.17-2.84.4-4.25.69l-.45,0a34.17,34.17,0,0,0-13.47,5.37c-.88.58-1.75,1.18-2.6,1.81a47,47,0,0,0-9.51,8,49.74,49.74,0,0,0-4.9,6.22,48.89,48.89,0,0,0-3.79,6.83,40.35,40.35,0,0,0-2.5,7.36c-.12.51-.23,1-.32,1.53a18.9,18.9,0,0,0-1.5-1.34,18.32,18.32,0,0,0-1.63-1.23c-.57-.37-1.13-.71-1.7-1a17.35,17.35,0,0,0-5.71-2,15.58,15.58,0,0,0-3.13-.18,17.3,17.3,0,0,0-3.34.51,14.85,14.85,0,0,0-1.92.63,3.88,3.88,0,0,0-.56.23c-.18-3-.21-6-.2-8.94,0-3.38.09-6.76.06-10.14,0-1.84,0-3.68-.14-5.52-.08-1.51-.2-3-.34-4.55s-.36-3.17-.64-4.71-.59-3-1-4.45a42.47,42.47,0,0,0-1.49-4.55c-.48-1.18-1-2.34-1.52-3.45a47.14,47.14,0,0,0-3.52-6,45.24,45.24,0,0,0-4.48-5.6,50.39,50.39,0,0,0-4.25-4,52,52,0,0,0-12.62-7.73,58.85,58.85,0,0,0-13.65-4,60.37,60.37,0,0,0-7.21-.76c-.7,0-1.4,0-2.1,0a39.25,39.25,0,0,0-4.47.23,43.17,43.17,0,0,0-13.06,3.52,43.61,43.61,0,0,0-11.72,7.65,45.26,45.26,0,0,0-5.06,5.43,48.57,48.57,0,0,0-3.94,5.91,49.48,49.48,0,0,0-3.56,7.85,56.06,56.06,0,0,0-2.11,7.76,64.69,64.69,0,0,0-1.17,10.9c0,2,0,4,0,6v.1c-.77-2.4-1.62-4.74-2.55-7a98.47,98.47,0,0,0-5.64-11.74A84.44,84.44,0,0,0,143.1,876a65.17,65.17,0,0,0-7.69-8.4,49.35,49.35,0,0,0-6.39-4.93,39.79,39.79,0,0,0-5.93-3.15,36.4,36.4,0,0,0-3.83-1.36c-1.13-.31-2.24-.57-3.38-.77a27.71,27.71,0,0,0-6.55-.43,31.59,31.59,0,0,0-7.38,1.2,28.64,28.64,0,0,0-6.12,2.47,25.12,25.12,0,0,0-5.55,4.12,29.81,29.81,0,0,0-3.86,4.64,34.06,34.06,0,0,0-3.17,6,40.19,40.19,0,0,0-2,6.12,52.65,52.65,0,0,0-1.38,14.42,59.47,59.47,0,0,0,2.42,14.77,56.39,56.39,0,0,0,2.61,7.09c.51,1.11,1,2.21,1.61,3.25.13.25.27.49.41.73l-.58-.14a10.81,10.81,0,0,0-1.79-.31,6.65,6.65,0,0,0-1,0c-.31,0-.62,0-.94.07a6.78,6.78,0,0,0-1.46.36,7.46,7.46,0,0,0-1.3.64,6.76,6.76,0,0,0-.7.49,8.48,8.48,0,0,0-.63.58A8.29,8.29,0,0,0,77,925.5a13.45,13.45,0,0,0-1.23,3.5,19.77,19.77,0,0,0-.41,3.62,27.62,27.62,0,0,0,.3,4.64c.15.9.3,1.81.52,2.69,0,.18.08.34.12.52a61.88,61.88,0,0,0-11.67-3.67A79.23,79.23,0,0,0,49.7,935a73.74,73.74,0,0,0-10.39.46,64.07,64.07,0,0,0-9.92,1.91,50.68,50.68,0,0,0-9.49,3.67,40.61,40.61,0,0,0-8.12,5.39,36.31,36.31,0,0,0-9.2,11.95,39.25,39.25,0,0,0-2,5c-.13.38-.24.77-.36,1.17a25.89,25.89,0,0,1-3.73-1.24,22.49,22.49,0,0,1-4.92-3,29,29,0,0,1-4.6-4.45,19.83,19.83,0,0,1-4-8.57,19.25,19.25,0,0,1-.3-4.46,21.42,21.42,0,0,1,.92-4.95,28.17,28.17,0,0,1,4.15-8.17,39,39,0,0,1,7-7.4A43.38,43.38,0,0,1,3,916.73,29.09,29.09,0,0,1,9,914.26a37.16,37.16,0,0,1-1.76-7,46.57,46.57,0,0,1-.39-9.88,48,48,0,0,1,5.06-18.12,43,43,0,0,1,10.8-13.67,32.14,32.14,0,0,1,6.78-4.34A25.5,25.5,0,0,1,36.78,859a21.28,21.28,0,0,1,10.1.85,26.78,26.78,0,0,1,8.69,5.08,12.19,12.19,0,0,1,.55-3.4,16.33,16.33,0,0,1,3.42-6.32,11.75,11.75,0,0,1,5.3-3.46,7.78,7.78,0,0,1,1.73-.34,25.69,25.69,0,0,1-1.51-5.63,40.89,40.89,0,0,1-.23-10.84,57,57,0,0,1,6.5-20.25,66.27,66.27,0,0,1,11.79-16.1,45.52,45.52,0,0,1,14.36-9.42,51.65,51.65,0,0,1,15.7-4q2.16-.21,4.32-.21a44.77,44.77,0,0,1,12,1.64Z"/><path class="cls-8" d="M292.31,904a51.49,51.49,0,0,0-5,5.22l.23-.29a61.69,61.69,0,0,1,4.95-5.23l-.2.3Z"/><polygon class="cls-8" points="277.68 927.74 277.68 927.74 277.68 927.73 277.68 927.74 277.68 927.74 277.68 927.74"/><polygon class="cls-8" points="82.66 922.94 82.65 922.94 82.66 922.94 82.66 922.94 82.66 922.94 82.66 922.94"/><polygon class="cls-8" points="76.71 935.66 76.71 935.67 76.71 935.66 76.71 935.66 76.71 935.66 76.71 935.66"/><path class="cls-8" d="M393.43,895.18c0,2.66-1.7,4.89-3.73,4.89s-3.74-2.23-3.74-4.89,1.7-4.9,3.74-4.9,3.73,2.23,3.73,4.9Z"/><path class="cls-8" d="M391.54,879.85c0,1.52-1,2.78-2.12,2.78s-2.12-1.26-2.12-2.78,1-2.78,2.12-2.78,2.12,1.26,2.12,2.78Z"/><path class="cls-8" d="M378,871.51c0,.82-.51,1.5-1.13,1.5a1.55,1.55,0,0,1,0-3c.62,0,1.13.68,1.13,1.49Z"/><path class="cls-8" d="M364.58,875.58c0,2.53-1.61,4.64-3.54,4.64s-3.53-2.11-3.53-4.64,1.61-4.64,3.53-4.64,3.54,2.12,3.54,4.64Z"/><path class="cls-8" d="M379.42,888.84c0,2.25-1.43,4.12-3.14,4.12s-3.14-1.87-3.14-4.12,1.43-4.11,3.14-4.11,3.14,1.87,3.14,4.11Z"/><path class="cls-8" d="M374,897.78c0,.75-.48,1.38-1.05,1.38s-1-.63-1-1.38a1.09,1.09,0,1,1,2.1,0Z"/><path class="cls-8" d="M407.93,932.76c0,1.39-.89,2.55-1.95,2.55s-1.94-1.16-1.94-2.55.88-2.55,1.94-2.55,1.95,1.16,1.95,2.55Z"/><path class="cls-8" d="M420.61,926.5a.89.89,0,0,1-.75,1c-.4,0-.74-.44-.74-1s.34-1,.74-1a.89.89,0,0,1,.75,1Z"/><path class="cls-8" d="M264.32,865c0,2.66-1.7,4.89-3.73,4.89s-3.73-2.23-3.73-4.89,1.7-4.9,3.73-4.9,3.73,2.23,3.73,4.9Z"/><path class="cls-8" d="M269.68,843c0,2.13-1.36,3.91-3,3.91s-3-1.78-3-3.91,1.36-3.91,3-3.91,3,1.78,3,3.91Z"/><path class="cls-8" d="M256.83,848.83c0,1.48-.94,2.7-2.06,2.7s-2.06-1.22-2.06-2.7.93-2.71,2.06-2.71,2.06,1.23,2.06,2.71Z"/><path class="cls-8" d="M258.24,826.81a1.47,1.47,0,0,1-1.22,1.6c-.66,0-1.21-.73-1.21-1.6s.55-1.59,1.21-1.59a1.46,1.46,0,0,1,1.22,1.59Z"/><path class="cls-8" d="M254.78,816.47a1.55,1.55,0,1,1-1.5-2,1.79,1.79,0,0,1,1.5,2Z"/><path class="cls-8" d="M234.68,814.47c0,1.72-1.09,3.14-2.4,3.14s-2.41-1.42-2.41-3.14,1.09-3.15,2.41-3.15,2.4,1.42,2.4,3.15Z"/><path class="cls-8" d="M242.34,837.15c0,2.17-1.39,4-3,4s-3.05-1.82-3.05-4,1.39-4,3.05-4,3,1.83,3,4Z"/><path class="cls-8" d="M135.35,836.29c0,2.67-1.7,4.9-3.73,4.9s-3.73-2.23-3.73-4.9,1.7-4.89,3.73-4.89,3.73,2.23,3.73,4.89Z"/><path class="cls-8" d="M141.87,821.33c0,2.15-1.38,4-3,4s-3-1.81-3-4,1.38-4,3-4,3,1.81,3,4Z"/><path class="cls-8" d="M125.73,820.91c0,1.3-.84,2.4-1.83,2.4s-1.83-1.1-1.83-2.4.84-2.4,1.83-2.4,1.83,1.1,1.83,2.4Z"/><path class="cls-8" d="M124.65,801.2a.84.84,0,1,1-1.62,0c0-.57.37-1.06.81-1.06s.81.49.81,1.06Z"/><path class="cls-8" d="M109.72,796.22a2,2,0,1,1-1.89-2.47,2.26,2.26,0,0,1,1.89,2.47Z"/><path class="cls-8" d="M93.85,812.33c0,2.39-1.5,4.36-3.32,4.36s-3.33-2-3.33-4.36S88.71,808,90.53,808s3.32,2,3.32,4.36Z"/><path class="cls-8" d="M103.12,831.42c0,2.59-1.63,4.73-3.6,4.73s-3.61-2.14-3.61-4.73,1.63-4.73,3.61-4.73,3.6,2.15,3.6,4.73Z"/><path class="cls-8" d="M115.11,821.94c0,1.6-1,2.92-2.22,2.92s-2.23-1.32-2.23-2.92,1-2.92,2.23-2.92,2.22,1.33,2.22,2.92Z"/><path class="cls-8" d="M91.59,849.56c0,1.72-1.09,3.15-2.4,3.15s-2.4-1.43-2.4-3.15,1.09-3.15,2.4-3.15,2.4,1.43,2.4,3.15Z"/><path class="cls-8" d="M75.86,862a1.83,1.83,0,1,1-1.76-2.31A2.11,2.11,0,0,1,75.86,862Z"/><path class="cls-8" d="M51.51,918.16c0,2.67-1.7,4.9-3.74,4.9S44,920.83,44,918.16s1.7-4.89,3.73-4.89,3.74,2.23,3.74,4.89Z"/><path class="cls-8" d="M70.17,911c0,1.91-1.23,3.52-2.69,3.52S64.8,912.9,64.8,911s1.23-3.52,2.68-3.52,2.69,1.61,2.69,3.52Z"/><path class="cls-8" d="M53.52,894.62c0,1.65-1.06,3-2.32,3s-2.32-1.39-2.32-3,1-3,2.32-3,2.32,1.39,2.32,3Z"/><path class="cls-8" d="M40.49,878A1.75,1.75,0,0,1,39,879.87c-.79,0-1.45-.87-1.45-1.91A1.74,1.74,0,0,1,39,876.05,1.74,1.74,0,0,1,40.49,878Z"/><path class="cls-8" d="M26.47,915.36c0,1.77-1.13,3.25-2.48,3.25s-2.48-1.48-2.48-3.25,1.13-3.25,2.48-3.25,2.48,1.47,2.48,3.25Z"/><path class="cls-8" d="M173.55,818.72c0,2.47-1.59,4.55-3.47,4.55s-3.47-2.08-3.47-4.55,1.58-4.55,3.47-4.55,3.47,2.08,3.47,4.55Z"/><path class="cls-8" d="M287.64,888c0,1.87-1.19,3.43-2.62,3.43s-2.61-1.56-2.61-3.43,1.18-3.43,2.61-3.43,2.62,1.56,2.62,3.43Z"/><path class="cls-8" d="M274.64,897.84c0,1.64-1,3-2.29,3s-2.3-1.37-2.3-3,1-3,2.3-3,2.29,1.37,2.29,3Z"/><path class="cls-3" d="M675,175.61l-.26,0a6.58,6.58,0,0,0-1,.18,9.43,9.43,0,0,0-.9.29l-.32.15a4.12,4.12,0,0,0-1.09.77,4.42,4.42,0,0,0-.77.94,10.15,10.15,0,0,0-1,2.43c-.15.53-.29,1.06-.42,1.6l-.13.52L669,183a12.1,12.1,0,0,1-1,2.57,8.93,8.93,0,0,1-.54.76l-.19-.51-.27-.51c-.38-.77-.75-1.5-1.15-2.21a15.75,15.75,0,0,0-1.31-2,9,9,0,0,0-1.5-1.52.79.79,0,0,0-.55-.16,1.29,1.29,0,0,0-.21.06.69.69,0,0,0-.41.41,19,19,0,0,0-.59,2.77l-.06.45,0,.26c-.07.52-.14,1-.22,1.54a8.63,8.63,0,0,0-1.82-.1l-.48,0c-.28,0-.56.08-.85.13-.52-.68-1-1.43-1.52-2.27a23.33,23.33,0,0,0-1.44-2.17.7.7,0,0,0-.67-.3,1.09,1.09,0,0,0-.23.06.75.75,0,0,0-.41.41,26.35,26.35,0,0,0-1.4,4.32,31.74,31.74,0,0,0-.64,3.49c-.27-.24-.57-.5-.85-.8a11.4,11.4,0,0,1-1.51-2.28l-.11-.22-.13-.25-.26-.5-.31-.6c-.14-.29-.29-.56-.44-.85a9.94,9.94,0,0,0-1.51-2.14,5.64,5.64,0,0,0-1-.76,4.37,4.37,0,0,0-1.23-.51l-.36-.07a6.11,6.11,0,0,0-.93-.09,8.11,8.11,0,0,0-1,0l-.32,0a9.23,9.23,0,0,0-2,.59,13.57,13.57,0,0,0-3,1.78,25.73,25.73,0,0,0-4.39,4.32,33.88,33.88,0,0,0-2.3,3.19,27.1,27.1,0,0,0-1.56,2.8,36.91,36.91,0,0,0-1.94,5.09,17.59,17.59,0,0,0-.79,5.84.71.71,0,0,0,.09.28.81.81,0,0,0,.43.59.77.77,0,0,0,.39.07,1.09,1.09,0,0,0,.23-.06.71.71,0,0,0,.4-.38,10.34,10.34,0,0,1,1-2.12,7.07,7.07,0,0,1,1.12-1.32,5,5,0,0,1,1-.73l.28-.13a6.07,6.07,0,0,1,.84-.29,4.85,4.85,0,0,1,.55-.08,4.64,4.64,0,0,1,.64,0,5.47,5.47,0,0,1,1.3.23,6.48,6.48,0,0,1,1.26.58,6.88,6.88,0,0,1,1.21,1,7.46,7.46,0,0,1,1,1.4,9.45,9.45,0,0,1,.74,2c.08.34.13.7.18,1.06a.84.84,0,0,0,.23.47.92.92,0,0,0,.44.24h.22a.46.46,0,0,0,.2-.05.77.77,0,0,0,.46-.57c.09-.41.19-.83.31-1.23a8.84,8.84,0,0,1,.9-2,6.88,6.88,0,0,1,1-1.24,5.71,5.71,0,0,1,1-.72l.25-.11a4.72,4.72,0,0,1,.64-.21,2.9,2.9,0,0,1,.41-.06,3,3,0,0,1,.43,0,2.91,2.91,0,0,1,.79.14,4.47,4.47,0,0,1,.77.37,6.51,6.51,0,0,1,.76.63,7.88,7.88,0,0,1,.82,1.2,10.36,10.36,0,0,1,.79,2.12,7.32,7.32,0,0,1,.23.8.82.82,0,0,0,.6.21.64.64,0,0,0,.24-.07A.5.5,0,0,0,650,205a14.43,14.43,0,0,1,2.12-2.69,6.61,6.61,0,0,1,1.19-.86l1.15,1,.76.65c.61.51,1.34,1.1,2.08,1.64a14.93,14.93,0,0,0,2.33,1.45,3.72,3.72,0,0,0,2,.45,4.45,4.45,0,0,0,1.15-.3,5.2,5.2,0,0,0,1.3-.79,11.3,11.3,0,0,0,1.93-2,35.44,35.44,0,0,0,2.36-3.85,3.32,3.32,0,0,1,1.36.45,14.18,14.18,0,0,1,2.55,2.08.8.8,0,0,0,.66.25.52.52,0,0,0,.2-.06.61.61,0,0,0,.29-.2l.13-1.23a11.3,11.3,0,0,1,.28-1.93,7.12,7.12,0,0,1,.55-1.34,5.77,5.77,0,0,1,.6-.78,4.36,4.36,0,0,1,.67-.54l.39-.18.37-.13a3.7,3.7,0,0,1,.48-.07h0l.33,0a5.38,5.38,0,0,1,.94.12,6.83,6.83,0,0,1,1.13.48,7.86,7.86,0,0,1,1.25,1,9.79,9.79,0,0,1,1.31,1.72c.2.36.39.75.56,1.13a.76.76,0,0,0,.79.47.52.52,0,0,0,.22-.06.68.68,0,0,0,.36-.33.7.7,0,0,0,.13-.5c0-.36-.05-.73-.05-1.08a8.69,8.69,0,0,1,.29-2.07,8.42,8.42,0,0,1,.66-1.59,7.52,7.52,0,0,1,1-1.26,8,8,0,0,1,1-.83c.3-.14.5-.24.7-.32s.4-.14.6-.2a6.21,6.21,0,0,1,.73-.13l.45,0a4.63,4.63,0,0,1,1.18.16,6.37,6.37,0,0,1,1.18.48,7.24,7.24,0,0,1,1.32,1,10.15,10.15,0,0,1,1.45,1.9.73.73,0,0,0,.51.29h.21a.64.64,0,0,0,.19,0l.17-.09a.87.87,0,0,0,.3-.51h0v-.19a.64.64,0,0,0,0-.27,17.83,17.83,0,0,0-2-5.53,37.22,37.22,0,0,0-3-4.54,25,25,0,0,0-2.14-2.4,35,35,0,0,0-2.93-2.6,24.74,24.74,0,0,0-5.24-3.26,11.5,11.5,0,0,0-5.45-1.21Z"/><path class="cls-3" d="M511.25,238.2l.34.17a12.15,12.15,0,0,1,1.29.75,12.57,12.57,0,0,1,1.09.78l.38.33a7.05,7.05,0,0,1,1.2,1.34,6.44,6.44,0,0,1,.71,1.33,9.89,9.89,0,0,1,.55,2.88c0,.59,0,1.18,0,1.77v1.12a11.3,11.3,0,0,0,.47,3c.15.39.31.73.46,1l.43-.37.51-.34c.75-.52,1.48-1,2.24-1.45a14.9,14.9,0,0,1,2.37-1.15,10.71,10.71,0,0,1,2.48-.6,1.45,1.45,0,0,1,.78.16,1.67,1.67,0,0,1,.26.17,1,1,0,0,1,.41.63,14.91,14.91,0,0,1-.12,3l-.07.47,0,.27c-.07.53-.14,1.07-.2,1.59a15.55,15.55,0,0,1,2.44.93l.61.29c.37.19.72.4,1.09.61.9-.36,1.78-.8,2.74-1.3a27.6,27.6,0,0,1,2.61-1.26,1.22,1.22,0,0,1,1,.1,1.52,1.52,0,0,1,.28.18,1.12,1.12,0,0,1,.42.63,23.15,23.15,0,0,1,.45,4.9,24.26,24.26,0,0,1-.3,3.68c.44-.08.92-.15,1.39-.28a10.9,10.9,0,0,0,2.74-1.32l.22-.15.25-.16.5-.34.6-.39.86-.56a10,10,0,0,1,2.7-1.18,6.37,6.37,0,0,1,1.51-.18,7.39,7.39,0,0,1,1.8.21c.16,0,.32.08.49.13a13.83,13.83,0,0,1,2.53,1l.41.21a18.44,18.44,0,0,1,2.5,1.7,24.56,24.56,0,0,1,3.44,3.41,37.39,37.39,0,0,1,4.4,6.59,41.58,41.58,0,0,1,2,4.33,29.91,29.91,0,0,1,1.16,3.54,35.83,35.83,0,0,1,.91,5.95,13.31,13.31,0,0,1-.84,6,.63.63,0,0,1-.21.22.91.91,0,0,1-.77.32,1.56,1.56,0,0,1-.53-.16,1.82,1.82,0,0,1-.29-.19,1.06,1.06,0,0,1-.41-.58,9.92,9.92,0,0,0-.59-2.57,9.81,9.81,0,0,0-1.05-1.89,8.72,8.72,0,0,0-1.12-1.27l-.33-.28a9.62,9.62,0,0,0-1-.74c-.23-.15-.46-.27-.7-.4s-.56-.27-.85-.39a10.42,10.42,0,0,0-1.78-.51,9.69,9.69,0,0,0-1.85-.15,8.35,8.35,0,0,0-1.95.29,7.1,7.1,0,0,0-1.77.77,7.38,7.38,0,0,0-1.61,1.44,8.73,8.73,0,0,0-.58.91.76.76,0,0,1-.46.32,1.33,1.33,0,0,1-.66,0,1.28,1.28,0,0,1-.29-.12,1.2,1.2,0,0,1-.25-.16,1,1,0,0,1-.42-.81c0-.44,0-.89,0-1.35a9.14,9.14,0,0,0-.55-2.36,8.86,8.86,0,0,0-1-1.76,10.66,10.66,0,0,0-1.06-1.23l-.3-.24a7.18,7.18,0,0,0-.78-.57c-.17-.1-.33-.19-.52-.28a5.64,5.64,0,0,0-.55-.27,6.49,6.49,0,0,0-1.09-.31,7.08,7.08,0,0,0-1.15-.08,5.89,5.89,0,0,0-1.2.18,7.45,7.45,0,0,0-1.48.66,16.77,16.77,0,0,0-2.3,2.21,1.38,1.38,0,0,1-.85-.13,1.54,1.54,0,0,1-.31-.21.83.83,0,0,1-.29-.35,18.58,18.58,0,0,0-1.94-3.77,12.26,12.26,0,0,0-1.28-1.48l-1.85.3-1.22.18c-1,.15-2.13.3-3.28.39a23.1,23.1,0,0,1-3.55.07,7.29,7.29,0,0,1-2.86-.73,9.8,9.8,0,0,1-1.41-.94,9,9,0,0,1-1.48-1.48,16.75,16.75,0,0,1-1.88-3,40.07,40.07,0,0,1-1.87-5,5.68,5.68,0,0,0-1.95-.34,18.9,18.9,0,0,0-4.05.53,1.37,1.37,0,0,1-1-.13,1.13,1.13,0,0,1-.24-.17,1.19,1.19,0,0,1-.32-.36l.23-1.24a7.63,7.63,0,0,0,.25-2,6.07,6.07,0,0,0-.29-1.59,6,6,0,0,0-.53-1.08,6.85,6.85,0,0,0-.71-.88l-.46-.4c-.14-.12-.29-.22-.44-.33l-.62-.35h0l-.43-.2a9.14,9.14,0,0,0-1.28-.41,11.11,11.11,0,0,0-1.65-.18,9.88,9.88,0,0,0-2,.23,9.26,9.26,0,0,0-2.28.89,10.86,10.86,0,0,0-1.11.76,1.14,1.14,0,0,1-1.2,0l-.27-.18a1.12,1.12,0,0,1-.37-.52.61.61,0,0,1,0-.56,8.05,8.05,0,0,0,.41-1,6.69,6.69,0,0,0,.28-2.13,7.53,7.53,0,0,0-.36-1.88,8.93,8.93,0,0,0-.87-1.75,12.16,12.16,0,0,0-1.07-1.36l-.82-.71c-.24-.18-.49-.36-.73-.52a9.74,9.74,0,0,0-.93-.54c-.19-.09-.39-.19-.59-.27a9.81,9.81,0,0,0-1.61-.52,10.39,10.39,0,0,0-1.72-.2,9,9,0,0,0-2.07.21,10.65,10.65,0,0,0-2.54,1,1.16,1.16,0,0,1-.76,0l-.27-.13a1,1,0,0,1-.25-.16,1.66,1.66,0,0,1-.19-.18.91.91,0,0,1-.23-.64h0a.86.86,0,0,1,.06-.19.47.47,0,0,1,.07-.27,13.59,13.59,0,0,1,4.48-4.11,35.6,35.6,0,0,1,5.46-2.62,28.87,28.87,0,0,1,3.6-1.08,43.35,43.35,0,0,1,4.73-.82,37.11,37.11,0,0,1,8-.15,21.71,21.71,0,0,1,7.6,1.93Z"/><path class="cls-3" d="M856.33,350l.34.17A14.54,14.54,0,0,1,858,351c.37.24.74.5,1.09.78l.37.32a7.13,7.13,0,0,1,1.21,1.35,6.2,6.2,0,0,1,.71,1.33,9.51,9.51,0,0,1,.54,2.88c0,.59,0,1.17,0,1.76v1.13a11.42,11.42,0,0,0,.48,3,10.15,10.15,0,0,0,.46,1l.42-.38.52-.34c.75-.51,1.48-1,2.24-1.44a13.38,13.38,0,0,1,2.37-1.15,11.12,11.12,0,0,1,2.48-.61,1.42,1.42,0,0,1,.77.17,1.3,1.3,0,0,1,.26.17,1,1,0,0,1,.42.63,14.27,14.27,0,0,1-.13,3l-.06.47,0,.26c-.08.54-.15,1.07-.21,1.6a16.57,16.57,0,0,1,2.44.92l.62.3q.54.29,1.08.6a25.91,25.91,0,0,0,2.75-1.3,25.22,25.22,0,0,1,2.61-1.25,1.22,1.22,0,0,1,1,.09,2.67,2.67,0,0,1,.28.19,1.13,1.13,0,0,1,.41.62,23.27,23.27,0,0,1,.45,4.9,25.67,25.67,0,0,1-.29,3.69c.43-.08.92-.15,1.38-.28a11.16,11.16,0,0,0,2.75-1.32l.21-.15.26-.17.49-.33L889,373c.28-.19.56-.38.86-.56a10,10,0,0,1,2.69-1.18,7,7,0,0,1,1.52-.19,7.29,7.29,0,0,1,1.79.22,3,3,0,0,1,.49.13,12.91,12.91,0,0,1,1.26.44,11.91,11.91,0,0,1,1.27.58l.41.21a18,18,0,0,1,2.51,1.71,25,25,0,0,1,3.43,3.4,38.14,38.14,0,0,1,4.4,6.59,41.77,41.77,0,0,1,2,4.34,31.61,31.61,0,0,1,1.15,3.54,33.86,33.86,0,0,1,.91,5.95,13.11,13.11,0,0,1-.84,6,.5.5,0,0,1-.21.22.84.84,0,0,1-.76.32,1.67,1.67,0,0,1-.54-.15,2.43,2.43,0,0,1-.29-.19,1.07,1.07,0,0,1-.4-.59,8.56,8.56,0,0,0-1.64-4.45,10.16,10.16,0,0,0-1.12-1.28l-.33-.27a9.89,9.89,0,0,0-1-.75c-.23-.14-.46-.26-.7-.39s-.56-.28-.84-.39a9.23,9.23,0,0,0-3.64-.67,9.46,9.46,0,0,0-1.94.29,7.34,7.34,0,0,0-1.77.78,6.93,6.93,0,0,0-1.61,1.44,7.35,7.35,0,0,0-.58.91.75.75,0,0,1-.47.32,1.19,1.19,0,0,1-.65,0,1.06,1.06,0,0,1-.29-.11,2,2,0,0,1-.26-.16,1,1,0,0,1-.42-.81c0-.44,0-.9,0-1.35a9.47,9.47,0,0,0-.55-2.36,8.58,8.58,0,0,0-2-3l-.29-.25c-.3-.24-.54-.4-.78-.56l-.52-.29-.56-.26a6,6,0,0,0-1.09-.31,6.93,6.93,0,0,0-1.14-.09,7.83,7.83,0,0,0-1.21.18,7.5,7.5,0,0,0-1.48.67,8.34,8.34,0,0,0-1.72,1.58,4.84,4.84,0,0,0-.57.63,1.59,1.59,0,0,1-.86-.13,2.09,2.09,0,0,1-.3-.21.91.91,0,0,1-.3-.35,17.84,17.84,0,0,0-1.94-3.77,10.16,10.16,0,0,0-1.28-1.48l-1.84.29-1.22.19c-1,.15-2.13.29-3.29.39a21.93,21.93,0,0,1-3.55.06,7.29,7.29,0,0,1-2.86-.72,9.8,9.8,0,0,1-1.41-.94,9,9,0,0,1-1.47-1.48,16.21,16.21,0,0,1-1.88-3,40.2,40.2,0,0,1-1.87-5,6,6,0,0,0-2-.34,19.4,19.4,0,0,0-4,.54,1.43,1.43,0,0,1-1-.13,1.16,1.16,0,0,1-.24-.18,1,1,0,0,1-.32-.35l.22-1.24a7.67,7.67,0,0,0,.26-2,6.43,6.43,0,0,0-.29-1.59,6.81,6.81,0,0,0-.54-1.08,6.12,6.12,0,0,0-.7-.89l-.47-.4-.44-.33c-.19-.11-.4-.23-.62-.34h0l-.43-.2a10.67,10.67,0,0,0-1.28-.42,8.57,8.57,0,0,0-3.63.05,10,10,0,0,0-2.28.9,11.94,11.94,0,0,0-1.1.76,1.16,1.16,0,0,1-1.2,0,1.93,1.93,0,0,1-.27-.19,1.06,1.06,0,0,1-.38-.51.61.61,0,0,1,0-.56,8.8,8.8,0,0,0,.42-1,7,7,0,0,0,.28-2.13,7.61,7.61,0,0,0-.36-1.89,9.78,9.78,0,0,0-.88-1.74,12.13,12.13,0,0,0-1.06-1.36l-.83-.71c-.24-.19-.48-.36-.72-.53s-.62-.37-.94-.53-.38-.19-.58-.28a11.42,11.42,0,0,0-1.62-.51,10.12,10.12,0,0,0-1.71-.21,9.64,9.64,0,0,0-2.07.22,10.24,10.24,0,0,0-2.54,1,1.1,1.1,0,0,1-.76,0l-.28-.12a1.09,1.09,0,0,1-.24-.16,1.8,1.8,0,0,1-.2-.18,1,1,0,0,1-.22-.65h0s0,0,.06-.18a.43.43,0,0,1,.06-.27,13.72,13.72,0,0,1,4.49-4.11,35.21,35.21,0,0,1,5.46-2.63,30.19,30.19,0,0,1,3.6-1.07,42.76,42.76,0,0,1,4.72-.82,37.22,37.22,0,0,1,8-.15,22,22,0,0,1,7.6,1.92Z"/><path class="cls-9" d="M41.12,955.89s-63.3-210,45.37-243.79c59-18.36,116.55-3.43,133.14,48.72C233.6,804.7,72.24,915.33,69,973.19Z"/><polygon class="cls-9" points="95.34 730.64 87.59 669.97 73.84 693.8 54.06 683.61 43.98 646.04 89.92 646.88 79.83 609.31 125.52 606.35 145.29 616.53 120.13 641.1 170.6 653.13 156.36 669.34 118.05 668 125.55 724.86 95.34 730.64"/><path class="cls-3" d="M228.48,779.36C214.82,736.43,186.29,718,143.73,723l-5.91-44.78,38.32,1.34-5.54-26.41-30.7-1.83,5.39-34.76-45.68,3,6,34-41.88,2.71L73.84,693.8l33.52-13.64,6.33,49.48C6,764.13,69,973.19,69,973.19l167-18.46C239.26,896.86,242.45,823.25,228.48,779.36Z"/><path class="cls-9" d="M321.05,809.22c9.94-34.81,31.3-50.13,63.45-46.71l4.08-36.19L359.69,728l3.95-21.37,23.14-1.92-4.36-27.95,34.49,1.72L412.65,706l31.61,1.58L437,738l-25.41-10.52-4.35,40C488.76,793.71,443,963.22,443,963.22L316.85,950.75C313.92,904.13,310.89,844.81,321.05,809.22Z"/><path class="cls-3" d="M321.07,819.77c10.07-34.8,31.75-50.11,64.39-46.65l4.11-36.2-29.33,1.62,4-21.37,23.5-1.91-4.45-28,35,1.75L414,716.57l32.1,1.61-7.37,30.44-25.8-10.53-4.39,40C491.34,804.4,445,973.88,445,973.88L316.92,961.31C313.91,914.69,310.78,855.36,321.07,819.77Z"/><path class="cls-10" d="M137.13,940.82c0,28.5,27.33,24.44,54,24.44s48.35,1.34,48.35-27.16-21.64-65.2-48.35-65.2S137.13,912.31,137.13,940.82Z"/><path class="cls-7" d="M205.38,972.44c0,3,2.68,4.69,5.82,4.69s5.56-1.69,5.56-4.69a5.7,5.7,0,0,0-11.38,0Z"/><path class="cls-7" d="M188.32,973.41c0,3,3.66,4.7,7.59,4.7s6.63-1.7,6.63-4.7-3.18-5.43-7.11-5.43S188.32,970.41,188.32,973.41Z"/><path class="cls-7" d="M173.3,974c0,2.25,3.18,4.08,7.11,4.08s7.11-1.83,7.11-4.08-3-5.63-6.91-5.63S173.3,971.75,173.3,974Z"/><path class="cls-7" d="M173.3,973c0,2.25-3,3.13-7,3.13s-7.25-.88-7.25-3.13,3.33-5.64,7.25-5.64S173.3,970.78,173.3,973Z"/><path class="cls-11" d="M231.19,926.08a39.11,39.11,0,0,1-.28,4.65c-1.33,10.53-11.81,16.21-18.69,16.21-7.85,0-12.52-11-12.52-23.78s6.37-23.34,14.22-23.09C217.32,900.18,231.19,913.33,231.19,926.08Z"/><path class="cls-11" d="M151,932.33c0,12.75,4.47,16.63,13.11,16.63,6.61,0,12.13-2.23,14.42-10.79a69.58,69.58,0,0,0,1.22-12.3c0-12.75,2.32-21.79-6.32-21.79-4.32,0-12.47,7.51-15.3,11.69S151,926,151,932.33Z"/><path class="cls-11" d="M158.75,947.85l-4.54-2.59s-9.18-6.51-10.3-16c0,0,6.41,9.25,17.89,10.62S158.75,947.85,158.75,947.85Z"/><path class="cls-11" d="M186.73,950.83c0-3.75,1.1-8.76-2-8.76s-5.51,5.38-7.14,8.76,1.94,6.28,5.08,6.28S186.73,954.58,186.73,950.83Z"/><path class="cls-11" d="M190.15,950.83c0-3.75-1-8.76,1.87-8.76s5.07,5.38,6.57,8.76-1.79,6.28-4.68,6.28S190.15,954.58,190.15,950.83Z"/><path class="cls-12" d="M191.16,872.9c-12.22,0-24.57,8.26-34.37,20,8.88-8.84,19.28-14.71,29.58-14.71,26.7,0,48.35,36.68,48.35,65.19,0,7-1.31,12.17-3.66,16,5.33-3.92,8.45-10.44,8.45-21.26C239.51,909.59,217.86,872.9,191.16,872.9Z"/><path class="cls-13" d="M145.78,919.42a76.46,76.46,0,0,0-1.52,11,46.66,46.66,0,0,0-.09,5.41,36.67,36.67,0,0,0,.48,5.2,17.06,17.06,0,0,0,1.55,4.68c.68,1.42,1.23,2.75,1.82,4.08a32.84,32.84,0,0,0,2.12,4.1c.88,1.43,2,2.84,3.27,4.63l-.3.74a11.72,11.72,0,0,1-6.48-.94,14.72,14.72,0,0,1-5.37-4.25,13.31,13.31,0,0,1-2.68-6.2,36.91,36.91,0,0,1-.32-6.41,42.9,42.9,0,0,1,.61-6.06,51.85,51.85,0,0,1,1.46-5.74A53,53,0,0,1,145,919.11Z"/><path class="cls-11" d="M220,944.8l4.32-1.77s9-4.82,11.8-13.95c0,0-7.2,8-17.09,7.38S220,944.8,220,944.8Z"/><path class="cls-10" d="M306.6,937.3c0,19-8.7,28.45-34.74,28.45s-52.12-7.09-52.12-26.08,13.67-45,39.71-45S306.6,918.32,306.6,937.3Z"/><path class="cls-7" d="M286.75,969.3c0,2,1.75,3.05,3.8,3.05s3.64-1.08,3.64-3.05a3.72,3.72,0,0,0-7.44,0Z"/><path class="cls-7" d="M285.15,972.34c0,2-1.44,2.56-3.5,2.56s-3.94-.59-3.94-2.56a3.72,3.72,0,0,1,7.44,0Z"/><path class="cls-7" d="M274.34,972.86c0,2.62-2.54,2.91-5.14,3.74s-4.79-1.12-4.79-3.74a5,5,0,0,1,9.93,0Z"/><path class="cls-7" d="M261.93,970.49c0,2.62-2.66,3.56-6.08,3.56s-6.33-.94-6.33-3.56,2.78-4.74,6.21-4.74S261.93,967.87,261.93,970.49Z"/><path class="cls-11" d="M271.86,937.3c0,5-.73,8.81-5,11.85-3.47,2.5-7.47,2.38-12.4,2.38-6.86,0-13.81-2.7-17.37-7.12-2.15-2.64-5-3.67-5-7.11,0-9.16,8.89-16.59,19.85-16.59a21.54,21.54,0,0,1,15.34,6A15,15,0,0,1,271.86,937.3Z"/><path class="cls-11" d="M282.54,956.2c0,4.25-.89,5.95-2.67,5.95s-2.35-3.27-2.35-5.88-.11-5.17.57-5.17S282.54,953.58,282.54,956.2Z"/><path class="cls-11" d="M268.67,958.3c-.79,3.19,2,4.7,4.09,4.7s3.36-1.43,3.36-4.7-.69-7.2-1.58-7.2C272.76,951.1,269.2,956.2,268.67,958.3Z"/><path class="cls-12" d="M257.17,901.1c26,0,47.15,23.69,47.15,42.67a43.84,43.84,0,0,1-.88,9.23c2.21-4.2,3.16-9.43,3.16-15.7,0-19-21.11-42.66-47.15-42.66-20.48,0-33.3,16.11-37.85,32.23C227.45,913.18,239.44,901.1,257.17,901.1Z"/><path class="cls-11" d="M301.64,939.67c1.5-4.29,2.59-11.61,0-14.22-1.91-1.91-4.84-2.37-7.45-2.37-6.17,0-7.44,4.74-9.93,11.85s-2,11.65,0,14.22,5.61,2.38,8.69,2.38C296.67,951.53,299.15,946.78,301.64,939.67Z"/><path class="cls-13" d="M225.44,925.73a42.07,42.07,0,0,0,.43,10.26,25.19,25.19,0,0,0,1.21,4.69,18.2,18.2,0,0,0,1.94,4.07,10.91,10.91,0,0,0,2.93,3,24.4,24.4,0,0,1,3.07,2.53c1,.91,2.12,2,3.4,3,.61.6,1.31,1.09,2,1.76a27.17,27.17,0,0,1,2.17,2.07l-.14.89a13.49,13.49,0,0,1-3,1,13.76,13.76,0,0,1-3.07.27,15.61,15.61,0,0,1-6.14-1.41,12.66,12.66,0,0,1-5-4.26,26,26,0,0,1-2.78-5.84,24.91,24.91,0,0,1-1.29-5.94,30.17,30.17,0,0,1,.17-5.8,33.27,33.27,0,0,1,3.21-10.58Z"/><path class="cls-11" d="M244.48,949.46l-4.87-1.91s-10-5.12-12.51-14.36c0,0,7.68,8.22,19.24,7.92S244.48,949.46,244.48,949.46Z"/><path class="cls-11" d="M293,951.57l3.2-1.32s6.67-3.6,8.75-10.39c0,0-5.34,5.94-12.69,5.52S293,951.57,293,951.57Z"/><rect class="cls-3" x="813.09" y="663.41" width="20.33" height="72.78" rx="10.17" transform="translate(1206.31 -310.51) rotate(70.4)"/><path class="cls-3" d="M849.5,705.91l3.5-2.83c.94-.76.84-2-.19-2.34l-6-2.27,7.65-7.48c.86-.85.29-2-1-1.92l-9.86.72,2.74-4a2.66,2.66,0,0,0-1.83-4.29l-4.26-.83,16.58-6.06c8.6-3.14,17.64-.2,20.11,6.55l.12.32c2.56,7-2.61,15.35-11.46,18.59Z"/><path class="cls-3" d="M920.94,757.53a123.09,123.09,0,0,0,2.3-24.56c0-34.24-11.46-61.67-38.56-61.67s-38.54,27.76-38.54,62a123.67,123.67,0,0,0,2.23,24.23l29.07,1.91a108.29,108.29,0,0,0,14.07,0Z"/><rect class="cls-3" x="876.53" y="701.54" width="25.3" height="40.9" rx="12.65" transform="translate(127.38 -133.33) rotate(9.23)"/><path class="cls-3" d="M906.15,720.32,904.74,716a1.77,1.77,0,0,0-2.74-.87l-5.66,4.24-4.55-10a1.46,1.46,0,0,0-2.65,0l-4.25,8.93-3.16-4.19a3.78,3.78,0,0,0-5.79-.31l-3.13,3.34,1.65-17.17a16.29,16.29,0,0,1,17.73-14.62l.42,0a16.82,16.82,0,0,1,15.15,18.29C907,712,906.15,720.32,906.15,720.32Z"/><path class="cls-3" d="M893.53,685.48a16.79,16.79,0,0,1,10.89,17.3c-.43,4.42-.85,8.83-1.16,12a1.77,1.77,0,0,1,1.48,1.21l1.41,4.32s.8-8.34,1.61-16.67A16.8,16.8,0,0,0,893.53,685.48Z"/><rect class="cls-3" x="859.85" y="806.99" width="18.63" height="51.16" rx="9.32" transform="translate(98.8 -92.18) rotate(6.44)"/><path class="cls-3" d="M886.9,778.91l-10.11-1-12.35-1.28s-5.81,8.73-7.86,22.54c-1,6.62-3.18,21.15-3.18,21.15a4.5,4.5,0,0,0,3.41,4.8c4,1,6.82,2,12.75,2.62,6.32.62,9.43.1,13.7-.06a4.5,4.5,0,0,0,4.3-4.06s1.43-15.44,2.06-21.83C890.93,788.29,886.9,778.91,886.9,778.91Z"/><rect class="cls-3" x="885.46" y="810.43" width="18.63" height="51.16" rx="9.32" transform="translate(-64.81 75.27) rotate(-4.65)"/><path class="cls-3" d="M920.59,757.45A28.68,28.68,0,0,1,922.88,769c0,16.1-11.45,29-38.56,29s-38.53-13-38.53-29.15A28.61,28.61,0,0,1,848,757.45L877.09,759c4.68-.15,9.39-.15,14.07,0Z"/><path class="cls-3" d="M879.34,779.47S875.05,789,875.28,803c.11,6.69.33,21.39.33,21.39a4.48,4.48,0,0,0,4.15,4.17c4.09.3,7.06.91,13,.5,6.33-.42,9.31-1.45,13.5-2.31a4.48,4.48,0,0,0,3.57-4.7s-1.1-15.46-1.54-21.87c-.91-13.49-6.41-22.08-6.41-22.08"/><path class="cls-3" d="M876.23,853.16h25.83a3.67,3.67,0,0,1,3.67,3.67v13.39a9.41,9.41,0,0,1-9.41,9.41H868.58a9.41,9.41,0,0,1-9.41-9.41v0a17.06,17.06,0,0,1,17.06-17.06Z"/><path class="cls-3" d="M850.73,851.52h25.83a3.67,3.67,0,0,1,3.67,3.67v13.39a9.41,9.41,0,0,1-9.41,9.41H843.08a9.41,9.41,0,0,1-9.41-9.41v0a17.06,17.06,0,0,1,17.06-17.06Z" transform="translate(-18.45 18.68) rotate(-1.24)"/><path class="cls-3" d="M825.34,758.4h0c-2.28-5.38,1.33-10.39,7.41-13L846.39,741c3.62-1,10.4-4.47,13.66-6.35l16.54-9.55c6.09-2.58,12.93-.29,15.22,5.1h0c2.29,5.38-.82,11.9-6.9,14.48l-9.63,2.53c-8.84,2.32-18.58,4.71-26.42,9.41l-9.78,5.71C833,764.89,827.63,763.79,825.34,758.4Z"/><path class="cls-3" d="M834.33,752c-.76-3.61-4.17-7.16-9-8.91-6.52-2.36-13.16-.52-14.83,4.09s2.26,10.27,8.78,12.63h0a1.11,1.11,0,0,1,.68,1.38c-1.93,5.88-.39,11.73,3.76,13.52,4.5,1.94,10.39-1.64,13.13-8C839.48,760.69,838.32,754.31,834.33,752Z"/><ellipse class="cls-3" cx="955.83" cy="609.27" rx="13.5" ry="15.27"/><ellipse class="cls-3" cx="825.69" cy="609.27" rx="9.83" ry="15.27"/><path class="cls-3" d="M826.69,590.41c0,46.75,27.76,84.65,62,84.65s62-37.9,62-84.65l.82-7.1s-2.87,6.55-17,1.17S919,584,917.35,585s-6.34,0-8,.93-21.68,19.64-25.57,13.56.82-11.22-2.66-12.15-8,1.87-10.84-1.17-12.48-.24-15.14-.24-7.77-4-12.07-3.88-15.26.45-16.4-6.84Z"/><path class="cls-3" d="M942.13,586.47c-1.65,47.3-26.57,85.29-57.79,88.38q2.16.21,4.35.21c34.24,0,62-37.9,62-84.65l.82-7.1S949.74,587.35,942.13,586.47Z"/><path class="cls-3" d="M857.89,612.1c-2.1-3-5.14-6-8.62-6.94-3.79-1-8.28,2.56-9.86,5.89s-1.44,7.5,0,11.45A54.2,54.2,0,0,1,834.8,619a37,37,0,0,0,8,9,15.48,15.48,0,0,0,20.67-.57C862.62,622.16,859.57,614.47,857.89,612.1Z"/><path class="cls-3" d="M849.58,605.27l-.31-.11a5.53,5.53,0,0,0-2.43-.08A9.74,9.74,0,0,1,849.58,605.27Z"/><path class="cls-3" d="M858.65,613.36c2.49,6.24.29,13-5,15.28s-11.93-1-14.61-7.3l-.06-.16c.12.44.26.88.41,1.32A54.2,54.2,0,0,1,834.8,619a37,37,0,0,0,8,9,15.48,15.48,0,0,0,20.67-.57A53.93,53.93,0,0,0,858.65,613.36Z"/><ellipse class="cls-3" cx="853.69" cy="623.09" rx="2.57" ry="3.14" transform="translate(-64.09 98.96) rotate(-6.39)"/><path class="cls-3" d="M895.24,612.63c2.52-3.57,6.17-7.26,10.34-8.42,4.55-1.27,9.93,3.11,11.82,7.15s1.72,9.11,0,13.91a65.31,65.31,0,0,0,5.48-4.2,44.58,44.58,0,0,1-9.59,10.9c-4.21,3.95-10.52,5.22-15.93,4a18.29,18.29,0,0,1-8.87-4.73C889.57,624.86,893.22,615.51,895.24,612.63Z"/><path class="cls-3" d="M905.2,604.34c.13,0,.25-.1.38-.13a6.35,6.35,0,0,1,2.91-.1A11.42,11.42,0,0,0,905.2,604.34Z"/><path class="cls-3" d="M894.33,614.17c-3,7.58-.34,15.82,6,18.56s14.3-1.19,17.52-8.86a1.18,1.18,0,0,1,.07-.2c-.15.53-.31,1.07-.5,1.6a65.31,65.31,0,0,0,5.48-4.2,44.58,44.58,0,0,1-9.59,10.9c-4.21,3.95-10.52,5.22-15.93,4a18.29,18.29,0,0,1-8.87-4.73A66.26,66.26,0,0,1,894.33,614.17Z"/><ellipse class="cls-3" cx="902.64" cy="611.73" rx="3.82" ry="3.08" transform="translate(199.89 1445.47) rotate(-84)"/><path class="cls-3" d="M879.09,642.61a7.82,7.82,0,0,1-1.58,4.84c-1,1.27-2.38-4.84-3.9-4.84s-2.87,6.13-3.86,4.89a7.77,7.77,0,0,1-1.63-4.89c0-3.81,2.16-9.89,5.19-9.89S879.09,638.8,879.09,642.61Z"/><path class="cls-3" d="M905.93,649.87c8.19,8.46-12.27,19.77-26.22,19.77s-30.15-13-24.3-19.77c3.11-3.61,11.57,11.72,25.26,9.07C886.86,657.74,898.51,642.21,905.93,649.87Z"/><path class="cls-3" d="M864.25,661.22a1.77,1.77,0,0,0,1.3-.57c.08-.08-.22-.16-.47-.33-1.25-.81-.91-2.36.17-2.53.46-.07.75,1.09.78.54v-2.94c-1.24-.8-2.39-1.65-3.44-2.44a1.75,1.75,0,0,0-.13.65v5.84A1.79,1.79,0,0,0,864.25,661.22Z"/><polygon class="cls-3" points="702.34 730.91 763.31 746.91 814.76 681.75 814.76 678.64 759.12 667.26 702.34 727.8 702.34 730.91"/><polygon class="cls-3" points="696.26 652.02 699.89 725.35 702.34 730.91 759.12 667.26 756.83 612.26 754.39 609.81 696.26 652.02"/><polygon class="cls-3" points="700.05 653.49 702.34 727.8 759.12 667.26 756.83 612.26 700.05 653.49"/><polygon class="cls-3" points="705.96 656.79 707.72 714.01 753.21 667.81 751.38 623.81 705.96 656.79"/><polygon class="cls-3" points="702.34 727.8 763.31 743.8 814.76 678.64 759.12 667.26 702.34 727.8"/><polygon class="cls-3" points="715.81 728.13 766.92 671.01 763.2 669.65 711.44 726.85 715.81 728.13"/><polygon class="cls-3" points="726.54 730.53 777.65 673.42 772.63 672.05 720.87 729.26 726.54 730.53"/><polygon class="cls-3" points="737.5 732.93 788.61 675.82 783.59 674.45 731.83 731.65 737.5 732.93"/><polygon class="cls-3" points="746.04 734.79 797.56 677.73 793.26 676.56 741.5 733.76 746.04 734.79"/><polygon class="cls-3" points="754.2 737.56 792.77 692.87 788.9 691.74 749.52 736.51 754.2 737.56"/><polygon class="cls-3" points="773.11 725.22 787.39 705.89 784.7 704.83 769.8 724.08 773.11 725.22"/><polygon class="cls-3" points="796.07 691.74 791.68 697.24 794.32 697.97 798.87 692.42 796.07 691.74"/><polygon class="cls-3" points="806.47 679.13 802.08 684.63 804.73 685.35 809.27 679.81 806.47 679.13"/><polygon class="cls-3" points="801.53 685.11 797.14 690.61 799.78 691.34 804.33 685.79 801.53 685.11"/><polygon class="cls-3" points="797.76 684 793.37 689.51 796.01 690.23 800.56 684.68 797.76 684"/><path class="cls-3" d="M953,576.13a10.87,10.87,0,0,0-6.59-5.26,8.29,8.29,0,0,0-2.57-.33l.4-.72c2.49-.66,4.41-2.77,5.89-4.93,1.94-2.82,3.54-6.21,2.88-9.56a8.29,8.29,0,0,0-6.81-6.39,8.82,8.82,0,0,0-6.69,1.92l-.39-1.81a14,14,0,0,0,3.11-8.43,8.15,8.15,0,0,0-.78-4.53c-1.42-2.52-4.64-3.34-7.52-3.65a10.07,10.07,0,0,0-4,.18,7.35,7.35,0,0,0-2.32,1.25l-1.79-1.39A13.25,13.25,0,0,0,924,524a14.85,14.85,0,0,0-8-6.2c-3.36-1.1-7.63-.75-9.63,2.15a6.13,6.13,0,0,0-1,3.84,4.47,4.47,0,0,0,.83,2.48,3.6,3.6,0,0,0,1.75,1.2l-.58.19-7-4.4a4.6,4.6,0,0,0-.12-2.93c-1.2-3.49-5.09-5.35-8.75-5.79a15,15,0,0,0-8.71,1.38,10.18,10.18,0,0,0-5.35,6.81l-1.7-.44a11.29,11.29,0,0,0-2.17-3.35,12,12,0,0,0-3.91-3c-3.48-1.52-7.6-.51-10.88,1.38a9.54,9.54,0,0,0-3.73,3.42,9.09,9.09,0,0,0-.94,4.34,10.5,10.5,0,0,0,.92,4.53l-.92,1.23-.48.55a12.17,12.17,0,0,0-6.3.38c-3.37,1.1-6.46,3.66-7.34,7.07a9.53,9.53,0,0,0-5,.46,8.85,8.85,0,0,0-5.32,7.22,10.32,10.32,0,0,0,3.31,8.46,11.11,11.11,0,0,0,5,2.67,13.77,13.77,0,0,0,1.8.29v.37l-.91,1a12.13,12.13,0,0,0-2.41.08c-5,.74-8,5.94-9.22,10.84-.9,3.71-1,8.06,1.57,10.86,3.09,3.34,8.37,2.91,12.88,2.17a6.76,6.76,0,0,0,4.05-1.25l.61.4h0a32.06,32.06,0,0,0,7.28,3.77,12.71,12.71,0,0,0,8.85,0c.72-.3,1.39-.69,2.08-1l5.22-.17a13.55,13.55,0,0,1,1.1,1.4c1.38,1.64,3.77,1.92,5.91,2a12.06,12.06,0,0,0,5.1-.53l-.36-.11.46.07-.1,0,.24.09.83,1.65c-.1,2.51-.21,5-.31,7.53-.08,1.75-.06,3.73,1.21,4.93a4.89,4.89,0,0,0,2.69,1.13,12.6,12.6,0,0,0,8-1.38c2.66-1.46,4.68-3.81,7-5.82,2-1.77,4.31-3.44,5.25-5.94l.09-.28,3.05-3.1h0l4.82-.26a16.3,16.3,0,0,0,4.11-.57,9.61,9.61,0,0,0,3.56-2.16l3.54.49A114.5,114.5,0,0,0,947,587.87a8,8,0,0,0,3.34-.23,5.7,5.7,0,0,0,3-3.15A9.73,9.73,0,0,0,953,576.13ZM845.7,582c.22-.16.44-.33.65-.51l-.05.82Zm1,.52,5.07,1.5-1.89.14Z"/><path class="cls-3" d="M841.67,581.55c-4.56.75-9.95,1.25-13.09-2.14-2.59-2.8-2.47-7.16-1.57-10.86,1.19-4.9,4.23-10.1,9.22-10.85,2.41-.36,4.93.41,7.27-.24s4.1-2.61,6.15-4a13.15,13.15,0,0,1,8.52-2.07,2.39,2.39,0,0,1,1.28.4,2.47,2.47,0,0,1,.75,1.24,17.61,17.61,0,0,1,1,6.23,4.18,4.18,0,0,1-.71,2.6,3.27,3.27,0,0,1-4,.44,9.61,9.61,0,0,1-3-3.18"/><path class="cls-3" d="M840.34,581.43c3.41.82,7.07-1.67,8.12-5a8.14,8.14,0,0,0,.28-3.7,9.68,9.68,0,0,0-3.42-5.81,14.58,14.58,0,0,0-6.16-2.92,2.52,2.52,0,0,0-3.44,2c-.67,1.75-.93,3.9.27,5.34a3.22,3.22,0,0,0,5.69-2.18"/><path class="cls-3" d="M845.44,580.28a34.55,34.55,0,0,0,8,4.22,12.77,12.77,0,0,0,8.85,0c1.21-.52,2.32-1.28,3.57-1.7a3.8,3.8,0,0,1,3.73.48,12.56,12.56,0,0,1,1.1,1.4c1.38,1.64,3.77,1.92,5.91,2,2.51.15,5.44.07,7-1.91a6,6,0,0,0,1.07-3.76,12.42,12.42,0,0,0-11.92-11.95,4.06,4.06,0,0,0-2,.38,3.25,3.25,0,0,0-1.41,1.7c-1.35,3.38,1.57,7.16,5,8.42a4.57,4.57,0,0,0,3.64.1c1.11-.58,1.69-2.22.84-3.13"/><path class="cls-3" d="M882.76,587.34l-.34,8.1c-.08,1.75-.06,3.73,1.21,4.93a4.89,4.89,0,0,0,2.69,1.13,12.6,12.6,0,0,0,8-1.38c2.66-1.46,4.68-3.81,7-5.82,2-1.77,4.31-3.44,5.25-5.95a6.6,6.6,0,0,0-8.24-8.58c-3.19,1.05-5.13,4.4-5.64,7.72-.19,1.28,0,3,1.29,3.26a2.39,2.39,0,0,0,2.38-1.37,6.19,6.19,0,0,0,.88-3.49"/><path class="cls-3" d="M842.49,556.36a21.58,21.58,0,0,1-4.75-.4,11.3,11.3,0,0,1-5-2.67,10.33,10.33,0,0,1-3.31-8.46,8.85,8.85,0,0,1,5.32-7.22,10.17,10.17,0,0,1,6.34-.18"/><path class="cls-3" d="M843.47,549.78c-2.35-1.18-3.17-4.08-3.64-6.67a14.65,14.65,0,0,1-.24-5.59c.73-3.6,3.93-6.31,7.43-7.44a11,11,0,0,1,9.21.81,8.4,8.4,0,0,1,3.38,4.35,6.88,6.88,0,0,1-.71,6.1,5.08,5.08,0,0,1-5.59,2,6.23,6.23,0,0,1-3.67-4.67,2.14,2.14,0,0,1,.07-1.5,1.92,1.92,0,0,1,.89-.75,5,5,0,0,1,6.31,2.13"/><path class="cls-3" d="M907.86,585.08l6.61-.36a16.31,16.31,0,0,0,4.11-.58,10.57,10.57,0,0,0,5.17-4,13.42,13.42,0,0,0,2.35-10.73,11.2,11.2,0,0,0-7.21-8.08,5.73,5.73,0,0,0-4,0,5.05,5.05,0,0,0-2.11,1.86,6.64,6.64,0,0,0-.42,6.69,5.84,5.84,0,0,0,5.88,3,3.52,3.52,0,0,0,2.47-1.44,2.1,2.1,0,0,0-.31-2.68"/><path class="cls-3" d="M922.69,581.61a113.67,113.67,0,0,0,24.11,4.57,7.83,7.83,0,0,0,3.34-.23,5.65,5.65,0,0,0,3-3.14,9.75,9.75,0,0,0-.34-8.37,10.89,10.89,0,0,0-6.59-5.25,7.3,7.3,0,0,0-3.47-.22,5.21,5.21,0,0,0-1.73,9.44,4.08,4.08,0,0,0,4.46.13,2.84,2.84,0,0,0,.56-4.12"/><path class="cls-3" d="M943.51,568.26c2.77-.46,4.87-2.73,6.46-5,1.94-2.82,3.54-6.21,2.89-9.57a8.3,8.3,0,0,0-6.82-6.38,9,9,0,0,0-8.56,4,7.19,7.19,0,0,0-.88,6.35,5,5,0,0,0,5.22,3.24"/><path class="cls-3" d="M935.64,558.5a8.24,8.24,0,0,0-2.31-6.18,10.54,10.54,0,0,0-6-3c-1.33-.22-2.89-.11-3.7,1a3.62,3.62,0,0,0-.59,2.19c-.09,4.56,2.82,8.84,6.71,11.22s8.62,3.06,13.18,2.82"/><path class="cls-3" d="M938.07,548.27c2.61-2.3,3.8-5.86,4-9.33a8.15,8.15,0,0,0-.78-4.53c-1.42-2.53-4.64-3.35-7.52-3.65a10.07,10.07,0,0,0-4,.18,8.14,8.14,0,0,0-3.08,1.89,10.74,10.74,0,0,0-3.58,6.25,6.9,6.9,0,0,0,2.56,6.51,2.65,2.65,0,0,0,1.48.56,2.78,2.78,0,0,0,2.32-1.89c1.21-2.73.52-6.38,2.75-8.37"/><path class="cls-3" d="M922,550.4a15.43,15.43,0,0,0-7.22-5.43,32.88,32.88,0,0,0-8.95-1.86c-1.83-.17-3.82-.23-5.35.8a6.29,6.29,0,0,0-2.06,2.68c-.94,2.1-1.19,4.69.09,6.61a8.4,8.4,0,0,0,3.46,2.64,11.26,11.26,0,0,0,6,1.41,5.15,5.15,0,0,0,4.59-3.69c.43-2-1.41-4.42-3.48-4.06"/><path class="cls-3" d="M906.9,568.3l-4.37-.83a7,7,0,0,0-3.48-.07,2.38,2.38,0,0,0-1.74,2.67c-.18-2-2.15-3.45-4.13-3.67a10.56,10.56,0,0,0-5.71,1.43"/><path class="cls-3" d="M875.65,568.73a12.16,12.16,0,0,1-5.45-6.93,9.24,9.24,0,0,1,1.75-8.48,11.9,11.9,0,0,1,3.37-2.55,13.8,13.8,0,0,1,5.9-1.8,7.75,7.75,0,0,1,5.71,2,7.61,7.61,0,0,1,2.13,5.37c0,2.79-1.62,5.89-4.38,6.28a3,3,0,0,1-1.58-.17,3.62,3.62,0,0,1-1.39-1.13,4.65,4.65,0,0,1-1.15-3.82,2.6,2.6,0,0,1,3.05-2l.53.38"/><path class="cls-3" d="M858.74,551.91a21.47,21.47,0,0,0,10.13.46,12.79,12.79,0,0,0,8.21-5.66,9,9,0,0,0,1.12-6.55,7,7,0,0,0-4.28-4.94,5.69,5.69,0,0,0-6.19,1.62,7.23,7.23,0,0,0-1.32,4.95,2.93,2.93,0,0,0,.3,1.27,2.86,2.86,0,0,0,1,.93,4.21,4.21,0,0,0,3.36.69c1.13-.35,1.93-1.8,1.27-2.78"/><path class="cls-3" d="M885.78,549.4a17.42,17.42,0,0,1-6.71-9.25c-.79-2.67-.87-5.72.63-8.06,1.9-3,6.12-4,9.38-2.63a10.19,10.19,0,0,1,5.81,8.25,6.73,6.73,0,0,1-.13,2.49,4.6,4.6,0,0,1-1.18,2,4.13,4.13,0,0,1-5.37.43,3.33,3.33,0,0,1,.12-5.1"/><path class="cls-3" d="M857.28,530.63c-2.56-1.22-3.5-4.41-3.48-7.25a9.08,9.08,0,0,1,.94-4.33,9.47,9.47,0,0,1,3.73-3.42c3.28-1.9,7.4-2.9,10.88-1.38a12,12,0,0,1,3.91,3c1.91,2.07,3.42,5,2.3,7.64a8.57,8.57,0,0,1-3.21,3.34,5.22,5.22,0,0,1-3.55,1.32,4.87,4.87,0,0,1-2.65-1.64,6.39,6.39,0,0,1-2.18-4.12c0-1.59,1.47-3.24,3-2.8"/><path class="cls-3" d="M877.13,521a10.15,10.15,0,0,1,5.35-6.81,14.9,14.9,0,0,1,8.71-1.38c3.66.44,7.55,2.3,8.75,5.79a4.6,4.6,0,0,1,.12,2.93,5.18,5.18,0,0,1-1.1,1.75A8.17,8.17,0,0,1,891.9,526a6.35,6.35,0,0,1-5.3-5.09,3.53,3.53,0,0,1,.66-2.81,2.08,2.08,0,0,1,2.67-.46"/><path class="cls-3" d="M907.66,530.74A2.64,2.64,0,0,1,910.6,532a6,6,0,0,1,.72,3.33,2.71,2.71,0,0,1-.24,1.23,2.33,2.33,0,0,1-.82.8,5.72,5.72,0,0,1-8.77-5.06,3.09,3.09,0,0,1,.35-1.4,3.43,3.43,0,0,1,.77-.84,8.71,8.71,0,0,1,6.79-2.33,6.45,6.45,0,0,1,5.1,4.44"/><path class="cls-3" d="M916.34,539.64l4.78-2.48a9.8,9.8,0,0,0,2.6-1.72,7.2,7.2,0,0,0,1.66-3.22,13.09,13.09,0,0,0-1.6-10,14.86,14.86,0,0,0-8-6.21c-3.36-1.09-7.63-.74-9.63,2.16a6.13,6.13,0,0,0-1,3.84,4.47,4.47,0,0,0,.83,2.48c1.32,1.7,3.88,1.7,6,1.23,1.56-.34,3.3-1.08,3.69-2.62"/></g><circle class="cls-7" cx="172.25" cy="115.19" r="12.29"/><circle class="cls-14" cx="172.25" cy="115.19" r="7.19"/><circle class="cls-11" cx="172.25" cy="115.19" r="4.41"/><circle class="cls-13" cx="168.54" cy="111.94" r="2.09"/><path class="cls-15" d="M183.93,111.37l-.21.25c-.18.24-.35.57-.55.89l-1.19-1a.72.72,0,0,0-1,0,.7.7,0,0,0,0,1l1.27,1a1,1,0,0,1-.51.14.7.7,0,0,0,0,1.39,2.72,2.72,0,0,0,2.15-1.22,7.48,7.48,0,0,0,.46-.74A11.18,11.18,0,0,0,183.93,111.37Z"/><path class="cls-15" d="M178.06,124.62c-.32-.69-.65-1.32-1.44-1.53a.7.7,0,0,0-.37,1.34c.5.14.85,1.42,1,1.84l.05.11c.42-.19.83-.41,1.23-.64Z"/><path class="cls-15" d="M168.32,122.62c-.36.11-.71.22-1,.35-.3-.85-.59-1.7-.89-2.56s-1.49-.51-1.37.25a3.49,3.49,0,0,1-.79,0,.7.7,0,0,0-.7.7.71.71,0,0,0,.7.69,4.3,4.3,0,0,0,1.24,0l.52,1.49a16.74,16.74,0,0,0-1.84.94,11.79,11.79,0,0,0,1.19.92,17.31,17.31,0,0,1,3.36-1.39C169.54,123.71,169.18,122.36,168.32,122.62Z"/><path class="cls-15" d="M166.51,107.57a8.26,8.26,0,0,0-4.11,2.22.66.66,0,0,0-.2.42l-1-.43a13.27,13.27,0,0,0-.54,1.28c.61.28,1.22.54,1.85.77a.72.72,0,0,0,.07.38,4.5,4.5,0,0,1,.43,1.28.7.7,0,0,0,1.34-.37,6.53,6.53,0,0,0-.2-.76c.22.07.43.14.65.19a.7.7,0,0,0,.37-1.34c-.58-.15-1.15-.33-1.71-.52a6.8,6.8,0,0,1,3.41-1.77C167.75,108.73,167.38,107.39,166.51,107.57Z"/><path class="cls-15" d="M178.49,104.6a5.06,5.06,0,0,1-.74,1.07c-.49.51-1.68.18-2.35.14-.9-.07-.89,1.33,0,1.39s2.3.46,3-.18a4.16,4.16,0,0,0,.77-1.08l.38-.6C179.24,105.07,178.87,104.83,178.49,104.6Z"/><path class="cls-9" d="M111.63,177.52a10.28,10.28,0,0,1-7.29-3L71.76,141.92a18.36,18.36,0,0,1,0-26l32.58-32.57A10.31,10.31,0,0,1,118.92,98l-31,31,31,31a10.31,10.31,0,0,1-7.29,17.6Z"/><path class="cls-7" d="M111.63,177.52a10.31,10.31,0,0,1-7.29-17.6l31-31-31-31a10.31,10.31,0,1,1,14.58-14.58L151.49,116a18.36,18.36,0,0,1,0,26L118.92,174.5A10.32,10.32,0,0,1,111.63,177.52Zm25.28-47Z"/><path class="cls-7" d="M189.68,102.86h10a8.75,8.75,0,0,1,.13,17.5h-3.91v6.32h-6.25Zm6.25,12.1h3.88a3.42,3.42,0,1,0,0-6.83h-3.88Z"/><path class="cls-7" d="M213.43,102.86h14.8V108h-8.54v3.87h7.56v5.27h-7.56v4.39h8.54v5.11h-14.8Z"/><path class="cls-7" d="M251.8,126.68,240.56,115.4v11.28H234.3V102.86h2.54l11.28,11.24V102.86h6.25v23.82Z"/><path class="cls-7" d="M163.12,130h9.27a12.5,12.5,0,0,1,0,25h-9.27Zm6.54,18.47h2.76a5.92,5.92,0,1,0,0-11.83h-2.76Z"/><path class="cls-7" d="M195.19,130h15.54v5.44h-9v4.06h7.93V145h-7.93v4.6h9V155H195.19Z"/><path class="cls-7" d="M245.07,130.36l-11.64,25h-3l-11.66-25h6.6l6.56,14.23,6.6-14.23Z"/><path class="cls-14" d="M232.28,174.07h18.94v3.45H232.28Z"/><path class="cls-14" d="M172.88,170.07a2.44,2.44,0,0,1-4.88,0V158.84h-4.93v11.3a7.37,7.37,0,0,0,14.74,0v-11.3h-4.93Z"/><polygon class="cls-14" points="179.62 177.51 184.52 177.51 184.52 170.07 190.52 170.07 190.52 165.91 184.52 165.91 184.52 162.87 191.32 162.87 191.32 158.84 179.62 158.84 179.62 177.51"/><path class="cls-14" d="M202.46,172.56a4.39,4.39,0,0,1,0-8.77,4.35,4.35,0,0,1,3.13,1.22l3.44-3.46a9.24,9.24,0,0,0-6.57-2.71,9.34,9.34,0,1,0,6.62,15.91l-3.49-3.44A4.25,4.25,0,0,1,202.46,172.56Z"/><path class="cls-14" d="M220.19,167.48v3.28h3.61a4.43,4.43,0,1,1-3.61-7,4.48,4.48,0,0,1,3.12,1.25l3.46-3.44a9.33,9.33,0,1,0,2.76,6.62v-.69Z"/><polygon class="cls-15" points="189.76 80.92 187.31 80.92 187.31 79.09 183.02 83.38 184.86 83.38 184.86 94.4 186.09 95.63 187.31 94.4 189.15 92.56 188.54 91.95 187.31 93.18 187.31 83.38 189.76 80.92"/><polygon class="cls-15" points="229.77 79.09 229.77 79.09 229.77 76.64 227.32 79.09 227.32 81.54 225.48 83.38 227.32 83.38 227.32 94.4 228.54 95.63 229.77 94.4 229.77 83.38 232.22 80.92 229.77 80.92 229.77 79.09"/><rect class="cls-15" x="230.3" y="75.34" width="2.6" height="2.6" transform="translate(13.65 186.21) rotate(-45)"/><polygon class="cls-15" points="202.42 82.76 202.42 80.92 202.42 77.86 200.58 76.02 198.74 77.86 199.97 79.09 199.97 93.18 202.42 95.63 204.25 93.79 202.42 91.95 202.42 82.76"/><polygon class="cls-15" points="202.42 82.76 204.25 84.6 204.25 93.79 206.7 91.34 206.7 83.38 204.25 80.92 202.42 82.76"/><polygon class="cls-15" points="153.8 93.05 152.51 91.77 152.51 89.83 152.51 80.18 152.51 77.6 152.51 76.96 150.58 75.03 148.65 76.96 149.94 78.25 149.94 81.45 146.74 84.65 146.74 80.18 146.74 76.96 144.81 75.03 144.8 75.04 144.79 75.03 140.93 78.89 141.59 79.55 143.52 77.62 144.16 78.26 144.16 94.34 145.45 95.63 146.74 94.34 146.74 87.43 149.94 84.22 149.94 89.83 149.94 93.05 152.51 95.63 153.8 94.34 154.45 93.7 155.73 92.41 155.09 91.77 153.8 93.05"/><polygon class="cls-15" points="251.81 93.18 251.81 83.38 254.26 80.92 251.81 80.92 251.81 79.09 247.52 83.38 249.36 83.38 249.36 94.4 250.58 95.63 251.81 94.4 253.64 92.56 253.03 91.95 251.81 93.18"/><polygon class="cls-15" points="193.23 82.76 190.78 85.21 190.78 93.18 193.23 95.63 195.07 93.79 193.23 91.95 193.23 82.76"/><polygon class="cls-15" points="193.23 82.76 195.07 84.6 195.07 93.79 197.52 91.34 197.52 83.38 195.07 80.92 193.23 82.76"/><polygon class="cls-15" points="215.67 83.36 213.23 80.92 211.4 82.76 213.22 84.58 211.4 86.41 211.4 82.76 208.94 85.21 208.94 93.18 211.4 95.63 212.62 94.4 213.23 93.79 215.07 91.95 214.46 91.34 212.62 93.18 211.4 91.95 211.4 87.63 215.67 83.36"/><polygon class="cls-15" points="159.74 82.76 157.29 85.21 157.29 93.18 159.74 95.63 161.58 93.79 159.74 91.95 159.74 82.76"/><polygon class="cls-15" points="164.03 83.38 161.58 80.92 159.74 82.76 161.58 84.6 161.58 93.79 163.41 95.63 165.25 93.79 164.03 92.56 164.03 83.38"/><polygon class="cls-15" points="170.57 93.18 169.35 91.95 169.35 82.76 166.9 85.21 166.9 93.18 169.35 95.63 170.57 94.4 171.19 93.79 173.03 91.95 172.41 91.34 170.57 93.18"/><rect class="cls-15" x="169.89" y="81.45" width="2.6" height="2.6" transform="translate(-8.37 145.28) rotate(-45)"/><rect class="cls-15" x="178.05" y="81.46" width="2.6" height="2.6" transform="translate(-5.99 151.06) rotate(-45)"/><polygon class="cls-15" points="178.74 87.66 178.74 94.4 179.96 95.63 181.19 94.4 181.19 86.44 179.35 84.6 177.51 86.44 178.74 87.66"/><polygon class="cls-15" points="177.51 80.92 177.51 77.86 175.68 76.02 173.84 77.86 175.06 79.09 175.06 94.4 176.29 95.63 177.51 94.4 177.51 86.44 177.51 82.76 177.51 80.92"/><polygon class="cls-15" points="235.48 82.76 237.3 84.58 235.48 86.41 235.48 82.76 233.03 85.21 233.03 93.18 235.48 95.63 236.7 94.4 237.31 93.79 239.15 91.95 238.54 91.34 236.7 93.18 235.48 91.95 235.48 87.63 239.75 83.36 237.31 80.92 235.48 82.76"/><rect class="cls-15" x="221.12" y="81.46" width="2.6" height="2.6" transform="translate(6.62 181.51) rotate(-45)"/><polygon class="cls-15" points="216.91 82.76 218.13 83.99 218.13 85.83 218.13 87.66 218.13 94.4 219.36 95.63 220.58 94.4 220.58 87.66 220.58 85.83 220.58 82.76 218.74 80.92 216.91 82.76"/><rect class="cls-15" x="241.93" y="92.49" width="2.6" height="2.6" transform="translate(4.92 199.46) rotate(-45)"/><rect class="cls-15" x="243.77" y="81.46" width="2.6" height="2.6" transform="translate(13.26 197.53) rotate(-45)"/><polygon class="cls-15" points="241.39 84.6 241.39 87.05 245.07 90.73 245.07 93.79 246.91 91.95 246.91 88.89 246.6 88.58 245.07 87.05 243.23 85.21 243.23 82.76 241.39 84.6"/><path class="cls-15" d="M124.55,70,106.3,81.24,83.39,61.12l-.53-5.79L59.76,39.65,41.07,37.24,38.71,56.65l6.16,5.46-3-6.64,3.29-11.24L62.81,67.06,61.65,82.39s9.18,6.48,13.2,17.38L54.59,110.31s4.91,7.84,21.3,1c0,0,38-18,43.72-24.48S124.55,70,124.55,70Z"/><path class="cls-16" d="M101.29,76.92A166.21,166.21,0,0,1,71.58,93.2L75,99.26s10.27-1,31.31-18Z"/><polygon class="cls-17" points="101.94 84.81 82.99 64.36 79.48 68.78 78.38 55.5 59.01 42.2 41.28 37.27 59.76 39.65 82.86 55.33 83.39 61.12 106.3 81.24 101.94 84.81"/><polygon class="cls-17" points="46.28 45.73 45.12 44.23 41.83 55.47 44.87 62.11 38.71 56.65 41.01 37.74 46.28 45.73"/><path class="cls-17" d="M120.13,72.73,124.55,70s.83,10.38-4.94,16.85c-2.62,2.94-11.89,8.26-21.23,13.2C119,86.07,120.7,76.73,120.13,72.73Z"/><path class="cls-18" d="M97,93l-10.1,5.26a3.54,3.54,0,0,1-4.75-1.5l-3.48-6.7a3.52,3.52,0,0,1,1.5-4.75L90.29,80A3.54,3.54,0,0,1,95,81.54l3.48,6.7A3.52,3.52,0,0,1,97,93ZM81.6,88a.46.46,0,0,0-.19.6l3.49,6.7a.44.44,0,0,0,.6.19l10.11-5.25a.47.47,0,0,0,.19-.61L92.32,83a.47.47,0,0,0-.61-.19Z"/><path class="cls-19" d="M47.31,44c2.44,2.33,4.78,4.75,7.17,7.12s4.55,4.92,7,7.27l1.82,1.74.93.86c.33.31.59.52,1,.95a12.18,12.18,0,0,1,3.07,5.87,9.88,9.88,0,0,1,.23,1.72,6.32,6.32,0,0,1,0,.87v.68a20.24,20.24,0,0,0,.28,2.56,6.33,6.33,0,0,1,0,2.53,5.23,5.23,0,0,1-.45,1.21c-.14.4-.23.81-4.08.79l-.5-.06C60,77.29,60,76.87,59.93,76.44a5.16,5.16,0,0,1-.16-1.28,6.46,6.46,0,0,1,.55-2.46,20.71,20.71,0,0,0,.86-2.43l.22-.94a6.88,6.88,0,0,0,.15-.79A6.06,6.06,0,0,0,61,65.17c-.1-.23-.38-.65-.58-1l-.67-1.07L58.36,61c-1.85-2.82-3.91-5.45-5.81-8.22s-3.8-5.55-5.62-8.39Z"/><circle class="cls-19" cx="63.97" cy="80.94" r="1.24"/></svg>