<svg id="Camada_1" data-name="Camada 1" xmlns="http://www.w3.org/2000/svg" viewBox="0 0 627.44 385.66"><defs><style>.cls-1{fill:#f1ebd8;}.cls-2{fill:#72b3c1;}.cls-3{fill:#303737;}.cls-4{fill:#fff;}.cls-5{fill:#c75b70;}.cls-6{fill:#808181;}.cls-7{fill:#d17a34;}.cls-8{fill:#74183f;}.cls-9{fill:#a35d2e;}.cls-10{fill:#d58d9a;}</style></defs><title>elementos_hack_opendev_UFCG</title><circle class="cls-1" cx="355.04" cy="162.41" r="40.77"/><circle class="cls-2" cx="355.04" cy="162.41" r="23.85"/><circle class="cls-3" cx="355.04" cy="162.41" r="14.62"/><circle class="cls-4" cx="342.74" cy="151.64" r="6.92"/><path class="cls-5" d="M393.79,149.72c-.24.27-.47.56-.69.85-.6.79-1.17,1.87-1.82,2.94l-4-3.25a2.36,2.36,0,0,0-3.26,0,2.32,2.32,0,0,0,0,3.26l4.21,3.45a3.45,3.45,0,0,1-1.72.46c-3,0-3,4.64,0,4.62s5.34-1.69,7.16-4.06a24.46,24.46,0,0,0,1.53-2.44A40.37,40.37,0,0,0,393.79,149.72Z"/><path class="cls-5" d="M374.31,193.7c-1.06-2.3-2.16-4.39-4.77-5.08-2.88-.76-4.1,3.69-1.23,4.45,1.66.44,2.81,4.69,3.45,6.09l.17.36a40.39,40.39,0,0,0,4.07-2.14C375.44,196.16,374.88,194.93,374.31,193.7Z"/><path class="cls-5" d="M342,187.06q-1.77.52-3.48,1.14l-2.93-8.46c-.92-2.65-5-1.71-4.55.8a11.49,11.49,0,0,1-2.62,0,2.32,2.32,0,0,0-2.31,2.31,2.37,2.37,0,0,0,2.31,2.31,13.81,13.81,0,0,0,4.11-.15l1.71,4.94a58,58,0,0,0-6.08,3.12,41.39,41.39,0,0,0,3.93,3.06,58.11,58.11,0,0,1,11.13-4.6C346.06,190.65,344.85,186.2,342,187.06Z"/><path class="cls-5" d="M336,137.15a27.11,27.11,0,0,0-13.63,7.35,2.1,2.1,0,0,0-.67,1.39c-1.1-.46-2.18-.94-3.26-1.44a39.81,39.81,0,0,0-1.8,4.25q3,1.4,6.12,2.55a2.55,2.55,0,0,0,.25,1.29,15,15,0,0,1,1.43,4.21,2.31,2.31,0,1,0,4.45-1.22,18.12,18.12,0,0,0-.68-2.5c.72.21,1.44.44,2.16.63,2.88.74,4.11-3.71,1.23-4.45-1.92-.5-3.81-1.09-5.67-1.73a22.85,22.85,0,0,1,11.29-5.88C340.13,141,338.9,136.54,336,137.15Z"/><path class="cls-5" d="M375.73,127.28a17.44,17.44,0,0,1-2.44,3.56c-1.62,1.7-5.55.6-7.8.45-3-.21-2.95,4.41,0,4.61s7.63,1.52,10.13-.59a14.35,14.35,0,0,0,2.55-3.57c.41-.67.83-1.34,1.25-2A43.7,43.7,0,0,0,375.73,127.28Z"/><path class="cls-6" d="M154,385.66a34.07,34.07,0,0,1-24.18-10l-108-108a60.9,60.9,0,0,1,0-86.13l108.05-108a34.19,34.19,0,0,1,48.35,48.36L75.38,224.53,178.14,327.29A34.2,34.2,0,0,1,154,385.66Z"/><path class="cls-1" d="M154,385.66a34.2,34.2,0,0,1-24.18-58.37L232.55,224.53,129.79,121.77a34.19,34.19,0,1,1,48.35-48.36L286.19,181.46a60.9,60.9,0,0,1,0,86.13l-108,108.05A34,34,0,0,1,154,385.66Zm83.87-155.85Z"/><path class="cls-1" d="M412.85,121.51h33.29a29,29,0,0,1,.42,58H433.61v21H412.85Zm20.76,40.13h12.85a11.33,11.33,0,1,0,0-22.65H433.61Z"/><path class="cls-1" d="M491.65,121.51h49.09v17.17H512.41v12.85h25.07V169H512.41v14.54h28.33v17H491.65Z"/><path class="cls-1" d="M618.91,200.52l-37.29-37.4v37.4H560.86v-79h8.43l37.4,37.29V121.51h20.75v79Z"/><path class="cls-1" d="M324.78,211.51h30.73a41.46,41.46,0,1,1,0,82.92H324.78Zm21.66,61.25h9.18a19.63,19.63,0,1,0,0-39.25h-9.18Z"/><path class="cls-1" d="M431.15,211.51h51.52v18H452.93V243h26.32v18.35H452.93v15.26h29.74v17.8H431.15Z"/><path class="cls-1" d="M596.57,212.71l-38.59,83H548l-38.69-83h21.89L553,259.92l21.89-47.21Z"/><path class="cls-2" d="M554.15,357.72H617v11.42H554.15Z"/><path class="cls-2" d="M357.15,344.42a8.1,8.1,0,1,1-16.19,0V307.18H324.61v37.49a24.45,24.45,0,1,0,48.89,0V307.18H357.15Z"/><polygon class="cls-2" points="379.48 369.12 395.75 369.12 395.75 344.42 415.65 344.42 415.65 330.63 395.75 330.63 395.75 320.56 418.29 320.56 418.29 307.18 379.48 307.18 379.48 369.12"/><path class="cls-2" d="M455.24,352.68a14.54,14.54,0,0,1,0-29.07,14.48,14.48,0,0,1,10.41,4.05L477,316.18a30.64,30.64,0,0,0-21.8-9,31,31,0,1,0,22,52.77l-11.56-11.4A14.17,14.17,0,0,1,455.24,352.68Z"/><path class="cls-2" d="M514.07,335.84v10.9h12a14.69,14.69,0,1,1-12-23.29,14.84,14.84,0,0,1,10.33,4.13l11.47-11.4a31,31,0,1,0,9.17,22v-2.31Z"/><polygon id="_Caminho_" data-name="&lt;Caminho&gt;" class="cls-5" points="413.13 48.75 405 48.75 405 42.66 390.78 56.88 396.88 56.88 396.88 93.45 400.94 97.52 405 93.45 411.1 87.36 409.07 85.33 405 89.39 405 56.88 413.13 48.75"/><polygon id="_Caminho_2" data-name="&lt;Caminho&gt;" class="cls-5" points="545.82 42.66 545.82 42.66 545.82 34.53 537.7 42.66 537.7 50.78 531.6 56.88 537.7 56.88 537.7 93.45 541.76 97.52 545.82 93.45 545.82 56.88 553.95 48.75 545.82 48.75 545.82 42.66"/><rect id="_Caminho_3" data-name="&lt;Caminho&gt;" class="cls-5" x="547.61" y="30.22" width="8.62" height="8.62" transform="translate(137.24 400.38) rotate(-45)"/><polygon id="_Caminho_4" data-name="&lt;Caminho&gt;" class="cls-5" points="455.11 54.85 455.11 48.75 455.11 38.59 449.01 32.5 442.92 38.59 446.98 42.66 446.98 89.39 455.11 97.52 461.2 91.42 455.11 85.33 455.11 54.85"/><polygon id="_Caminho_5" data-name="&lt;Caminho&gt;" class="cls-5" points="455.11 54.85 461.2 60.94 461.2 91.42 469.33 83.29 469.33 56.88 461.2 48.75 455.11 54.85"/><polygon id="_Caminho_6" data-name="&lt;Caminho&gt;" class="cls-5" points="293.86 88.98 289.59 84.71 289.59 78.3 289.59 46.28 289.59 37.74 289.59 35.6 283.19 29.2 276.78 35.6 281.05 39.87 281.05 50.49 270.43 61.12 270.43 46.28 270.43 35.6 264.02 29.2 264 29.22 263.97 29.2 251.16 42.01 253.35 44.2 259.75 37.79 261.89 39.93 261.89 93.25 266.16 97.52 270.43 93.25 270.43 70.32 281.05 59.7 281.05 78.3 281.05 88.98 289.59 97.52 293.86 93.25 295.99 91.11 300.26 86.84 298.13 84.71 293.86 88.98"/><polygon id="_Caminho_7" data-name="&lt;Caminho&gt;" class="cls-5" points="618.93 89.39 618.93 56.88 627.05 48.75 618.93 48.75 618.93 42.66 604.7 56.88 610.8 56.88 610.8 93.45 614.86 97.52 618.93 93.45 625.02 87.36 622.99 85.33 618.93 89.39"/><polygon id="_Caminho_8" data-name="&lt;Caminho&gt;" class="cls-5" points="424.64 54.85 416.51 62.98 416.51 89.39 424.64 97.52 430.74 91.42 424.64 85.33 424.64 54.85"/><polygon id="_Caminho_9" data-name="&lt;Caminho&gt;" class="cls-5" points="424.64 54.85 430.74 60.94 430.74 91.42 438.86 83.29 438.86 56.88 430.74 48.75 424.64 54.85"/><polygon id="_Caminho_10" data-name="&lt;Caminho&gt;" class="cls-5" points="499.06 56.83 490.99 48.75 484.89 54.85 490.93 60.89 484.89 66.94 484.89 54.85 476.76 62.98 476.76 89.39 484.89 97.52 488.95 93.45 490.99 91.42 497.08 85.33 495.05 83.29 488.95 89.39 484.89 85.33 484.89 71 499.06 56.83"/><polygon id="_Caminho_11" data-name="&lt;Caminho&gt;" class="cls-5" points="313.55 54.85 305.42 62.98 305.42 89.39 313.55 97.52 319.65 91.42 313.55 85.33 313.55 54.85"/><polygon id="_Caminho_12" data-name="&lt;Caminho&gt;" class="cls-5" points="327.78 56.88 319.65 48.75 313.55 54.85 319.65 60.94 319.65 91.42 325.74 97.52 331.84 91.42 327.78 87.36 327.78 56.88"/><polygon id="_Caminho_13" data-name="&lt;Caminho&gt;" class="cls-5" points="349.49 89.39 345.43 85.33 345.43 54.85 337.3 62.98 337.3 89.39 345.43 97.52 349.49 93.45 351.52 91.42 357.62 85.33 355.59 83.29 349.49 89.39"/><rect id="_Caminho_14" data-name="&lt;Caminho&gt;" class="cls-5" x="347.21" y="50.48" width="8.62" height="8.62" transform="translate(64.22 264.61) rotate(-45)"/><rect id="_Caminho_15" data-name="&lt;Caminho&gt;" class="cls-5" x="374.29" y="50.54" width="8.62" height="8.62" transform="translate(72.11 283.78) rotate(-45)"/><polygon id="_Caminho_16" data-name="&lt;Caminho&gt;" class="cls-5" points="376.57 71.1 376.57 93.45 380.63 97.52 384.7 93.45 384.7 67.04 378.6 60.94 372.5 67.04 376.57 71.1"/><polygon id="_Caminho_17" data-name="&lt;Caminho&gt;" class="cls-5" points="372.5 48.75 372.5 38.59 366.41 32.5 360.31 38.59 364.38 42.66 364.38 93.45 368.44 97.52 372.5 93.45 372.5 67.04 372.5 54.85 372.5 48.75"/><polygon id="_Caminho_18" data-name="&lt;Caminho&gt;" class="cls-5" points="564.76 54.85 570.81 60.89 564.76 66.94 564.76 54.85 556.63 62.98 556.63 89.39 564.76 97.52 568.83 93.45 570.86 91.42 576.95 85.33 574.92 83.29 568.83 89.39 564.76 85.33 564.76 71 578.93 56.83 570.86 48.75 564.76 54.85"/><rect id="_Caminho_19" data-name="&lt;Caminho&gt;" class="cls-5" x="517.14" y="50.54" width="8.62" height="8.62" transform="translate(113.95 384.79) rotate(-45)"/><polygon id="_Caminho_20" data-name="&lt;Caminho&gt;" class="cls-5" points="503.17 54.85 507.23 58.91 507.23 65.01 507.23 71.1 507.23 93.45 511.29 97.52 515.36 93.45 515.36 71.1 515.36 65.01 515.36 54.85 509.26 48.75 503.17 54.85"/><rect id="_Caminho_21" data-name="&lt;Caminho&gt;" class="cls-5" x="586.17" y="87.11" width="8.62" height="8.62" transform="translate(108.3 444.31) rotate(-45)"/><rect id="_Caminho_22" data-name="&lt;Caminho&gt;" class="cls-5" x="592.27" y="50.54" width="8.62" height="8.62" transform="translate(135.95 437.91) rotate(-45)"/><polygon id="_Caminho_23" data-name="&lt;Caminho&gt;" class="cls-5" points="584.38 60.94 584.38 69.07 596.58 81.26 596.58 91.42 602.67 85.33 602.67 75.17 601.66 74.15 596.58 69.07 590.48 62.98 590.48 54.85 584.38 60.94"/><path class="cls-5" d="M222.17,40.62,176.32,68.83,127.18,31.58l-1.73-19.2L50.84,0,0,12.52,6.52,93.08,27,111.17l-10.09-22,10.9-37.26L46.39,38,42.54,88.83S58.66,94.14,72,130.3l-52.6,27.37s1.69,33.58,56.06,11c0,0,125.89-59.75,145-81.2S222.17,40.62,222.17,40.62Z"/><path class="cls-7" d="M158.43,55.4S119.07,84,61.12,108.51l11.34,20.1s34.06-3.36,103.86-59.78Z"/><polygon class="cls-8" points="161.55 80.39 113.33 29.02 101.68 43.7 109.44 16.92 47.27 7.65 0.68 12.61 50.84 0 125.45 12.38 127.18 31.58 176.32 68.83 161.55 80.39"/><path class="cls-9" d="M161.55,80.39q7.09-5.37,14.77-11.56L158.43,55.4S154,58.61,146,63.79Z"/><path class="cls-8" d="M207.52,49.64l14.65-9s17.43,25.45-1.71,46.89c-8.7,9.75-39.46,27.41-70.42,43.78C218.41,84.87,209.41,62.9,207.52,49.64Z"/><path class="cls-1" d="M145.54,107.82,112,125.26a11.71,11.71,0,0,1-15.77-5L84.71,98.07a11.71,11.71,0,0,1,5-15.76l33.51-17.43a11.7,11.7,0,0,1,15.77,5l11.55,22.21A11.7,11.7,0,0,1,145.54,107.82ZM94.39,91.35a1.52,1.52,0,0,0-.64,2l11.56,22.21a1.51,1.51,0,0,0,2,.64l33.51-17.44a1.52,1.52,0,0,0,.64-2l-11.55-22.2a1.52,1.52,0,0,0-2-.64Z"/><path class="cls-10" d="M50.4,53.25c.07,4,.05,8,.09,12v6l0,6,0,1.5v.74c0,.26,0,.51,0,.72a10.43,10.43,0,0,0,3,7.1c.26.31.65.7,1,1.08l1,1.14c.69.76,1.36,1.55,2,2.37a21.71,21.71,0,0,1,1.71,2.61c.26.46.48.93.7,1.4a7.38,7.38,0,0,1,.29.73,1.36,1.36,0,0,1-.39,1.07l-.27.13c-1.18,0-1.18-.48-1.5-.85l-.87-1.15c-.59-.76-1.18-1.52-1.79-2.25s-1.25-1.46-1.92-2.16c-.34-.34-.68-.69-1-1s-.7-.62-1.13-1a12.84,12.84,0,0,1-3.09-5.9,12.68,12.68,0,0,1-.3-3.31c0-.29,0-.54.05-.78l0-.75.1-1.49.46-6,.5-6c.37-4,.7-8,1.11-11.94Z"/><circle class="cls-10" cx="61.85" cy="100.57" r="1.24"/></svg>