<svg width="200" height="37" viewBox="0 0 200 37" fill="none" xmlns="http://www.w3.org/2000/svg">
  <path
    d="M58.4658 11.7544H49.281V13.0637H46.6558V23.5445H49.281V24.8538H58.4658V23.5445H61.091V13.0637H58.4658V11.7544ZM55.8406 20.9237H51.9039V15.6844H55.8406V20.9237ZM74.7746 11.7544H62.9646V24.8538H68.2127V22.233V20.9237H74.7746V19.6145H77.3998V13.0637H74.7746V11.7544ZM72.1494 17.6483H68.2127V15.0276H72.1494V17.6483ZM79.2734 11.7544V24.8538H91.0834V22.233H85.8353V19.6122H88.4605V16.9937H85.8353V14.373H91.0834V11.7522L79.2734 11.7544ZM100.83 11.7544V16.9937H99.5189V14.373H98.2074V11.7522H92.9592V24.8515H98.2074V19.6122H99.5189V22.233H100.83V24.8538H106.079V11.7544H100.83Z"
    fill="#e8ede1" />
  <path
    d="M119.63 11.7545H107.82V24.8538H119.63V23.5445H122.256V13.0637H119.63V11.7545ZM117.008 20.9238H113.071V15.6845H117.008V20.9238ZM124.129 11.7545V24.8538H135.939V22.233H130.691V19.6123H133.316V16.9937H130.691V14.373H135.939V11.7522L124.129 11.7545ZM145.688 11.7545V18.3052H143.063V11.7545H137.815V19.6145H139.127V22.2353H141.752V24.856H147V22.2353H149.625V19.6145H150.937V11.7545H145.688Z"
    fill="#e8ede1" />
  <path d="M156.12 21.9993V14.6091H159.082V20.5208H160.561V14.6091H163.523V21.9993H156.12Z" fill="#A1ED39" />
  <path d="M165.004 21.9993V14.6091H172.409V16.0876H167.966V17.5639H170.928V19.0423H167.966V21.9993H165.004Z"
    fill="#A1ED39" />
  <path d="M173.89 21.9993V14.6091H181.293V16.0876H176.85V20.5208H181.293V21.9993H173.89Z" fill="#A1ED39" />
  <path d="M182.774 21.9993V14.6091H190.179V16.0876H185.736V20.5208H187.217V17.5639H190.179V21.9993H182.774Z"
    fill="#A1ED39" />
  <path d="M191.657 21.9993V20.5208H199.062V21.9993H191.657Z" fill="#A1ED39" />
  <path d="M23.5108 31.2336L10.512 18.2589L23.5108 5.2843L18.2537 0.0361023L0 18.2589L18.3251 36.553L23.5108 31.2336Z"
    fill="#e8ede1" />
  <path d="M12.9966 5.31945L25.9955 18.2941L12.9966 31.2687L18.2537 36.5169L36.5075 18.2941L18.1824 0L12.9966 5.31945Z"
    fill="#A1ED39" />
</svg>