<?xml version="1.0" encoding="utf-8"?>
<svg viewBox="0 0 778 121" fill="none" xmlns="http://www.w3.org/2000/svg">
  <path d="M4.12305 47.3608V0.663574H24.2151V28.6836H34.2655V0.663574H54.3576V47.3608H34.2655V38.0181H24.2151V47.3608H4.12305Z" style="fill: rgb(120, 127, 168);"/>
  <path d="M94.5414 28.6836V10.0063H84.4999V28.6836H94.5414ZM64.3989 47.3608V0.663574H114.625V47.3526H94.5326V38.0181H84.491V47.3526H64.3989V47.3608Z" style="fill: rgb(120, 127, 168);"/>
  <path d="M124.675 47.3608V0.663574H174.91V10.0063H144.767V38.0181H174.91V47.3608H124.675Z" style="fill: rgb(120, 127, 168);"/>
  <path d="M184.951 47.3608V0.663574H205.043V19.3408H215.094V0.663574H235.177V19.3408H225.135V28.6836H235.177V47.3608H215.094V38.0181H205.043V47.3608H184.951Z" style="fill: rgb(120, 127, 168);"/>
  <path d="M255.269 47.3608V10.0063H245.228V0.663574H295.453V10.0063H285.412V47.3608H255.269Z" style="fill: rgb(120, 127, 168);"/>
  <path d="M335.637 38.0181V10.0063H325.595V38.0181H335.637ZM305.503 47.3608V0.663574H355.729V47.3526H305.503V47.3608Z" fill="#4B5CBF"/>
  <path d="M395.913 38.0181V28.6836H385.872V38.0181H395.913ZM395.913 19.3408V10.0063H385.872V19.3408H395.913ZM365.78 47.3608V0.663574H405.964V9.99807H416.005V38.0098H405.964V47.3443H365.78V47.3608Z" style="fill: rgb(120, 127, 168);"/>
  <path d="M426.056 47.3608V0.663574H476.281V10.0063H446.148V19.3408H466.24V28.6836H446.148V38.0181H476.281V47.3608H426.056Z" style="fill: rgb(120, 127, 168);"/>
  <path d="M516.466 28.6836V10.0063H506.424V28.6836H516.466ZM486.332 47.3608V0.663574H536.558V28.6753H526.516V38.0098H536.558V47.3443H516.466V38.0098H506.424V47.3443H486.332V47.3608Z" style="fill: rgb(120, 127, 168);"/>
  <path d="M546.608 47.3608V0.663574H596.834V10.0063H566.691V19.3408H586.783V28.6836H566.691V47.3608H546.608Z" style="fill: rgb(120, 127, 168);"/>
  <path d="M606.875 47.3608V0.663574H657.11V10.0063H626.967V19.3408H647.059V28.6836H626.967V38.0181H657.11V47.3608H606.875Z" style="fill: rgb(120, 127, 168);"/>
  <path d="M667.151 47.3608V38.0181H697.294V28.6836H667.151V0.663574H717.386V10.0063H687.243V19.3408H717.386V47.3608H667.151Z" style="fill: rgb(120, 127, 168);"/>
  <path d="M737.478 47.3608V10.0063H727.427V0.663574H777.662V10.0063H767.612V47.3608H737.478Z" style="fill: rgb(120, 127, 168);"/>
  <path d="M 85.571 119.4 L 82.248 119.4 L 82.248 116.31 L 82.248 113.221 L 82.248 110.14 L 82.248 107.05 L 82.248 103.969 L 78.933 103.969 L 75.61 103.969 L 72.286 103.969 L 68.972 103.969 L 65.648 103.969 L 65.648 107.05 L 65.648 110.14 L 65.648 113.221 L 65.648 116.31 L 65.648 119.4 L 62.334 119.4 L 59.01 119.4 L 59.01 116.31 L 59.01 113.221 L 59.01 110.14 L 59.01 107.05 L 59.01 103.969 L 59.01 100.88 L 59.01 97.791 L 59.01 94.709 L 59.01 91.62 L 59.01 88.539 L 59.01 85.449 L 59.01 82.36 L 62.334 82.36 L 65.648 82.36 L 65.648 85.449 L 65.648 88.539 L 65.648 91.62 L 65.648 94.709 L 65.648 97.791 L 68.972 97.791 L 72.286 97.791 L 75.61 97.791 L 78.933 97.791 L 82.248 97.791 L 82.248 94.709 L 82.248 91.62 L 82.248 88.539 L 82.248 85.449 L 82.248 82.36 L 85.571 82.36 L 88.886 82.36 L 88.886 85.449 L 88.886 88.539 L 88.886 91.62 L 88.886 94.709 L 88.886 97.791 L 88.886 100.88 L 88.886 103.969 L 88.886 107.05 L 88.886 110.14 L 88.886 113.221 L 88.886 116.31 L 88.886 119.4 L 85.571 119.4 Z" style="fill: rgb(120, 127, 168);"/>
  <path d="M 132.047 119.4 L 128.723 119.4 L 125.4 119.4 L 122.076 119.4 L 118.753 119.4 L 115.429 119.4 L 115.429 116.31 L 112.106 116.31 L 112.106 113.221 L 112.106 110.131 L 112.106 107.042 L 112.106 103.953 L 112.106 100.863 L 112.106 97.774 L 112.106 94.685 L 112.106 91.595 L 112.106 88.506 L 112.106 85.416 L 115.429 85.416 L 115.429 82.327 L 118.753 82.327 L 122.076 82.327 L 125.4 82.327 L 128.723 82.327 L 132.047 82.327 L 135.37 82.327 L 135.37 85.416 L 138.694 85.416 L 138.694 88.506 L 138.694 91.595 L 138.694 94.685 L 138.694 97.774 L 138.694 100.863 L 138.694 103.953 L 138.694 107.042 L 138.694 110.131 L 138.694 113.221 L 138.694 116.31 L 135.37 116.31 L 135.37 119.4 L 132.047 119.4 Z M 128.732 113.221 L 132.056 113.221 L 132.056 110.131 L 132.056 107.042 L 132.056 103.953 L 132.056 100.863 L 132.056 97.774 L 132.056 94.685 L 132.056 91.595 L 132.056 88.506 L 128.732 88.506 L 125.409 88.506 L 122.085 88.506 L 118.762 88.506 L 118.762 91.595 L 118.762 94.685 L 118.762 97.774 L 118.762 100.863 L 118.762 103.953 L 118.762 107.042 L 118.762 110.131 L 118.762 113.221 L 122.085 113.221 L 125.409 113.221 L 128.732 113.221 Z" style="fill: rgb(120, 127, 168);"/>
  <path d="M 195.131 119.4 L 191.808 119.4 L 191.808 116.31 L 191.808 113.221 L 191.808 110.14 L 191.808 107.05 L 191.808 103.969 L 191.808 100.88 L 191.808 97.791 L 191.808 94.709 L 188.493 94.709 L 188.493 97.791 L 185.17 97.791 L 185.17 100.88 L 181.846 100.88 L 178.532 100.88 L 175.208 100.88 L 175.208 97.791 L 171.894 97.791 L 171.894 94.709 L 168.57 94.709 L 168.57 97.791 L 168.57 100.88 L 168.57 103.969 L 168.57 107.05 L 168.57 110.14 L 168.57 113.221 L 168.57 116.31 L 168.57 119.4 L 165.247 119.4 L 161.932 119.4 L 161.932 116.31 L 161.932 113.221 L 161.932 110.14 L 161.932 107.05 L 161.932 103.969 L 161.932 100.88 L 161.932 97.791 L 161.932 94.709 L 161.932 91.62 L 161.932 88.539 L 161.932 85.449 L 161.932 82.36 L 165.247 82.36 L 168.57 82.36 L 168.57 85.449 L 171.894 85.449 L 171.894 88.539 L 175.208 88.539 L 175.208 91.62 L 178.532 91.62 L 178.532 94.709 L 181.846 94.709 L 181.846 91.62 L 185.17 91.62 L 185.17 88.539 L 188.493 88.539 L 188.493 85.449 L 191.808 85.449 L 191.808 82.36 L 195.131 82.36 L 198.446 82.36 L 198.446 85.449 L 198.446 88.539 L 198.446 91.62 L 198.446 94.709 L 198.446 97.791 L 198.446 100.88 L 198.446 103.969 L 198.446 107.05 L 198.446 110.14 L 198.446 113.221 L 198.446 116.31 L 198.446 119.4 L 195.131 119.4 Z" style="fill: rgb(120, 127, 168);"/>
  <path d="M 244.931 119.4 L 241.607 119.4 L 238.293 119.4 L 234.969 119.4 L 231.646 119.4 L 228.331 119.4 L 225.007 119.4 L 221.693 119.4 L 221.693 116.31 L 221.693 113.221 L 221.693 110.14 L 221.693 107.05 L 221.693 103.969 L 221.693 100.88 L 221.693 97.791 L 221.693 94.709 L 221.693 91.62 L 221.693 88.539 L 221.693 85.449 L 221.693 82.36 L 225.007 82.36 L 228.331 82.36 L 231.646 82.36 L 234.969 82.36 L 238.293 82.36 L 241.607 82.36 L 244.931 82.36 L 248.245 82.36 L 248.245 85.449 L 248.245 88.539 L 244.931 88.539 L 241.607 88.539 L 238.293 88.539 L 234.969 88.539 L 231.646 88.539 L 228.331 88.539 L 228.331 91.62 L 228.331 94.709 L 228.331 97.791 L 231.646 97.791 L 234.969 97.791 L 238.293 97.791 L 241.607 97.791 L 244.931 97.791 L 244.931 100.88 L 244.931 103.969 L 241.607 103.969 L 238.293 103.969 L 234.969 103.969 L 231.646 103.969 L 228.331 103.969 L 228.331 107.05 L 228.331 110.14 L 228.331 113.221 L 231.646 113.221 L 234.969 113.221 L 238.293 113.221 L 241.607 113.221 L 244.931 113.221 L 248.245 113.221 L 248.245 116.31 L 248.245 119.4 L 244.931 119.4 Z" style="fill: rgb(120, 127, 168);"/>
  <path d="M 311.329 119.4 L 308.006 119.4 L 304.691 119.4 L 301.367 119.4 L 298.053 119.4 L 294.729 119.4 L 291.406 119.4 L 288.091 119.4 L 288.091 116.31 L 288.091 113.221 L 288.091 110.14 L 288.091 107.05 L 288.091 103.969 L 288.091 100.88 L 288.091 97.791 L 288.091 94.709 L 288.091 91.62 L 288.091 88.539 L 288.091 85.449 L 288.091 82.36 L 291.406 82.36 L 294.729 82.36 L 298.053 82.36 L 301.367 82.36 L 304.691 82.36 L 308.006 82.36 L 311.329 82.36 L 314.653 82.36 L 314.653 85.449 L 314.653 88.539 L 311.329 88.539 L 308.006 88.539 L 304.691 88.539 L 301.367 88.539 L 298.053 88.539 L 294.729 88.539 L 294.729 91.62 L 294.729 94.709 L 294.729 97.791 L 298.053 97.791 L 301.367 97.791 L 304.691 97.791 L 308.006 97.791 L 311.329 97.791 L 311.329 100.88 L 311.329 103.969 L 308.006 103.969 L 304.691 103.969 L 301.367 103.969 L 298.053 103.969 L 294.729 103.969 L 294.729 107.05 L 294.729 110.14 L 294.729 113.221 L 298.053 113.221 L 301.367 113.221 L 304.691 113.221 L 308.006 113.221 L 311.329 113.221 L 314.653 113.221 L 314.653 116.31 L 314.653 119.4 L 311.329 119.4 Z" style="fill: rgb(120, 127, 168);"/>
  <path d="M 361.128 119.4 L 357.805 119.4 L 354.481 119.4 L 351.158 119.4 L 347.834 119.4 L 344.511 119.4 L 341.187 119.4 L 337.864 119.4 L 337.864 116.31 L 337.864 113.221 L 337.864 110.131 L 337.864 107.042 L 337.864 103.953 L 337.864 100.863 L 337.864 97.774 L 337.864 94.685 L 337.864 91.595 L 337.864 88.506 L 337.864 85.416 L 337.864 82.327 L 341.187 82.327 L 344.511 82.327 L 347.834 82.327 L 351.158 82.327 L 354.481 82.327 L 357.805 82.327 L 361.128 82.327 L 364.452 82.327 L 364.452 85.416 L 367.775 85.416 L 367.775 88.506 L 367.775 91.595 L 367.775 94.685 L 367.775 97.774 L 367.775 100.863 L 367.775 103.953 L 367.775 107.042 L 367.775 110.131 L 367.775 113.221 L 367.775 116.31 L 364.452 116.31 L 364.452 119.4 L 361.128 119.4 Z M 357.805 113.221 L 361.128 113.221 L 361.128 110.131 L 361.128 107.042 L 361.128 103.953 L 361.128 100.863 L 361.128 97.774 L 361.128 94.685 L 361.128 91.595 L 361.128 88.506 L 357.805 88.506 L 354.481 88.506 L 351.158 88.506 L 347.834 88.506 L 344.511 88.506 L 344.511 91.595 L 344.511 94.685 L 344.511 97.774 L 344.511 100.863 L 344.511 103.953 L 344.511 107.042 L 344.511 110.131 L 344.511 113.221 L 347.834 113.221 L 351.158 113.221 L 354.481 113.221 L 357.805 113.221 Z" style="fill: rgb(120, 127, 168);"/>
  <path d="M 394.328 119.4 L 391.004 119.4 L 391.004 116.31 L 391.004 113.221 L 391.004 110.14 L 391.004 107.05 L 391.004 103.969 L 391.004 100.88 L 391.004 97.791 L 391.004 94.709 L 391.004 91.62 L 391.004 88.539 L 391.004 85.449 L 391.004 82.36 L 394.328 82.36 L 397.651 82.36 L 397.651 85.449 L 397.651 88.539 L 397.651 91.62 L 397.651 94.709 L 397.651 97.791 L 397.651 100.88 L 397.651 103.969 L 397.651 107.05 L 397.651 110.14 L 397.651 113.221 L 397.651 116.31 L 397.651 119.4 L 394.328 119.4 Z" style="fill: rgb(120, 127, 168);"/>
  <path d="M 437.489 119.4 L 434.165 119.4 L 434.165 116.31 L 434.165 113.221 L 434.165 110.14 L 434.165 107.05 L 434.165 103.969 L 434.165 100.88 L 434.165 97.791 L 434.165 94.709 L 434.165 91.62 L 434.165 88.539 L 430.851 88.539 L 427.527 88.539 L 424.213 88.539 L 420.889 88.539 L 420.889 85.449 L 420.889 82.36 L 424.213 82.36 L 427.527 82.36 L 430.851 82.36 L 434.165 82.36 L 437.489 82.36 L 440.812 82.36 L 444.127 82.36 L 447.45 82.36 L 450.765 82.36 L 454.089 82.36 L 454.089 85.449 L 454.089 88.539 L 450.765 88.539 L 447.45 88.539 L 444.127 88.539 L 440.812 88.539 L 440.812 91.62 L 440.812 94.709 L 440.812 97.791 L 440.812 100.88 L 440.812 103.969 L 440.812 107.05 L 440.812 110.14 L 440.812 113.221 L 440.812 116.31 L 440.812 119.4 L 437.489 119.4 Z" style="fill: rgb(120, 127, 168);"/>
  <path d="M 480.65 119.4 L 477.326 119.4 L 477.326 116.31 L 477.326 113.221 L 477.326 110.14 L 477.326 107.05 L 477.326 103.969 L 477.326 100.88 L 477.326 97.791 L 477.326 94.709 L 477.326 91.62 L 477.326 88.539 L 477.326 85.449 L 477.326 82.36 L 480.65 82.36 L 483.964 82.36 L 483.964 85.449 L 483.964 88.539 L 483.964 91.62 L 483.964 94.709 L 483.964 97.791 L 483.964 100.88 L 483.964 103.969 L 483.964 107.05 L 483.964 110.14 L 483.964 113.221 L 483.964 116.31 L 483.964 119.4 L 480.65 119.4 Z" style="fill: rgb(120, 127, 168);"/>
  <path d="M 527.125 119.4 L 523.802 119.4 L 520.478 119.4 L 517.155 119.4 L 513.831 119.4 L 510.508 119.4 L 510.508 116.31 L 507.185 116.31 L 507.185 113.221 L 507.185 110.131 L 507.185 107.042 L 507.185 103.953 L 507.185 100.863 L 507.185 97.774 L 507.185 94.685 L 507.185 91.595 L 507.185 88.506 L 507.185 85.416 L 510.508 85.416 L 510.508 82.327 L 513.831 82.327 L 517.155 82.327 L 520.478 82.327 L 523.802 82.327 L 527.125 82.327 L 530.449 82.327 L 530.449 85.416 L 533.772 85.416 L 533.772 88.506 L 533.772 91.595 L 533.772 94.685 L 533.772 97.774 L 533.772 100.863 L 533.772 103.953 L 533.772 107.042 L 533.772 110.131 L 533.772 113.221 L 533.772 116.31 L 530.449 116.31 L 530.449 119.4 L 527.125 119.4 Z M 523.811 113.221 L 527.134 113.221 L 527.134 110.131 L 527.134 107.042 L 527.134 103.953 L 527.134 100.863 L 527.134 97.774 L 527.134 94.685 L 527.134 91.595 L 527.134 88.506 L 523.811 88.506 L 520.487 88.506 L 517.164 88.506 L 513.84 88.506 L 513.84 91.595 L 513.84 94.685 L 513.84 97.774 L 513.84 100.863 L 513.84 103.953 L 513.84 107.042 L 513.84 110.131 L 513.84 113.221 L 517.164 113.221 L 520.487 113.221 L 523.811 113.221 Z" style="fill: rgb(120, 127, 168);"/>
  <path d="M 583.572 119.4 L 580.248 119.4 L 580.248 116.31 L 580.248 113.221 L 580.248 110.14 L 580.248 107.05 L 576.924 107.05 L 576.924 103.969 L 573.61 103.969 L 573.61 100.88 L 570.286 100.88 L 570.286 97.791 L 566.972 97.791 L 566.972 94.709 L 563.648 94.709 L 563.648 97.791 L 563.648 100.88 L 563.648 103.969 L 563.648 107.05 L 563.648 110.14 L 563.648 113.221 L 563.648 116.31 L 563.648 119.4 L 560.325 119.4 L 557.01 119.4 L 557.01 116.31 L 557.01 113.221 L 557.01 110.14 L 557.01 107.05 L 557.01 103.969 L 557.01 100.88 L 557.01 97.791 L 557.01 94.709 L 557.01 91.62 L 557.01 88.539 L 557.01 85.449 L 557.01 82.36 L 560.325 82.36 L 563.648 82.36 L 563.648 85.449 L 566.972 85.449 L 566.972 88.539 L 570.286 88.539 L 570.286 91.62 L 573.61 91.62 L 573.61 94.709 L 576.924 94.709 L 576.924 97.791 L 580.248 97.791 L 580.248 94.709 L 580.248 91.62 L 580.248 88.539 L 580.248 85.449 L 580.248 82.36 L 583.572 82.36 L 586.886 82.36 L 586.886 85.449 L 586.886 88.539 L 586.886 91.62 L 586.886 94.709 L 586.886 97.791 L 586.886 100.88 L 586.886 103.969 L 586.886 107.05 L 586.886 110.14 L 586.886 113.221 L 586.886 116.31 L 586.886 119.4 L 583.572 119.4 Z" style="fill: rgb(120, 127, 168);"/>
  <path d="M305.726 47.3608V0.663574H355.951V47.3608H305.726Z" style="fill: rgb(120, 127, 168);"/>
  <path fill-rule="evenodd" clip-rule="evenodd" d="M319.384 35.7878H327.017V28.6754H334.669V35.7878H342.293V26.2303H344.906V23.9173H342.293V21.5713H339.778V19.2583H337.201V16.9371H334.642V14.6241H332.127V12.2368H329.559V14.6241H327.044V16.9371H324.476V19.2583H321.899V21.5713H319.384V23.9173H316.771V26.2303H319.384V35.7878Z" fill="#4B5CBF"/>
  <path d="M0 47.3608V0.663574H20.092V28.6836H30.1425V0.663574H50.2345V47.3608H30.1425V38.0181H20.092V47.3608H0Z" style="fill: rgb(255, 255, 255);"/>
  <path d="M90.4184 28.6836V10.0063H80.3768V28.6836H90.4184ZM60.2759 47.3608V0.663574H110.502V47.3526H90.4095V38.0181H80.3679V47.3526H60.2759V47.3608Z" style="fill: rgb(255, 255, 255);"/>
  <path d="M120.552 47.3608V0.663574H170.787V10.0063H140.644V38.0181H170.787V47.3608H120.552Z" style="fill: rgb(255, 255, 255);"/>
  <path d="M180.828 47.3608V0.663574H200.92V19.3408H210.971V0.663574H231.054V19.3408H221.012V28.6836H231.054V47.3608H210.971V38.0181H200.92V47.3608H180.828Z" style="fill: rgb(255, 255, 255);"/>
  <path d="M251.146 47.3608V10.0063H241.104V0.663574H291.33V10.0063H281.289V47.3608H251.146Z" style="fill: rgb(255, 255, 255);"/>
  <path d="M331.514 38.0181V10.0063H321.472V38.0181H331.514ZM301.38 47.3608V0.663574H351.606V47.3526H301.38V47.3608Z" fill="#B6B9F2"/>
  <path d="M391.79 38.0181V28.6836H381.749V38.0181H391.79ZM391.79 19.3408V10.0063H381.749V19.3408H391.79ZM361.657 47.3608V0.663574H401.841V9.99807H411.882V38.0098H401.841V47.3443H361.657V47.3608Z" style="fill: rgb(255, 255, 255);"/>
  <path d="M421.933 47.3608V0.663574H472.158V10.0063H442.025V19.3408H462.117V28.6836H442.025V38.0181H472.158V47.3608H421.933Z" style="fill: rgb(255, 255, 255);"/>
  <path d="M512.343 28.6836V10.0063H502.301V28.6836H512.343ZM482.209 47.3608V0.663574H532.435V28.6753H522.393V38.0098H532.435V47.3443H512.343V38.0098H502.301V47.3443H482.209V47.3608Z" style="fill: rgb(255, 255, 255);"/>
  <path d="M542.485 47.3608V0.663574H592.711V10.0063H562.568V19.3408H582.66V28.6836H562.568V47.3608H542.485Z" style="fill: rgb(255, 255, 255);"/>
  <path d="M602.752 47.3608V0.663574H652.987V10.0063H622.844V19.3408H642.936V28.6836H622.844V38.0181H652.987V47.3608H602.752Z" style="fill: rgb(255, 255, 255);"/>
  <path d="M663.028 47.3608V38.0181H693.171V28.6836H663.028V0.663574H713.263V10.0063H683.12V19.3408H713.263V47.3608H663.028Z" style="fill: rgb(255, 255, 255);"/>
  <path d="M733.355 47.3608V10.0063H723.304V0.663574H773.539V10.0063H763.489V47.3608H733.355Z" style="fill: rgb(255, 255, 255);"/>
  <path d="M 81.448 119.4 L 78.125 119.4 L 78.125 116.31 L 78.125 113.221 L 78.125 110.14 L 78.125 107.05 L 78.125 103.969 L 74.81 103.969 L 71.487 103.969 L 68.163 103.969 L 64.849 103.969 L 61.525 103.969 L 61.525 107.05 L 61.525 110.14 L 61.525 113.221 L 61.525 116.31 L 61.525 119.4 L 58.211 119.4 L 54.887 119.4 L 54.887 116.31 L 54.887 113.221 L 54.887 110.14 L 54.887 107.05 L 54.887 103.969 L 54.887 100.88 L 54.887 97.791 L 54.887 94.709 L 54.887 91.62 L 54.887 88.539 L 54.887 85.449 L 54.887 82.36 L 58.211 82.36 L 61.525 82.36 L 61.525 85.449 L 61.525 88.539 L 61.525 91.62 L 61.525 94.709 L 61.525 97.791 L 64.849 97.791 L 68.163 97.791 L 71.487 97.791 L 74.81 97.791 L 78.125 97.791 L 78.125 94.709 L 78.125 91.62 L 78.125 88.539 L 78.125 85.449 L 78.125 82.36 L 81.448 82.36 L 84.763 82.36 L 84.763 85.449 L 84.763 88.539 L 84.763 91.62 L 84.763 94.709 L 84.763 97.791 L 84.763 100.88 L 84.763 103.969 L 84.763 107.05 L 84.763 110.14 L 84.763 113.221 L 84.763 116.31 L 84.763 119.4 L 81.448 119.4 Z" style="fill: rgb(255, 255, 255);"/>
  <path d="M 127.924 119.4 L 124.6 119.4 L 121.277 119.4 L 117.953 119.4 L 114.63 119.4 L 111.306 119.4 L 111.306 116.31 L 107.983 116.31 L 107.983 113.221 L 107.983 110.131 L 107.983 107.042 L 107.983 103.953 L 107.983 100.863 L 107.983 97.774 L 107.983 94.685 L 107.983 91.595 L 107.983 88.506 L 107.983 85.416 L 111.306 85.416 L 111.306 82.327 L 114.63 82.327 L 117.953 82.327 L 121.277 82.327 L 124.6 82.327 L 127.924 82.327 L 131.247 82.327 L 131.247 85.416 L 134.571 85.416 L 134.571 88.506 L 134.571 91.595 L 134.571 94.685 L 134.571 97.774 L 134.571 100.863 L 134.571 103.953 L 134.571 107.042 L 134.571 110.131 L 134.571 113.221 L 134.571 116.31 L 131.247 116.31 L 131.247 119.4 L 127.924 119.4 Z M 124.609 113.221 L 127.933 113.221 L 127.933 110.131 L 127.933 107.042 L 127.933 103.953 L 127.933 100.863 L 127.933 97.774 L 127.933 94.685 L 127.933 91.595 L 127.933 88.506 L 124.609 88.506 L 121.286 88.506 L 117.962 88.506 L 114.639 88.506 L 114.639 91.595 L 114.639 94.685 L 114.639 97.774 L 114.639 100.863 L 114.639 103.953 L 114.639 107.042 L 114.639 110.131 L 114.639 113.221 L 117.962 113.221 L 121.286 113.221 L 124.609 113.221 Z" style="fill: rgb(255, 255, 255);"/>
  <path d="M 191.008 119.4 L 187.685 119.4 L 187.685 116.31 L 187.685 113.221 L 187.685 110.14 L 187.685 107.05 L 187.685 103.969 L 187.685 100.88 L 187.685 97.791 L 187.685 94.709 L 184.37 94.709 L 184.37 97.791 L 181.047 97.791 L 181.047 100.88 L 177.723 100.88 L 174.409 100.88 L 171.085 100.88 L 171.085 97.791 L 167.771 97.791 L 167.771 94.709 L 164.447 94.709 L 164.447 97.791 L 164.447 100.88 L 164.447 103.969 L 164.447 107.05 L 164.447 110.14 L 164.447 113.221 L 164.447 116.31 L 164.447 119.4 L 161.124 119.4 L 157.809 119.4 L 157.809 116.31 L 157.809 113.221 L 157.809 110.14 L 157.809 107.05 L 157.809 103.969 L 157.809 100.88 L 157.809 97.791 L 157.809 94.709 L 157.809 91.62 L 157.809 88.539 L 157.809 85.449 L 157.809 82.36 L 161.124 82.36 L 164.447 82.36 L 164.447 85.449 L 167.771 85.449 L 167.771 88.539 L 171.085 88.539 L 171.085 91.62 L 174.409 91.62 L 174.409 94.709 L 177.723 94.709 L 177.723 91.62 L 181.047 91.62 L 181.047 88.539 L 184.37 88.539 L 184.37 85.449 L 187.685 85.449 L 187.685 82.36 L 191.008 82.36 L 194.323 82.36 L 194.323 85.449 L 194.323 88.539 L 194.323 91.62 L 194.323 94.709 L 194.323 97.791 L 194.323 100.88 L 194.323 103.969 L 194.323 107.05 L 194.323 110.14 L 194.323 113.221 L 194.323 116.31 L 194.323 119.4 L 191.008 119.4 Z" style="fill: rgb(255, 255, 255);"/>
  <path d="M 240.808 119.4 L 237.484 119.4 L 234.169 119.4 L 230.846 119.4 L 227.522 119.4 L 224.208 119.4 L 220.884 119.4 L 217.57 119.4 L 217.57 116.31 L 217.57 113.221 L 217.57 110.14 L 217.57 107.05 L 217.57 103.969 L 217.57 100.88 L 217.57 97.791 L 217.57 94.709 L 217.57 91.62 L 217.57 88.539 L 217.57 85.449 L 217.57 82.36 L 220.884 82.36 L 224.208 82.36 L 227.522 82.36 L 230.846 82.36 L 234.169 82.36 L 237.484 82.36 L 240.808 82.36 L 244.122 82.36 L 244.122 85.449 L 244.122 88.539 L 240.808 88.539 L 237.484 88.539 L 234.169 88.539 L 230.846 88.539 L 227.522 88.539 L 224.208 88.539 L 224.208 91.62 L 224.208 94.709 L 224.208 97.791 L 227.522 97.791 L 230.846 97.791 L 234.169 97.791 L 237.484 97.791 L 240.808 97.791 L 240.808 100.88 L 240.808 103.969 L 237.484 103.969 L 234.169 103.969 L 230.846 103.969 L 227.522 103.969 L 224.208 103.969 L 224.208 107.05 L 224.208 110.14 L 224.208 113.221 L 227.522 113.221 L 230.846 113.221 L 234.169 113.221 L 237.484 113.221 L 240.808 113.221 L 244.122 113.221 L 244.122 116.31 L 244.122 119.4 L 240.808 119.4 Z" style="fill: rgb(255, 255, 255);"/>
  <path d="M 307.206 119.4 L 303.883 119.4 L 300.568 119.4 L 297.244 119.4 L 293.93 119.4 L 290.606 119.4 L 287.283 119.4 L 283.968 119.4 L 283.968 116.31 L 283.968 113.221 L 283.968 110.14 L 283.968 107.05 L 283.968 103.969 L 283.968 100.88 L 283.968 97.791 L 283.968 94.709 L 283.968 91.62 L 283.968 88.539 L 283.968 85.449 L 283.968 82.36 L 287.283 82.36 L 290.606 82.36 L 293.93 82.36 L 297.244 82.36 L 300.568 82.36 L 303.883 82.36 L 307.206 82.36 L 310.53 82.36 L 310.53 85.449 L 310.53 88.539 L 307.206 88.539 L 303.883 88.539 L 300.568 88.539 L 297.244 88.539 L 293.93 88.539 L 290.606 88.539 L 290.606 91.62 L 290.606 94.709 L 290.606 97.791 L 293.93 97.791 L 297.244 97.791 L 300.568 97.791 L 303.883 97.791 L 307.206 97.791 L 307.206 100.88 L 307.206 103.969 L 303.883 103.969 L 300.568 103.969 L 297.244 103.969 L 293.93 103.969 L 290.606 103.969 L 290.606 107.05 L 290.606 110.14 L 290.606 113.221 L 293.93 113.221 L 297.244 113.221 L 300.568 113.221 L 303.883 113.221 L 307.206 113.221 L 310.53 113.221 L 310.53 116.31 L 310.53 119.4 L 307.206 119.4 Z" style="fill: rgb(255, 255, 255);"/>
  <path d="M 357.005 119.4 L 353.682 119.4 L 350.358 119.4 L 347.035 119.4 L 343.711 119.4 L 340.388 119.4 L 337.064 119.4 L 333.741 119.4 L 333.741 116.31 L 333.741 113.221 L 333.741 110.131 L 333.741 107.042 L 333.741 103.953 L 333.741 100.863 L 333.741 97.774 L 333.741 94.685 L 333.741 91.595 L 333.741 88.506 L 333.741 85.416 L 333.741 82.327 L 337.064 82.327 L 340.388 82.327 L 343.711 82.327 L 347.035 82.327 L 350.358 82.327 L 353.682 82.327 L 357.005 82.327 L 360.329 82.327 L 360.329 85.416 L 363.652 85.416 L 363.652 88.506 L 363.652 91.595 L 363.652 94.685 L 363.652 97.774 L 363.652 100.863 L 363.652 103.953 L 363.652 107.042 L 363.652 110.131 L 363.652 113.221 L 363.652 116.31 L 360.329 116.31 L 360.329 119.4 L 357.005 119.4 Z M 353.682 113.221 L 357.005 113.221 L 357.005 110.131 L 357.005 107.042 L 357.005 103.953 L 357.005 100.863 L 357.005 97.774 L 357.005 94.685 L 357.005 91.595 L 357.005 88.506 L 353.682 88.506 L 350.358 88.506 L 347.035 88.506 L 343.711 88.506 L 340.388 88.506 L 340.388 91.595 L 340.388 94.685 L 340.388 97.774 L 340.388 100.863 L 340.388 103.953 L 340.388 107.042 L 340.388 110.131 L 340.388 113.221 L 343.711 113.221 L 347.035 113.221 L 350.358 113.221 L 353.682 113.221 Z" style="fill: rgb(255, 255, 255);"/>
  <path d="M 390.205 119.4 L 386.881 119.4 L 386.881 116.31 L 386.881 113.221 L 386.881 110.14 L 386.881 107.05 L 386.881 103.969 L 386.881 100.88 L 386.881 97.791 L 386.881 94.709 L 386.881 91.62 L 386.881 88.539 L 386.881 85.449 L 386.881 82.36 L 390.205 82.36 L 393.528 82.36 L 393.528 85.449 L 393.528 88.539 L 393.528 91.62 L 393.528 94.709 L 393.528 97.791 L 393.528 100.88 L 393.528 103.969 L 393.528 107.05 L 393.528 110.14 L 393.528 113.221 L 393.528 116.31 L 393.528 119.4 L 390.205 119.4 Z" style="fill: rgb(255, 255, 255);"/>
  <path d="M 433.366 119.4 L 430.042 119.4 L 430.042 116.31 L 430.042 113.221 L 430.042 110.14 L 430.042 107.05 L 430.042 103.969 L 430.042 100.88 L 430.042 97.791 L 430.042 94.709 L 430.042 91.62 L 430.042 88.539 L 426.728 88.539 L 423.404 88.539 L 420.09 88.539 L 416.766 88.539 L 416.766 85.449 L 416.766 82.36 L 420.09 82.36 L 423.404 82.36 L 426.728 82.36 L 430.042 82.36 L 433.366 82.36 L 436.689 82.36 L 440.004 82.36 L 443.327 82.36 L 446.642 82.36 L 449.965 82.36 L 449.965 85.449 L 449.965 88.539 L 446.642 88.539 L 443.327 88.539 L 440.004 88.539 L 436.689 88.539 L 436.689 91.62 L 436.689 94.709 L 436.689 97.791 L 436.689 100.88 L 436.689 103.969 L 436.689 107.05 L 436.689 110.14 L 436.689 113.221 L 436.689 116.31 L 436.689 119.4 L 433.366 119.4 Z" style="fill: rgb(255, 255, 255);"/>
  <path d="M 476.527 119.4 L 473.203 119.4 L 473.203 116.31 L 473.203 113.221 L 473.203 110.14 L 473.203 107.05 L 473.203 103.969 L 473.203 100.88 L 473.203 97.791 L 473.203 94.709 L 473.203 91.62 L 473.203 88.539 L 473.203 85.449 L 473.203 82.36 L 476.527 82.36 L 479.841 82.36 L 479.841 85.449 L 479.841 88.539 L 479.841 91.62 L 479.841 94.709 L 479.841 97.791 L 479.841 100.88 L 479.841 103.969 L 479.841 107.05 L 479.841 110.14 L 479.841 113.221 L 479.841 116.31 L 479.841 119.4 L 476.527 119.4 Z" style="fill: rgb(255, 255, 255);"/>
  <path d="M 523.002 119.4 L 519.679 119.4 L 516.355 119.4 L 513.032 119.4 L 509.708 119.4 L 506.385 119.4 L 506.385 116.31 L 503.061 116.31 L 503.061 113.221 L 503.061 110.131 L 503.061 107.042 L 503.061 103.953 L 503.061 100.863 L 503.061 97.774 L 503.061 94.685 L 503.061 91.595 L 503.061 88.506 L 503.061 85.416 L 506.385 85.416 L 506.385 82.327 L 509.708 82.327 L 513.032 82.327 L 516.355 82.327 L 519.679 82.327 L 523.002 82.327 L 526.326 82.327 L 526.326 85.416 L 529.649 85.416 L 529.649 88.506 L 529.649 91.595 L 529.649 94.685 L 529.649 97.774 L 529.649 100.863 L 529.649 103.953 L 529.649 107.042 L 529.649 110.131 L 529.649 113.221 L 529.649 116.31 L 526.326 116.31 L 526.326 119.4 L 523.002 119.4 Z M 519.688 113.221 L 523.011 113.221 L 523.011 110.131 L 523.011 107.042 L 523.011 103.953 L 523.011 100.863 L 523.011 97.774 L 523.011 94.685 L 523.011 91.595 L 523.011 88.506 L 519.688 88.506 L 516.364 88.506 L 513.041 88.506 L 509.717 88.506 L 509.717 91.595 L 509.717 94.685 L 509.717 97.774 L 509.717 100.863 L 509.717 103.953 L 509.717 107.042 L 509.717 110.131 L 509.717 113.221 L 513.041 113.221 L 516.364 113.221 L 519.688 113.221 Z" style="fill: rgb(255, 255, 255);"/>
  <path d="M 579.448 119.4 L 576.125 119.4 L 576.125 116.31 L 576.125 113.221 L 576.125 110.14 L 576.125 107.05 L 572.801 107.05 L 572.801 103.969 L 569.487 103.969 L 569.487 100.88 L 566.163 100.88 L 566.163 97.791 L 562.849 97.791 L 562.849 94.709 L 559.525 94.709 L 559.525 97.791 L 559.525 100.88 L 559.525 103.969 L 559.525 107.05 L 559.525 110.14 L 559.525 113.221 L 559.525 116.31 L 559.525 119.4 L 556.202 119.4 L 552.887 119.4 L 552.887 116.31 L 552.887 113.221 L 552.887 110.14 L 552.887 107.05 L 552.887 103.969 L 552.887 100.88 L 552.887 97.791 L 552.887 94.709 L 552.887 91.62 L 552.887 88.539 L 552.887 85.449 L 552.887 82.36 L 556.202 82.36 L 559.525 82.36 L 559.525 85.449 L 562.849 85.449 L 562.849 88.539 L 566.163 88.539 L 566.163 91.62 L 569.487 91.62 L 569.487 94.709 L 572.801 94.709 L 572.801 97.791 L 576.125 97.791 L 576.125 94.709 L 576.125 91.62 L 576.125 88.539 L 576.125 85.449 L 576.125 82.36 L 579.448 82.36 L 582.763 82.36 L 582.763 85.449 L 582.763 88.539 L 582.763 91.62 L 582.763 94.709 L 582.763 97.791 L 582.763 100.88 L 582.763 103.969 L 582.763 107.05 L 582.763 110.14 L 582.763 113.221 L 582.763 116.31 L 582.763 119.4 L 579.448 119.4 Z" style="fill: rgb(255, 255, 255);"/>
  <path d="M301.603 47.3608V0.663574H351.828V47.3608H301.603Z" style="fill: rgb(255, 255, 255);"/>
  <path fill-rule="evenodd" clip-rule="evenodd" d="M315.261 35.7878H322.894V28.6754H330.546V35.7878H338.17V26.2303H340.783V23.9173H338.17V21.5713H335.655V19.2583H333.078V16.9371H330.519V14.6241H328.004V12.2368H325.436V14.6241H322.921V16.9371H320.353V19.2583H317.776V21.5713H315.261V23.9173H312.648V26.2303H315.261V35.7878Z" style="fill: rgb(26, 35, 50);"/>
  <rect x="627.027" y="116.175" width="3.312" height="3.075" style="fill: rgb(120, 127, 168);"/>
  <text style="font-size: 36; font-family: Roboto; white-space: pre;" transform="matrix(1, 0, 0, 1, 233.686691, 127.303833)">https://github.com/OpenDevUFCG/hacktoberfest.git</text>
  <rect x="630.326" y="116.179" width="3.312" height="3.075" style="fill: rgb(120, 127, 168);"/>
  <rect x="633.624" y="116.176" width="3.312" height="3.075" style="fill: rgb(120, 127, 168);"/>
  <rect x="636.923" y="116.18" width="3.312" height="3.075" style="fill: rgb(120, 127, 168);"/>
  <rect x="640.184" y="116.189" width="3.312" height="3.075" style="fill: rgb(120, 127, 168);"/>
  <rect x="643.482" y="116.193" width="3.312" height="3.075" style="fill: rgb(120, 127, 168);"/>
  <rect x="646.78" y="116.19" width="3.312" height="3.075" style="fill: rgb(120, 127, 168);"/>
  <rect x="650.079" y="116.194" width="3.312" height="3.075" style="fill: rgb(120, 127, 168);"/>
  <rect x="627.043" y="113.116" width="3.312" height="3.075" style="fill: rgb(120, 127, 168);"/>
  <rect x="630.342" y="113.12" width="3.312" height="3.075" style="fill: rgb(120, 127, 168);"/>
  <rect x="633.641" y="113.117" width="3.312" height="3.075" style="fill: rgb(120, 127, 168);"/>
  <rect x="636.939" y="113.121" width="3.312" height="3.075" style="fill: rgb(120, 127, 168);"/>
  <rect x="640.199" y="113.13" width="3.312" height="3.075" style="fill: rgb(120, 127, 168);"/>
  <rect x="643.498" y="113.134" width="3.312" height="3.075" style="fill: rgb(120, 127, 168);"/>
  <rect x="646.797" y="113.131" width="3.312" height="3.075" style="fill: rgb(120, 127, 168);"/>
  <rect x="650.094" y="113.135" width="3.312" height="3.075" style="fill: rgb(120, 127, 168);"/>
  <rect x="630.212" y="110.183" width="3.312" height="3.075" style="fill: rgb(120, 127, 168);"/>
  <rect x="633.511" y="110.187" width="3.312" height="3.075" style="fill: rgb(120, 127, 168);"/>
  <rect x="636.81" y="110.184" width="3.312" height="3.075" style="fill: rgb(120, 127, 168);"/>
  <rect x="632.762" y="107.124" width="3.312" height="3.075" style="fill: rgb(120, 127, 168);"/>
  <rect x="636.061" y="107.129" width="3.312" height="3.075" style="fill: rgb(120, 127, 168);"/>
  <rect x="639.36" y="107.125" width="3.312" height="3.075" style="fill: rgb(120, 127, 168);"/>
  <rect x="635.29" y="104.1" width="3.312" height="3.075" style="fill: rgb(120, 127, 168);"/>
  <rect x="638.59" y="104.104" width="3.312" height="3.075" style="fill: rgb(120, 127, 168);"/>
  <rect x="641.887" y="104.101" width="3.312" height="3.075" style="fill: rgb(120, 127, 168);"/>
  <rect x="637.818" y="101.121" width="3.312" height="3.075" style="fill: rgb(120, 127, 168);"/>
  <rect x="641.116" y="101.125" width="3.312" height="3.075" style="fill: rgb(120, 127, 168);"/>
  <rect x="644.415" y="101.122" width="3.312" height="3.075" style="fill: rgb(120, 127, 168);"/>
  <rect x="640.769" y="98.153" width="3.312" height="3.075" style="fill: rgb(120, 127, 168);"/>
  <rect x="644.068" y="98.157" width="3.312" height="3.075" style="fill: rgb(120, 127, 168);"/>
  <rect x="647.366" y="98.154" width="3.312" height="3.075" style="fill: rgb(120, 127, 168);"/>
  <rect x="642.626" y="95.098" width="3.312" height="3.075" style="fill: rgb(120, 127, 168);"/>
  <rect x="645.925" y="95.095" width="3.312" height="3.075" style="fill: rgb(120, 127, 168);"/>
  <rect x="649.223" y="95.099" width="3.312" height="3.075" style="fill: rgb(120, 127, 168);"/>
  <rect x="642.654" y="92.198" width="3.312" height="3.075" style="fill: rgb(120, 127, 168);"/>
  <rect x="645.952" y="92.195" width="3.312" height="3.075" style="fill: rgb(120, 127, 168);"/>
  <rect x="649.251" y="92.199" width="3.312" height="3.075" style="fill: rgb(120, 127, 168);"/>
  <rect x="641.282" y="89.245" width="3.312" height="3.075" style="fill: rgb(120, 127, 168);"/>
  <rect x="644.581" y="89.242" width="3.312" height="3.075" style="fill: rgb(120, 127, 168);"/>
  <rect x="647.879" y="89.246" width="3.312" height="3.075" style="fill: rgb(120, 127, 168);"/>
  <rect x="635.785" y="86.214" width="3.312" height="3.075" style="fill: rgb(120, 127, 168);"/>
  <rect x="639.085" y="86.218" width="3.312" height="3.075" style="fill: rgb(120, 127, 168);"/>
  <rect x="642.383" y="86.215" width="3.312" height="3.075" style="fill: rgb(120, 127, 168);"/>
  <rect x="645.681" y="86.219" width="3.312" height="3.075" style="fill: rgb(120, 127, 168);"/>
  <rect x="633.348" y="83.223" width="3.312" height="3.075" style="fill: rgb(120, 127, 168);"/>
  <rect x="636.647" y="83.227" width="3.312" height="3.075" style="fill: rgb(120, 127, 168);"/>
  <rect x="639.946" y="83.224" width="3.312" height="3.075" style="fill: rgb(120, 127, 168);"/>
  <rect x="643.245" y="83.228" width="3.312" height="3.075" style="fill: rgb(120, 127, 168);"/>
  <rect x="626.98" y="95.12" width="3.312" height="3.075" style="fill: rgb(120, 127, 168);"/>
  <rect x="630.279" y="95.124" width="3.312" height="3.075" style="fill: rgb(120, 127, 168);"/>
  <rect x="627.004" y="92.091" width="3.312" height="3.075" style="fill: rgb(120, 127, 168);"/>
  <rect x="630.303" y="92.095" width="3.312" height="3.075" style="fill: rgb(120, 127, 168);"/>
  <rect x="626.982" y="89.055" width="3.312" height="3.075" style="fill: rgb(120, 127, 168);"/>
  <rect x="630.282" y="89.059" width="3.312" height="3.075" style="fill: rgb(120, 127, 168);"/>
  <rect x="633.579" y="89.056" width="3.312" height="3.075" style="fill: rgb(120, 127, 168);"/>
  <rect x="628.79" y="86.116" width="3.312" height="3.075" style="fill: rgb(120, 127, 168);"/>
  <rect x="632.089" y="86.12" width="3.312" height="3.075" style="fill: rgb(120, 127, 168);"/>
  <rect x="635.387" y="86.117" width="3.312" height="3.075" style="fill: rgb(120, 127, 168);"/>
  <rect x="636.136" y="87.495" width="3.312" height="3.075" style="fill: rgb(120, 127, 168);"/>
  <rect x="638.592" y="87.504" width="3.312" height="3.075" style="fill: rgb(120, 127, 168);"/>
  <rect x="673.62" y="116.423" width="3.312" height="3.075" style="fill: rgb(120, 127, 168);"/>
  <rect x="676.918" y="116.427" width="3.312" height="3.075" style="fill: rgb(120, 127, 168);"/>
  <rect x="673.636" y="113.364" width="3.312" height="3.075" style="fill: rgb(120, 127, 168);"/>
  <rect x="676.933" y="113.368" width="3.312" height="3.075" style="fill: rgb(120, 127, 168);"/>
  <path d="M 723.001 119.805 L 719.678 119.805 L 716.354 119.805 L 713.031 119.805 L 709.707 119.805 L 706.384 119.805 L 706.384 116.715 L 703.061 116.715 L 703.061 113.626 L 703.061 110.536 L 703.061 107.447 L 703.061 104.358 L 703.061 101.268 L 703.061 98.179 L 703.061 95.09 L 703.061 92 L 703.061 88.911 L 703.061 85.821 L 706.384 85.821 L 706.384 82.732 L 709.707 82.732 L 713.031 82.732 L 716.354 82.732 L 719.678 82.732 L 723.001 82.732 L 726.325 82.732 L 726.325 85.821 L 729.648 85.821 L 729.648 88.911 L 729.648 92 L 729.648 95.09 L 729.648 98.179 L 729.648 101.268 L 729.648 104.358 L 729.648 107.447 L 729.648 110.536 L 729.648 113.626 L 729.648 116.715 L 726.325 116.715 L 726.325 119.805 L 723.001 119.805 Z M 719.687 113.626 L 723.01 113.626 L 723.01 110.536 L 723.01 107.447 L 723.01 104.358 L 723.01 101.268 L 723.01 98.179 L 723.01 95.09 L 723.01 92 L 723.01 88.911 L 719.687 88.911 L 716.363 88.911 L 713.04 88.911 L 709.716 88.911 L 709.716 92 L 709.716 95.09 L 709.716 98.179 L 709.716 101.268 L 709.716 104.358 L 709.716 107.447 L 709.716 110.536 L 709.716 113.626 L 713.04 113.626 L 716.363 113.626 L 719.687 113.626 Z" style="fill: rgb(120, 127, 168);"/>
  <path d="M 718.878 119.805 L 715.555 119.805 L 712.231 119.805 L 708.908 119.805 L 705.584 119.805 L 702.261 119.805 L 702.261 116.715 L 698.937 116.715 L 698.937 113.626 L 698.937 110.536 L 698.937 107.447 L 698.937 104.358 L 698.937 101.268 L 698.937 98.179 L 698.937 95.09 L 698.937 92 L 698.937 88.911 L 698.937 85.821 L 702.261 85.821 L 702.261 82.732 L 705.584 82.732 L 708.908 82.732 L 712.231 82.732 L 715.555 82.732 L 718.878 82.732 L 722.202 82.732 L 722.202 85.821 L 725.525 85.821 L 725.525 88.911 L 725.525 92 L 725.525 95.09 L 725.525 98.179 L 725.525 101.268 L 725.525 104.358 L 725.525 107.447 L 725.525 110.536 L 725.525 113.626 L 725.525 116.715 L 722.202 116.715 L 722.202 119.805 L 718.878 119.805 Z M 715.564 113.626 L 718.887 113.626 L 718.887 110.536 L 718.887 107.447 L 718.887 104.358 L 718.887 101.268 L 718.887 98.179 L 718.887 95.09 L 718.887 92 L 718.887 88.911 L 715.564 88.911 L 712.24 88.911 L 708.917 88.911 L 705.593 88.911 L 705.593 92 L 705.593 95.09 L 705.593 98.179 L 705.593 101.268 L 705.593 104.358 L 705.593 107.447 L 705.593 110.536 L 705.593 113.626 L 708.917 113.626 L 712.24 113.626 L 715.564 113.626 Z" style="fill: rgb(255, 255, 255);"/>
  <rect x="623.273" y="116.259" width="3.312" height="3.075" style="fill: rgb(255, 255, 255); stroke: rgb(255, 255, 255); stroke-width: 0.4px;"/>
  <rect x="626.572" y="116.263" width="3.312" height="3.075" style="fill: rgb(255, 255, 255); stroke: rgb(255, 255, 255); stroke-width: 0.4px;"/>
  <rect x="629.87" y="116.26" width="3.312" height="3.075" style="fill: rgb(255, 255, 255); stroke: rgb(255, 255, 255); stroke-width: 0.4px;"/>
  <rect x="633.169" y="116.264" width="3.312" height="3.075" style="fill: rgb(255, 255, 255); stroke: rgb(255, 255, 255); stroke-width: 0.4px;"/>
  <rect x="636.43" y="116.273" width="3.312" height="3.075" style="fill: rgb(255, 255, 255); stroke: rgb(255, 255, 255); stroke-width: 0.4px;"/>
  <rect x="639.728" y="116.277" width="3.312" height="3.075" style="fill: rgb(255, 255, 255); stroke: rgb(255, 255, 255); stroke-width: 0.4px;"/>
  <rect x="643.026" y="116.274" width="3.312" height="3.075" style="fill: rgb(255, 255, 255); stroke: rgb(255, 255, 255); stroke-width: 0.4px;"/>
  <rect x="646.325" y="116.278" width="3.312" height="3.075" style="fill: rgb(255, 255, 255); stroke: rgb(255, 255, 255); stroke-width: 0.4px;"/>
  <rect x="623.289" y="113.2" width="3.312" height="3.075" style="fill: rgb(255, 255, 255); stroke: rgb(255, 255, 255); stroke-width: 0.4px;"/>
  <rect x="626.588" y="113.204" width="3.312" height="3.075" style="fill: rgb(255, 255, 255); stroke: rgb(255, 255, 255); stroke-width: 0.4px;"/>
  <rect x="629.887" y="113.201" width="3.312" height="3.075" style="fill: rgb(255, 255, 255); stroke: rgb(255, 255, 255); stroke-width: 0.4px;"/>
  <rect x="633.185" y="113.205" width="3.312" height="3.075" style="fill: rgb(255, 255, 255); stroke: rgb(255, 255, 255); stroke-width: 0.4px;"/>
  <rect x="636.445" y="113.214" width="3.312" height="3.075" style="fill: rgb(255, 255, 255); stroke: rgb(255, 255, 255); stroke-width: 0.4px;"/>
  <rect x="639.744" y="113.218" width="3.312" height="3.075" style="fill: rgb(255, 255, 255); stroke: rgb(255, 255, 255); stroke-width: 0.4px;"/>
  <rect x="643.043" y="113.215" width="3.312" height="3.075" style="fill: rgb(255, 255, 255); stroke: rgb(255, 255, 255); stroke-width: 0.4px;"/>
  <rect x="646.34" y="113.219" width="3.312" height="3.075" style="fill: rgb(255, 255, 255); stroke: rgb(255, 255, 255); stroke-width: 0.4px;"/>
  <rect x="626.458" y="110.267" width="3.312" height="3.075" style="fill: rgb(255, 255, 255); stroke: rgb(255, 255, 255); stroke-width: 0.4px;"/>
  <rect x="629.757" y="110.271" width="3.312" height="3.075" style="fill: rgb(255, 255, 255); stroke: rgb(255, 255, 255); stroke-width: 0.4px;"/>
  <rect x="633.056" y="110.268" width="3.312" height="3.075" style="fill: rgb(255, 255, 255); stroke: rgb(255, 255, 255); stroke-width: 0.4px;"/>
  <rect x="629.008" y="107.208" width="3.312" height="3.075" style="fill: rgb(255, 255, 255); stroke: rgb(255, 255, 255); stroke-width: 0.4px;"/>
  <rect x="632.307" y="107.213" width="3.312" height="3.075" style="fill: rgb(255, 255, 255); stroke: rgb(255, 255, 255); stroke-width: 0.4px;"/>
  <rect x="635.606" y="107.209" width="3.312" height="3.075" style="fill: rgb(255, 255, 255); stroke: rgb(255, 255, 255); stroke-width: 0.4px;"/>
  <rect x="631.536" y="104.184" width="3.312" height="3.075" style="fill: rgb(255, 255, 255); stroke: rgb(255, 255, 255); stroke-width: 0.4px;"/>
  <rect x="634.836" y="104.188" width="3.312" height="3.075" style="fill: rgb(255, 255, 255); stroke: rgb(255, 255, 255); stroke-width: 0.4px;"/>
  <rect x="638.133" y="104.185" width="3.312" height="3.075" style="fill: rgb(255, 255, 255); stroke: rgb(255, 255, 255); stroke-width: 0.4px;"/>
  <rect x="634.064" y="101.205" width="3.312" height="3.075" style="fill: rgb(255, 255, 255); stroke: rgb(255, 255, 255); stroke-width: 0.4px;"/>
  <rect x="637.362" y="101.209" width="3.312" height="3.075" style="fill: rgb(255, 255, 255); stroke: rgb(255, 255, 255); stroke-width: 0.4px;"/>
  <rect x="640.661" y="101.206" width="3.312" height="3.075" style="fill: rgb(255, 255, 255); stroke: rgb(255, 255, 255); stroke-width: 0.4px;"/>
  <rect x="637.015" y="98.237" width="3.312" height="3.075" style="fill: rgb(255, 255, 255); stroke: rgb(255, 255, 255); stroke-width: 0.4px;"/>
  <rect x="640.314" y="98.241" width="3.312" height="3.075" style="fill: rgb(255, 255, 255); stroke: rgb(255, 255, 255); stroke-width: 0.4px;"/>
  <rect x="643.612" y="98.238" width="3.312" height="3.075" style="fill: rgb(255, 255, 255); stroke: rgb(255, 255, 255); stroke-width: 0.4px;"/>
  <rect x="638.872" y="95.182" width="3.312" height="3.075" style="fill: rgb(255, 255, 255); stroke: rgb(255, 255, 255); stroke-width: 0.4px;"/>
  <rect x="642.171" y="95.179" width="3.312" height="3.075" style="fill: rgb(255, 255, 255); stroke: rgb(255, 255, 255); stroke-width: 0.4px;"/>
  <rect x="645.469" y="95.183" width="3.312" height="3.075" style="fill: rgb(255, 255, 255); stroke: rgb(255, 255, 255); stroke-width: 0.4px;"/>
  <rect x="638.9" y="92.282" width="3.312" height="3.075" style="fill: rgb(255, 255, 255); stroke: rgb(255, 255, 255); stroke-width: 0.4px;"/>
  <rect x="642.198" y="92.279" width="3.312" height="3.075" style="fill: rgb(255, 255, 255); stroke: rgb(255, 255, 255); stroke-width: 0.4px;"/>
  <rect x="645.497" y="92.283" width="3.312" height="3.075" style="fill: rgb(255, 255, 255); stroke: rgb(255, 255, 255); stroke-width: 0.4px;"/>
  <rect x="637.528" y="89.329" width="3.312" height="3.075" style="fill: rgb(255, 255, 255); stroke: rgb(255, 255, 255); stroke-width: 0.4px;"/>
  <rect x="640.827" y="89.326" width="3.312" height="3.075" style="fill: rgb(255, 255, 255); stroke: rgb(255, 255, 255); stroke-width: 0.4px;"/>
  <rect x="644.125" y="89.33" width="3.312" height="3.075" style="fill: rgb(255, 255, 255); stroke: rgb(255, 255, 255); stroke-width: 0.4px;"/>
  <rect x="632.031" y="86.298" width="3.312" height="3.075" style="fill: rgb(255, 255, 255); stroke: rgb(255, 255, 255); stroke-width: 0.4px;"/>
  <rect x="635.331" y="86.302" width="3.312" height="3.075" style="fill: rgb(255, 255, 255); stroke: rgb(255, 255, 255); stroke-width: 0.4px;"/>
  <rect x="638.629" y="86.299" width="3.312" height="3.075" style="fill: rgb(255, 255, 255); stroke: rgb(255, 255, 255); stroke-width: 0.4px;"/>
  <rect x="641.927" y="86.303" width="3.312" height="3.075" style="fill: rgb(255, 255, 255); stroke: rgb(255, 255, 255); stroke-width: 0.4px;"/>
  <rect x="629.594" y="83.307" width="3.312" height="3.075" style="fill: rgb(255, 255, 255); stroke: rgb(255, 255, 255); stroke-width: 0.4px;"/>
  <rect x="632.893" y="83.311" width="3.312" height="3.075" style="fill: rgb(255, 255, 255); stroke: rgb(255, 255, 255); stroke-width: 0.4px;"/>
  <rect x="636.192" y="83.308" width="3.312" height="3.075" style="fill: rgb(255, 255, 255); stroke: rgb(255, 255, 255); stroke-width: 0.4px;"/>
  <rect x="639.491" y="83.312" width="3.312" height="3.075" style="fill: rgb(255, 255, 255); stroke: rgb(255, 255, 255); stroke-width: 0.4px;"/>
  <rect x="623.226" y="95.204" width="3.312" height="3.075" style="fill: rgb(255, 255, 255); stroke: rgb(255, 255, 255); stroke-width: 0.4px;"/>
  <rect x="626.525" y="95.208" width="3.312" height="3.075" style="fill: rgb(255, 255, 255); stroke: rgb(255, 255, 255); stroke-width: 0.4px;"/>
  <rect x="623.25" y="92.175" width="3.312" height="3.075" style="fill: rgb(255, 255, 255); stroke: rgb(255, 255, 255); stroke-width: 0.4px;"/>
  <rect x="626.549" y="92.179" width="3.312" height="3.075" style="fill: rgb(255, 255, 255); stroke: rgb(255, 255, 255); stroke-width: 0.4px;"/>
  <rect x="623.228" y="89.139" width="3.312" height="3.075" style="fill: rgb(255, 255, 255); stroke: rgb(255, 255, 255); stroke-width: 0.4px;"/>
  <rect x="626.528" y="89.143" width="3.312" height="3.075" style="fill: rgb(255, 255, 255); stroke: rgb(255, 255, 255); stroke-width: 0.4px;"/>
  <rect x="629.825" y="89.14" width="3.312" height="3.075" style="fill: rgb(255, 255, 255); stroke: rgb(255, 255, 255); stroke-width: 0.4px;"/>
  <rect x="625.036" y="86.2" width="3.312" height="3.075" style="fill: rgb(255, 255, 255); stroke: rgb(255, 255, 255); stroke-width: 0.4px;"/>
  <rect x="628.335" y="86.204" width="3.312" height="3.075" style="fill: rgb(255, 255, 255); stroke: rgb(255, 255, 255); stroke-width: 0.4px;"/>
  <rect x="631.633" y="86.201" width="3.312" height="3.075" style="fill: rgb(255, 255, 255); stroke: rgb(255, 255, 255); stroke-width: 0.4px;"/>
  <rect x="632.382" y="87.579" width="3.312" height="3.075" style="fill: rgb(255, 255, 255); stroke: rgb(255, 255, 255); stroke-width: 0.4px;"/>
  <rect x="634.838" y="87.588" width="3.312" height="3.075" style="fill: rgb(255, 255, 255); stroke: rgb(255, 255, 255); stroke-width: 0.4px;"/>
  <rect x="670.223" y="116.483" width="3.312" height="3.075" style="fill: rgb(255, 255, 255); stroke: rgb(255, 255, 255); stroke-width: 0.4px;"/>
  <rect x="673.521" y="116.487" width="3.312" height="3.075" style="fill: rgb(255, 255, 255); stroke: rgb(255, 255, 255); stroke-width: 0.4px;"/>
  <rect x="670.239" y="113.424" width="3.312" height="3.075" style="fill: rgb(255, 255, 255); stroke: rgb(255, 255, 255); stroke-width: 0.4px;"/>
  <rect x="673.536" y="113.428" width="3.312" height="3.075" style="fill: rgb(255, 255, 255); stroke: rgb(255, 255, 255); stroke-width: 0.4px;"/>
  <rect x="626.736" y="84.333" width="3.312" height="3.075" style="fill: rgb(255, 255, 255); stroke: rgb(255, 255, 255); stroke-width: 0.4px;"/>
  <rect x="704.449" y="87.753" width="3.312" height="3.075" style="fill: rgb(255, 255, 255); stroke: rgb(255, 255, 255); stroke-width: 0.4px;"/>
  <rect x="717.085" y="87.656" width="3.312" height="3.075" style="fill: rgb(255, 255, 255); stroke: rgb(255, 255, 255); stroke-width: 0.4px;"/>
  <rect x="717.183" y="111.66" width="3.312" height="3.075" style="fill: rgb(255, 255, 255); stroke: rgb(255, 255, 255); stroke-width: 0.4px;"/>
  <rect x="704.741" y="111.806" width="3.312" height="3.075" style="fill: rgb(255, 255, 255); stroke: rgb(255, 255, 255); stroke-width: 0.4px;"/>
  <rect x="708.628" y="88.927" width="2.503" height="2.199" style="fill: rgb(120, 127, 168);"/>
  <rect x="709.035" y="111.441" width="2.503" height="2.199" style="fill: rgb(120, 127, 168);"/>
</svg>