<svg id="Camada_1" data-name="Camada 1" xmlns="http://www.w3.org/2000/svg" viewBox="0 0 590.44 465.83"><defs><style>.cls-1{fill:#f2ecd9;}.cls-2{fill:#72b4c1;}.cls-3{fill:#303737;}.cls-4{fill:#fff;}.cls-5{fill:#c75c89;}</style></defs><title>Logo SVG fundo transparente</title><circle class="cls-1" cx="210.31" cy="216.26" r="40.77"/><circle class="cls-2" cx="210.31" cy="216.26" r="23.85"/><circle class="cls-3" cx="210.31" cy="216.26" r="14.62"/><circle class="cls-4" cx="198" cy="205.49" r="6.92"/><path class="cls-5" d="M249.06,203.57c-.24.27-.47.56-.69.85-.6.79-1.18,1.87-1.82,2.94l-4-3.25a2.36,2.36,0,0,0-3.26,0,2.31,2.31,0,0,0,0,3.26l4.2,3.45a3.52,3.52,0,0,1-1.71.46c-3,0-3,4.64,0,4.62s5.34-1.69,7.16-4.06a26.44,26.44,0,0,0,1.53-2.44A41.72,41.72,0,0,0,249.06,203.57Z"/><path class="cls-5" d="M229.58,247.55c-1.07-2.3-2.16-4.4-4.78-5.08-2.87-.76-4.1,3.69-1.22,4.45,1.66.43,2.81,4.69,3.45,6.09l.17.36a40.39,40.39,0,0,0,4.07-2.14C230.71,250,230.15,248.78,229.58,247.55Z"/><path class="cls-5" d="M197.27,240.91q-1.77.53-3.48,1.14-1.47-4.23-2.93-8.47c-.92-2.64-5-1.7-4.56.81a11.49,11.49,0,0,1-2.62,0,2.32,2.32,0,0,0-2.3,2.31,2.35,2.35,0,0,0,2.3,2.3,13.55,13.55,0,0,0,4.12-.14l1.71,4.94a58,58,0,0,0-6.08,3.12,41.39,41.39,0,0,0,3.93,3.06,58.11,58.11,0,0,1,11.13-4.6C201.33,244.5,200.12,240.05,197.27,240.91Z"/><path class="cls-5" d="M191.26,191a27.18,27.18,0,0,0-13.62,7.34,2.14,2.14,0,0,0-.67,1.39c-1.1-.45-2.19-.93-3.26-1.43a39.81,39.81,0,0,0-1.8,4.25q3,1.39,6.12,2.55a2.55,2.55,0,0,0,.25,1.29,15.18,15.18,0,0,1,1.43,4.21,2.33,2.33,0,0,0,2.84,1.62,2.37,2.37,0,0,0,1.61-2.84,18.12,18.12,0,0,0-.68-2.5c.72.21,1.43.44,2.16.63,2.88.74,4.11-3.71,1.23-4.45-1.93-.5-3.81-1.09-5.67-1.73a22.85,22.85,0,0,1,11.29-5.88C195.4,194.84,194.17,190.39,191.26,191Z"/><path class="cls-5" d="M231,181.13a17.44,17.44,0,0,1-2.44,3.56c-1.62,1.7-5.56.6-7.8.44-3-.2-2.95,4.41,0,4.62s7.63,1.52,10.13-.59a14.61,14.61,0,0,0,2.55-3.57c.41-.67.83-1.34,1.25-2A43.7,43.7,0,0,0,231,181.13Z"/><path class="cls-1" d="M268.12,175.36h33.29a29,29,0,0,1,.42,58h-13v21H268.12Zm20.75,40.13h12.86a11.33,11.33,0,1,0,0-22.65H288.87Z"/><path class="cls-1" d="M346.92,175.36H396v17.17H367.67v12.85h25.08v17.49H367.67v14.54H396v17H346.92Z"/><path class="cls-1" d="M474.18,254.37,436.88,217v37.4H416.13v-79h8.43L462,212.65V175.36h20.75v79Z"/><path class="cls-1" d="M180,265.36h30.74a41.46,41.46,0,1,1,0,82.92H180Zm21.67,61.25h9.18a19.63,19.63,0,1,0,0-39.25h-9.18Z"/><path class="cls-1" d="M286.42,265.36h51.52v18H308.2v13.49h26.31v18.35H308.2v15.26h29.74v17.8H286.42Z"/><path class="cls-1" d="M451.84,266.56l-38.59,83H403.3l-38.69-83H386.5l21.78,47.21,21.89-47.21Z"/><path class="cls-2" d="M409.41,411.57h62.86V423H409.41Z"/><path class="cls-2" d="M212.42,398.27a8.1,8.1,0,1,1-16.19,0V361H179.88v37.49a24.45,24.45,0,0,0,48.89,0V361H212.42Z"/><polygon class="cls-2" points="234.75 422.96 251.02 422.96 251.02 398.27 270.92 398.27 270.92 384.48 251.02 384.48 251.02 374.41 273.56 374.41 273.56 361.03 234.75 361.03 234.75 422.96"/><path class="cls-2" d="M310.51,406.53A14.05,14.05,0,0,1,296,392c0-8.43,6.11-14.54,14.53-14.54a14.45,14.45,0,0,1,10.4,4.05L332.31,370A31,31,0,1,0,310.51,423a31.05,31.05,0,0,0,22-9.16l-11.57-11.4A14.19,14.19,0,0,1,310.51,406.53Z"/><path class="cls-2" d="M369.34,389.69v10.9h12a14.67,14.67,0,1,1-1.66-19.16L391.14,370a30.94,30.94,0,1,0,9.17,22v-2.31Z"/><polygon class="cls-5" points="268.4 102.6 260.27 102.6 260.27 96.5 246.05 110.73 252.15 110.73 252.15 147.3 256.21 151.37 260.27 147.3 266.37 141.21 264.34 139.18 260.27 143.24 260.27 110.73 268.4 102.6"/><polygon class="cls-5" points="401.09 96.5 401.09 96.5 401.09 88.38 392.96 96.5 392.96 104.63 386.87 110.73 392.96 110.73 392.96 147.3 397.03 151.37 401.09 147.3 401.09 110.73 409.22 102.6 401.09 102.6 401.09 96.5"/><rect class="cls-5" x="402.88" y="84.07" width="8.62" height="8.62" transform="translate(56.77 313.81) rotate(-45)"/><polygon class="cls-5" points="310.37 108.7 310.37 102.6 310.37 92.44 304.28 86.34 298.18 92.44 302.25 96.5 302.25 143.24 310.37 151.37 316.47 145.27 310.37 139.18 310.37 108.7"/><polygon class="cls-5" points="310.37 108.7 316.47 114.79 316.47 145.27 324.6 137.14 324.6 110.73 316.47 102.6 310.37 108.7"/><polygon class="cls-5" points="149.13 142.83 144.86 138.56 144.86 132.15 144.86 100.13 144.86 91.59 144.86 89.45 138.45 83.05 132.05 89.45 136.32 93.72 136.32 104.34 125.69 114.97 125.69 100.13 125.69 89.45 119.29 83.05 119.26 83.07 119.24 83.05 106.43 95.86 108.62 98.05 115.02 91.64 117.16 93.78 117.16 147.1 121.42 151.37 125.69 147.1 125.69 124.17 136.32 113.55 136.32 132.15 136.32 142.83 144.86 151.37 149.13 147.1 151.26 144.96 155.53 140.69 153.4 138.56 149.13 142.83"/><polygon class="cls-5" points="474.19 143.24 474.19 110.73 482.32 102.6 474.19 102.6 474.19 96.5 459.97 110.73 466.07 110.73 466.07 147.3 470.13 151.37 474.19 147.3 480.29 141.21 478.26 139.18 474.19 143.24"/><polygon class="cls-5" points="279.91 108.7 271.78 116.82 271.78 143.24 279.91 151.37 286 145.27 279.91 139.18 279.91 108.7"/><polygon class="cls-5" points="279.91 108.7 286 114.79 286 145.27 294.13 137.14 294.13 110.73 286 102.6 279.91 108.7"/><polygon class="cls-5" points="354.33 110.68 346.25 102.6 340.16 108.7 346.2 114.74 340.16 120.79 340.16 108.7 332.03 116.82 332.03 143.24 340.16 151.37 344.22 147.3 346.25 145.27 352.35 139.18 350.32 137.14 344.22 143.24 340.16 139.18 340.16 124.85 354.33 110.68"/><polygon class="cls-5" points="168.82 108.7 160.69 116.82 160.69 143.24 168.82 151.37 174.92 145.27 168.82 139.18 168.82 108.7"/><polygon class="cls-5" points="183.04 110.73 174.92 102.6 168.82 108.7 174.92 114.79 174.92 145.27 181.01 151.37 187.11 145.27 183.04 141.21 183.04 110.73"/><polygon class="cls-5" points="204.76 143.24 200.7 139.18 200.7 108.7 192.57 116.82 192.57 143.24 200.7 151.37 204.76 147.3 206.79 145.27 212.89 139.18 210.86 137.14 204.76 143.24"/><rect class="cls-5" x="202.48" y="104.33" width="8.62" height="8.62" transform="translate(-16.25 178.04) rotate(-45)"/><rect class="cls-5" x="229.56" y="104.39" width="8.62" height="8.62" transform="translate(-8.36 197.21) rotate(-45)"/><polygon class="cls-5" points="231.84 124.95 231.84 147.3 235.9 151.37 239.97 147.3 239.97 120.89 233.87 114.79 227.77 120.89 231.84 124.95"/><polygon class="cls-5" points="227.77 102.6 227.77 92.44 221.68 86.34 215.58 92.44 219.65 96.5 219.65 147.3 223.71 151.37 227.77 147.3 227.77 120.89 227.77 108.7 227.77 102.6"/><polygon class="cls-5" points="420.03 108.7 426.07 114.74 420.03 120.79 420.03 108.7 411.9 116.82 411.9 143.24 420.03 151.37 424.09 147.3 426.13 145.27 432.22 139.18 430.19 137.14 424.09 143.24 420.03 139.18 420.03 124.85 434.2 110.68 426.13 102.6 420.03 108.7"/><rect class="cls-5" x="372.41" y="104.39" width="8.62" height="8.62" transform="translate(33.48 298.22) rotate(-45)"/><polygon class="cls-5" points="358.43 108.7 362.5 112.76 362.5 118.86 362.5 124.95 362.5 147.3 366.56 151.37 370.62 147.3 370.62 124.95 370.62 118.86 370.62 108.7 364.53 102.6 358.43 108.7"/><rect class="cls-5" x="441.44" y="140.96" width="8.62" height="8.62" transform="translate(27.83 357.74) rotate(-45)"/><rect class="cls-5" x="447.53" y="104.39" width="8.62" height="8.62" transform="translate(55.48 351.34) rotate(-45)"/><polygon class="cls-5" points="439.65 114.79 439.65 122.92 451.84 135.11 451.84 145.27 457.94 139.18 457.94 129.02 456.92 128 451.84 122.92 445.75 116.82 445.75 108.7 439.65 114.79"/></svg>